<svg width="26" height="26" viewBox="0 0 26 26" fill="none" xmlns="http://www.w3.org/2000/svg">
<g clip-path="url(#clip0_2002_25871)">
<path fill-rule="evenodd" clip-rule="evenodd" d="M16.9023 2.62396C16.6642 2.38588 16.3646 2.39634 16.2004 2.41814C16.045 2.43874 15.859 2.49169 15.6818 2.54212L15.5453 2.58091L15.4344 2.51089C15.2842 2.41607 15.1229 2.3142 14.9795 2.25185C14.8176 2.18152 14.5445 2.1015 14.2575 2.25232C13.9761 2.40026 13.8833 2.66511 13.8451 2.83364C13.8102 2.98699 13.7953 3.17875 13.7812 3.36112L13.7704 3.49925L13.7695 3.51077L13.6486 3.61026C13.5042 3.72907 13.3544 3.85238 13.2481 3.96856C13.1354 4.09165 12.9619 4.32292 13.006 4.64493C13.0516 4.97794 13.2927 5.15061 13.4434 5.23418C13.5799 5.30985 13.7594 5.37612 13.9269 5.43787L14.0448 5.48144L14.0883 5.59938C14.1501 5.76676 14.2164 5.94637 14.2921 6.08282C14.3756 6.23351 14.5483 6.47466 14.8813 6.52026C15.2033 6.56435 15.4346 6.39076 15.5576 6.27818C15.6739 6.17189 15.7972 6.02203 15.916 5.87762L16.0155 5.75676L16.0269 5.75585L16.1651 5.74508C16.3475 5.73091 16.5392 5.716 16.6925 5.68114C16.8611 5.64282 17.126 5.55019 17.2739 5.2687C17.4248 4.98174 17.3447 4.70861 17.2744 4.5468C17.212 4.40335 17.1102 4.24207 17.0154 4.09195L16.9453 3.98097L16.9841 3.84446C17.0345 3.66722 17.0875 3.48117 17.1081 3.32589C17.1299 3.16157 17.1404 2.86204 16.9023 2.62396Z" fill="#0047FF"/>
<path d="M11.0356 2.34094C11.4184 2.575 11.5391 3.07511 11.305 3.45796C11.1351 3.73578 11.1777 4.09379 11.408 4.32404L11.514 4.43008C12.1517 5.06778 12.3869 6.00463 12.126 6.8679C11.9961 7.29744 11.5427 7.54039 11.1132 7.41055C10.6836 7.28072 10.4406 6.82725 10.5705 6.39771C10.6581 6.10784 10.5791 5.79326 10.365 5.57912L10.2589 5.47309C9.49788 4.71201 9.35718 3.52869 9.91857 2.61038C10.1526 2.22753 10.6527 2.1069 11.0356 2.34094Z" fill="#0047FF"/>
<path d="M23.1932 14.713C22.8013 14.5417 22.3457 14.6137 22.0257 14.8974C21.1489 15.6748 19.8732 15.804 18.8585 15.2182L18.6279 15.085C18.2392 14.8607 18.1061 14.3637 18.3304 13.9752C18.5548 13.5866 19.0517 13.4534 19.4404 13.6778L19.671 13.8108C20.0799 14.047 20.5942 13.995 20.9476 13.6816C21.7414 12.9776 22.872 12.7991 23.8443 13.2241L24.16 13.3622C24.5712 13.5419 24.7587 14.021 24.579 14.4321C24.3992 14.8433 23.9201 15.0309 23.509 14.8511L23.1932 14.713Z" fill="#0047FF"/>
<path d="M13.9927 7.77713C13.7657 7.5502 13.3978 7.5502 13.1708 7.77713C12.944 8.00405 12.944 8.37196 13.1708 8.59889C13.3978 8.82582 13.7657 8.82582 13.9927 8.59889C14.2195 8.37196 14.2195 8.00405 13.9927 7.77713Z" fill="#0047FF"/>
<path fill-rule="evenodd" clip-rule="evenodd" d="M24.4012 9.60276C24.6785 10.2028 24.4914 10.8841 23.9853 11.3901C23.6919 11.6836 23.2986 11.8165 22.9484 11.8788C22.5901 11.9425 22.2115 11.9438 21.8797 11.9226C21.5447 11.9011 21.2375 11.8553 21.0154 11.8154C20.9037 11.7953 20.8121 11.7765 20.7476 11.7625C20.7153 11.7554 20.6897 11.7496 20.6716 11.7453L20.6502 11.7402L20.6439 11.7387L20.6419 11.7383L20.6408 11.738C20.4456 11.6897 20.2933 11.5374 20.245 11.3423L20.7709 11.2122C20.245 11.3423 20.2448 11.3411 20.2448 11.3411L20.2443 11.3391L20.2427 11.3328L20.2377 11.3115C20.2334 11.2934 20.2276 11.2677 20.2206 11.2354C20.2066 11.1708 20.1877 11.0793 20.1677 10.9677C20.1278 10.7456 20.082 10.4384 20.0605 10.1033C20.0393 9.77159 20.0405 9.39289 20.1043 9.03463C20.1665 8.68443 20.2994 8.29116 20.5929 7.99772C21.099 7.49165 21.7802 7.3046 22.3803 7.58177C22.8355 7.79202 23.1316 8.21753 23.243 8.74002C23.7655 8.85151 24.1911 9.14758 24.4012 9.60276Z" fill="#0047FF"/>
<g opacity="0.5">
<path d="M19.1642 5.13886C19.6042 5.22686 19.8896 5.65491 19.8016 6.09493L19.6456 6.87486C19.4309 7.94824 18.6576 8.8243 17.6191 9.17045C17.1339 9.33221 16.7725 9.74157 16.6722 10.2431L16.5162 11.023C16.4282 11.4631 16.0001 11.7484 15.5601 11.6605C15.1201 11.5724 14.8347 11.1444 14.9227 10.7044L15.0787 9.92444C15.2934 8.85106 16.0667 7.975 17.1052 7.62884C17.5905 7.4671 17.9518 7.05774 18.0521 6.55616L18.2081 5.77624C18.2961 5.33622 18.7242 5.05085 19.1642 5.13886Z" fill="#0047FF"/>
<path d="M7.50598 4.293C7.73289 4.06607 8.10082 4.06607 8.32774 4.293C8.55467 4.51991 8.55467 4.88783 8.32774 5.11476C8.10082 5.34169 7.73289 5.34169 7.50598 5.11476C7.27905 4.88783 7.27905 4.51991 7.50598 4.293Z" fill="#0047FF"/>
</g>
<path opacity="0.7" d="M21.4684 16.6133C21.2416 16.3864 20.8736 16.3864 20.6467 16.6133C20.4197 16.8402 20.4197 17.2081 20.6467 17.4351C20.8736 17.6619 21.2416 17.6619 21.4684 17.4351C21.6954 17.2081 21.6954 16.8402 21.4684 16.6133Z" fill="#0047FF"/>
<path opacity="0.2" d="M18.5879 11.0274C18.8148 10.8004 19.1828 10.8004 19.4097 11.0274C19.6366 11.2542 19.6366 11.6222 19.4097 11.8491C19.1828 12.0761 18.8148 12.0761 18.5879 11.8491C18.361 11.6222 18.361 11.2542 18.5879 11.0274Z" fill="#0047FF"/>
<path opacity="0.5" d="M4.34642 17.0753L6.1767 11.5844C7.00655 9.09489 7.42148 7.85012 8.40325 7.61835C9.38503 7.38658 10.3128 8.31438 12.1684 10.17L15.829 13.8305C17.6846 15.6862 18.6124 16.6139 18.3806 17.5958C18.1489 18.5775 16.9041 18.9924 14.4145 19.8223L8.92368 21.6526C5.92782 22.6512 4.42989 23.1505 3.63918 22.3598C2.84848 21.5691 3.34779 20.0712 4.34642 17.0753Z" fill="#0047FF"/>
<path d="M9.53344 8.12963L9.58827 7.86419C9.16241 7.61432 8.78691 7.52776 8.40318 7.61835C8.24671 7.65528 8.10463 7.71795 7.97297 7.8073L8.72745 7.96317C8.20903 7.85607 8.03289 7.81962 7.97297 7.8073C7.96037 7.81585 7.94776 7.82473 7.93535 7.83377L7.9296 7.86218C7.92178 7.90109 7.91048 7.95793 7.89625 8.03106C7.86779 8.1773 7.82759 8.38878 7.78012 8.65221C7.68523 9.17873 7.56098 9.91453 7.44334 10.7529C7.21027 12.4138 6.99441 14.5361 7.10562 16.2321C7.17291 17.2582 7.3864 18.5312 7.57694 19.5258C7.67309 20.0278 7.76515 20.4678 7.83321 20.7825C7.86726 20.9399 7.89536 21.0662 7.91503 21.1536L7.93793 21.2545L7.94408 21.2811L7.94617 21.2902C7.94618 21.2904 7.94637 21.2911 8.73773 21.1069L7.94617 21.2902L8.09456 21.928C8.35734 21.8413 8.63344 21.7493 8.92359 21.6526L9.64309 21.4128L9.5274 20.9155L9.52189 20.8916L9.50032 20.7966C9.48155 20.7133 9.45446 20.5915 9.42148 20.439C9.35549 20.1338 9.26613 19.7068 9.17292 19.2201C8.9847 18.2375 8.78751 17.0464 8.72713 16.1257C8.62741 14.6049 8.82223 12.6203 9.05258 10.9788C9.16664 10.1658 9.28728 9.45133 9.37935 8.94041C9.42536 8.68512 9.46416 8.4811 9.49133 8.3415C9.5049 8.27171 9.51557 8.21806 9.52278 8.18221L9.53091 8.14197L9.53289 8.13224L9.53344 8.12963Z" fill="#0047FF"/>
<path d="M14.1259 19.9185L12.5842 20.4323L12.4841 20.1312L13.2552 19.875C12.4841 20.1312 12.4842 20.1313 12.4841 20.1312L12.4831 20.1281L12.481 20.1216L12.4733 20.098C12.4667 20.0778 12.4573 20.0486 12.4454 20.0113C12.4218 19.9367 12.3884 19.8296 12.3485 19.6962C12.2688 19.43 12.1626 19.0577 12.0562 18.6317C11.8481 17.7984 11.6214 16.6909 11.6214 15.7681C11.6214 14.8454 11.8481 13.7379 12.0562 12.9046C12.1626 12.4786 12.2688 12.1063 12.3485 11.8401C12.3884 11.7067 12.4218 11.5996 12.4454 11.5249C12.4573 11.4877 12.4667 11.4585 12.4733 11.4383L12.481 11.4147L12.4831 11.4081L12.4838 11.4061C12.4838 11.4061 12.4841 11.4051 13.2552 11.6613L12.4838 11.4061L12.7135 10.7151L13.9993 12.0009C13.9978 12.0059 13.996 12.0111 13.9943 12.0166C13.9731 12.0835 13.9423 12.1821 13.9052 12.306C13.8309 12.5543 13.7318 12.902 13.6328 13.2983C13.4302 14.1095 13.2464 15.0554 13.2464 15.7681C13.2464 16.4809 13.4302 17.4268 13.6328 18.238C13.7318 18.6343 13.8309 18.982 13.9052 19.2303C13.9423 19.3542 13.9731 19.4528 13.9943 19.5197C14.0049 19.5532 14.0131 19.5788 14.0187 19.5955L14.0246 19.614L14.026 19.6181L14.1259 19.9185Z" fill="#0047FF"/>
</g>
<defs>
<clipPath id="clip0_2002_25871">
<rect width="26" height="26" fill="white"/>
</clipPath>
</defs>
</svg>
