<svg width="26" height="26" viewBox="0 0 26 26" fill="none" xmlns="http://www.w3.org/2000/svg">
<path fill-rule="evenodd" clip-rule="evenodd" d="M15.6505 17.7417L21.9845 11.4266C22.8968 10.5172 23.3529 10.0625 23.5931 9.48421C23.8334 8.90596 23.8334 8.26287 23.8334 6.97671V6.36225C23.8334 4.38447 23.8334 3.39558 23.217 2.78116C22.6008 2.16675 21.6089 2.16675 19.6253 2.16675H19.0089C17.7189 2.16675 17.0739 2.16675 16.4939 2.40627C15.9139 2.6458 15.4578 3.10053 14.5456 4.01L8.21148 10.3251C7.14557 11.3878 6.48465 12.0467 6.22871 12.6832C6.14785 12.8843 6.10742 13.0832 6.10742 13.2917C6.10742 14.1607 6.80877 14.8599 8.21148 16.2584L8.4 16.4464L10.6084 14.2051C10.9234 13.8854 11.4377 13.8816 11.7574 14.1965C12.077 14.5114 12.0808 15.0259 11.7659 15.3456L9.5508 17.5937L9.69928 17.7417C11.102 19.1403 11.8034 19.8395 12.6749 19.8395C12.8674 19.8395 13.0517 19.8054 13.2371 19.7371C13.8906 19.4964 14.5577 18.8312 15.6505 17.7417ZM18.6262 10.3255C17.8045 11.1448 16.4723 11.1448 15.6506 10.3255C14.8289 9.50633 14.8289 8.17811 15.6506 7.35888C16.4723 6.53966 17.8045 6.53966 18.6262 7.35888C19.4479 8.17811 19.4479 9.50633 18.6262 10.3255Z" fill="#583DCC"/>
<g opacity="0.5">
<path d="M9.78723 6.45997L7.03215 9.20677C6.52575 9.71165 6.0612 10.1748 5.69434 10.5934C5.45875 10.8623 5.22332 11.1566 5.0239 11.4817L4.99706 11.4549C4.9461 11.4041 4.92059 11.3787 4.89501 11.3539C4.41614 10.8892 3.85286 10.5198 3.23531 10.2654C3.20231 10.2518 3.16881 10.2385 3.10182 10.212L2.69161 10.0494C2.13591 9.82924 1.98781 9.11385 2.41065 8.69229C3.62421 7.48241 5.08126 6.02977 5.78444 5.738C6.40459 5.4807 7.0745 5.39508 7.72061 5.49057C8.31262 5.57806 8.87265 5.88215 9.78723 6.45997Z" fill="#583DCC"/>
<path d="M14.4915 20.9227C14.7135 21.148 14.8609 21.3071 14.9943 21.4772C15.1701 21.7016 15.3274 21.9399 15.4645 22.1898C15.6187 22.4712 15.7385 22.7717 15.9782 23.3727C16.1732 23.8621 16.8212 23.9914 17.1976 23.6161L17.2886 23.5254C18.5021 22.3154 19.9591 20.8627 20.2517 20.1617C20.5099 19.5434 20.5957 18.8755 20.4999 18.2313C20.4121 17.6411 20.1073 17.0829 19.5278 16.1713L16.7636 18.9273C16.2456 19.4436 15.7708 19.9171 15.3414 20.2879C15.084 20.5102 14.8024 20.7324 14.4915 20.9227Z" fill="#583DCC"/>
</g>
</svg>
