<svg width="334" height="92" viewBox="0 0 334 92" fill="none" xmlns="http://www.w3.org/2000/svg">
<path opacity="0.6" d="M272.533 90C229.333 96 104.199 82.5 47.0328 75C30.8661 73 -1.16721 68.4 0.0327924 66C1.53279 62.9999 47.0328 55 54.0328 55.5C61.0328 56 108.033 40 116.033 33C122.433 27.4 142.033 19.3333 151.033 16C168.033 20.5 185.367 34.4715 194.533 37C209.033 41 227.033 36 237.533 37C246.98 37.663 257.912 45.3151 265.9 50.9073L266.033 51C274.033 56.6 283.533 66 292.033 66L333.033 75C330.866 77.5 315.733 84 272.533 90Z" fill="#583DCC"/>
<path d="M118.61 37.5001C118.61 37.5001 118.521 48.7322 120.669 49.8353C122.817 50.9384 123.061 50.89 124.358 49.1036C125.655 47.3171 123.409 41.1359 123.409 41.1359C126.458 40.2925 130.384 37.2038 129.83 34.4124C129.276 31.6209 127.049 33.7873 125.494 36.2272C124.25 38.1792 123.45 37.3432 123.205 36.6812C123.205 36.6812 121.847 32.1767 121.367 30.8397C120.887 29.5026 119.321 23.7982 117.469 23.9745C115.617 24.1508 115.61 26.4915 115.838 27.6398L117.113 34.0704C115.507 35.4855 113.851 34.2606 113.223 33.4712C112.582 32.8345 111.55 32.0708 111.068 32.8826C110.516 34.4242 110.321 34.8448 113.122 37.7264C115.923 40.6081 117.456 37.8085 118.61 37.5001Z" fill="#BCBCBC"/>
<path d="M128.5 14.0057C128.5 14.0057 128.051 54 131.526 56C135 58 136.535 57 138 56C139.465 55 139.035 42.1937 139.035 42.1937C140.87 42.3855 145.142 42.6539 147.545 42.1937C149.948 41.7335 152.051 40.4679 153.052 37.5916C154.053 34.7153 154.554 16.3068 153.052 14.0057C151.55 11.7045 150.549 11.0143 148.547 10.5541C146.544 10.0939 144.542 11.7047 143.54 14.0057C142.539 16.3067 143.741 30.1132 142.539 32.4142C141.338 34.7153 139.702 34.14 139.035 33.5647C139.035 33.5647 140.036 16.3068 139.035 14.0057C138.034 11.7045 138.306 6.07956 133.5 6.99998C128.694 7.9204 128.5 11 128.5 14.0057Z" fill="#1E2831"/>
<path d="M220.338 48.0231V74.5231C220.338 74.5231 229.338 75.5231 231.5 73C233.662 70.4769 233.838 57.5231 233.838 57.5231C241.338 57.0231 246.338 50.0231 248.838 46.0231C251.338 42.0231 251.338 36.5231 250.338 35.0231C249.538 33.8231 247.672 33.1897 246.838 33.0231C245.172 32.5231 241.938 32.5231 242.338 36.5231C242.738 40.5231 240.838 44.5231 239.838 46.0231C235.438 51.2231 233.005 49.5231 232.338 48.0231C232.338 48.0231 232.838 29.0231 232.338 26.0231C231.838 23.0231 229.238 19.4231 224.838 19.0231C220.438 18.6231 219.338 23.5231 219.338 26.0231V40.0231C215.738 40.4231 212.338 37.0231 210.338 33.0231C209.338 29.5231 209.538 24.6231 208.338 23.0231C207.138 21.4231 203.838 21.5231 202.338 23.0231C200.338 26.0231 200.138 32.3231 205.338 39.5231C210.538 46.7231 217.505 48.1898 220.338 48.0231Z" fill="#583DCC"/>
<path d="M227.533 72.5C227.533 76.6421 224.227 78.5 219.533 78.5C214.838 78.5 211.033 76.6421 211.033 72.5C211.033 68.3579 214.838 65 219.533 65C224.227 65 224.533 68.6941 227.533 72.5Z" fill="#45545F"/>
</svg>
