<svg width="26" height="26" viewBox="0 0 26 26" fill="none" xmlns="http://www.w3.org/2000/svg">
<g clip-path="url(#clip0_248_20135)">
<path d="M3.5673 10.0673C3.25 10.3846 3.25 10.8953 3.25 11.9167V18.4167C3.25 19.438 3.25 19.9487 3.5673 20.266C3.88461 20.5833 4.39529 20.5833 5.41667 20.5833C6.43804 20.5833 6.94873 20.5833 7.26604 20.266C7.58333 19.9487 7.58333 19.438 7.58333 18.4167V11.9167C7.58333 10.8953 7.58333 10.3846 7.26604 10.0673C6.94873 9.75 6.43804 9.75 5.41667 9.75C4.39529 9.75 3.88461 9.75 3.5673 10.0673Z" fill="#583DCC"/>
<path opacity="0.4" d="M18.734 2.48392C18.4167 2.80123 18.4167 3.31192 18.4167 4.33329V18.4166C18.4167 19.438 18.4167 19.9487 18.734 20.266C19.0513 20.5833 19.562 20.5833 20.5833 20.5833C21.6047 20.5833 22.1154 20.5833 22.4327 20.266C22.75 19.9487 22.75 19.438 22.75 18.4166V4.33329C22.75 3.31192 22.75 2.80123 22.4327 2.48392C22.1154 2.16663 21.6047 2.16663 20.5833 2.16663C19.562 2.16663 19.0513 2.16663 18.734 2.48392Z" fill="#583DCC"/>
<path opacity="0.7" d="M10.8333 7.58329C10.8333 6.56192 10.8333 6.05123 11.1506 5.73392C11.4679 5.41663 11.9786 5.41663 13 5.41663C14.0214 5.41663 14.532 5.41663 14.8494 5.73392C15.1667 6.05123 15.1667 6.56192 15.1667 7.58329V18.4166C15.1667 19.438 15.1667 19.9487 14.8494 20.266C14.532 20.5833 14.0214 20.5833 13 20.5833C11.9786 20.5833 11.4679 20.5833 11.1506 20.266C10.8333 19.9487 10.8333 19.438 10.8333 18.4166V7.58329Z" fill="#583DCC"/>
<path d="M3.25 23.0209C2.80127 23.0209 2.4375 23.3847 2.4375 23.8334C2.4375 24.2821 2.80127 24.6459 3.25 24.6459H22.75C23.1987 24.6459 23.5625 24.2821 23.5625 23.8334C23.5625 23.3847 23.1987 23.0209 22.75 23.0209H3.25Z" fill="#583DCC"/>
</g>
<defs>
<clipPath id="clip0_248_20135">
<rect width="26" height="26" fill="white"/>
</clipPath>
</defs>
</svg>
