<svg width="48" height="48" viewBox="0 0 48 48" fill="none" xmlns="http://www.w3.org/2000/svg">
<path opacity="0.5" d="M44 24C44 35.0456 35.0456 44 24 44C12.9543 44 4 35.0456 4 24C4 12.9543 12.9543 4 24 4C35.0456 4 44 12.9543 44 24Z" fill="#0047FF"/>
<path d="M33.614 38.0224C30.8796 39.9008 27.5682 41 24 41C20.4318 41 17.1205 39.9006 14.386 38.0222C13.1783 37.1926 12.6622 35.6124 13.3644 34.3264C14.82 31.6604 17.8195 30 24 30C30.1806 30 33.18 31.6606 34.6356 34.3264C35.3378 35.6124 34.8216 37.1928 33.614 38.0224Z" fill="#0047FF"/>
<path d="M24 24C27.3138 24 30 21.3138 30 18C30 14.6863 27.3138 12 24 12C20.6864 12 18.0001 14.6863 18.0001 18C18.0001 21.3138 20.6864 24 24 24Z" fill="#0047FF"/>
</svg>
