<svg width="27" height="27" viewBox="0 0 27 27" fill="none" xmlns="http://www.w3.org/2000/svg">
<g clip-path="url(#clip0_2018_38922)">
<path fill-rule="evenodd" clip-rule="evenodd" d="M17.4023 3.12396C17.1642 2.88588 16.8646 2.89634 16.7004 2.91814C16.5451 2.93874 16.3591 2.99169 16.1818 3.04212L16.0453 3.08091L15.9344 3.01089C15.7842 2.91607 15.6229 2.8142 15.4795 2.75185C15.3176 2.68152 15.0445 2.6015 14.7576 2.75232C14.4761 2.90026 14.3834 3.16511 14.3451 3.33364C14.3103 3.48699 14.2953 3.67875 14.2812 3.86112L14.2704 3.99925L14.2695 4.01077L14.1486 4.11026C14.0042 4.22907 13.8544 4.35238 13.7481 4.46856C13.6354 4.59165 13.4619 4.82292 13.506 5.14493C13.5516 5.47794 13.7927 5.65061 13.9434 5.73418C14.0799 5.80985 14.2594 5.87612 14.4269 5.93787L14.5448 5.98144L14.5883 6.09938C14.6501 6.26676 14.7164 6.44637 14.7921 6.58282C14.8756 6.73351 15.0483 6.97466 15.3813 7.02026C15.7033 7.06435 15.9346 6.89076 16.0577 6.77818C16.1739 6.67189 16.2972 6.52203 16.416 6.37762L16.5155 6.25676L16.527 6.25585L16.6651 6.24508C16.8475 6.23091 17.0393 6.216 17.1926 6.18114C17.3611 6.14282 17.626 6.05019 17.7739 5.7687C17.9248 5.48174 17.8447 5.20861 17.7744 5.0468C17.712 4.90335 17.6102 4.74207 17.5154 4.59195L17.4453 4.48097L17.4841 4.34446C17.5346 4.16722 17.5875 3.98117 17.6081 3.82589C17.6299 3.66157 17.6404 3.36204 17.4023 3.12396Z" fill="#850E0C"/>
<path d="M11.5356 2.84094C11.9184 3.075 12.0391 3.57511 11.805 3.95796C11.6351 4.23578 11.6777 4.59379 11.908 4.82404L12.014 4.93008C12.6517 5.56778 12.8869 6.50463 12.6259 7.3679C12.4961 7.79744 12.0427 8.04039 11.6131 7.91055C11.1836 7.78072 10.9406 7.32725 11.0704 6.89771C11.1581 6.60784 11.0791 6.29326 10.865 6.07913L10.7589 5.97309C9.99787 5.21201 9.85716 4.02869 10.4186 3.11038C10.6526 2.72753 11.1527 2.6069 11.5356 2.84094Z" fill="#850E0C"/>
<path d="M23.6932 15.213C23.3013 15.0417 22.8457 15.1137 22.5257 15.3974C21.6489 16.1748 20.3732 16.304 19.3584 15.7182L19.1279 15.585C18.7392 15.3607 18.6061 14.8637 18.8304 14.4752C19.0548 14.0866 19.5517 13.9534 19.9404 14.1778L20.1709 14.3108C20.5799 14.547 21.0942 14.495 21.4475 14.1816C22.2414 13.4776 23.372 13.2991 24.3443 13.7241L24.6599 13.8622C25.0712 14.0419 25.2587 14.521 25.079 14.9321C24.8991 15.3433 24.4201 15.5309 24.009 15.3511L23.6932 15.213Z" fill="#850E0C"/>
<path d="M14.4927 8.27713C14.2657 8.0502 13.8978 8.0502 13.6709 8.27713C13.444 8.50405 13.444 8.87196 13.6709 9.09889C13.8978 9.32582 14.2657 9.32582 14.4927 9.09889C14.7195 8.87196 14.7195 8.50405 14.4927 8.27713Z" fill="#850E0C"/>
<path fill-rule="evenodd" clip-rule="evenodd" d="M24.9012 10.1028C25.1784 10.7028 24.9913 11.3841 24.4853 11.8901C24.1918 12.1836 23.7986 12.3165 23.4483 12.3788C23.0901 12.4425 22.7115 12.4438 22.3796 12.4226C22.0447 12.4011 21.7374 12.3553 21.5153 12.3154C21.4037 12.2953 21.3121 12.2765 21.2475 12.2625C21.2153 12.2554 21.1897 12.2496 21.1716 12.2453L21.1502 12.2402L21.1439 12.2387L21.1419 12.2383L21.1407 12.238C20.9456 12.1897 20.7933 12.0374 20.745 11.8423L21.2708 11.7122C20.745 11.8423 20.7448 11.8411 20.7448 11.8411L20.7442 11.8391L20.7427 11.8328L20.7376 11.8115C20.7334 11.7934 20.7275 11.7677 20.7206 11.7354C20.7065 11.6708 20.6877 11.5793 20.6676 11.4677C20.6278 11.2456 20.5819 10.9384 20.5605 10.6033C20.5393 10.2716 20.5405 9.89289 20.6043 9.53463C20.6664 9.18443 20.7994 8.79116 21.0928 8.49772C21.599 7.99165 22.2802 7.8046 22.8802 8.08177C23.3355 8.29202 23.6315 8.71753 23.743 9.24002C24.2655 9.35151 24.691 9.64758 24.9012 10.1028Z" fill="#850E0C"/>
<g opacity="0.5">
<path d="M19.6641 5.63886C20.1042 5.72686 20.3895 6.15491 20.3016 6.59493L20.1456 7.37486C19.9308 8.44824 19.1576 9.3243 18.1191 9.67045C17.6339 9.83221 17.2725 10.2416 17.1721 10.7431L17.0161 11.523C16.9282 11.9631 16.5 12.2484 16.0601 12.1605C15.62 12.0724 15.3347 11.6444 15.4227 11.2044L15.5787 10.4244C15.7934 9.35106 16.5667 8.475 17.6051 8.12884C18.0905 7.9671 18.4518 7.55774 18.5521 7.05616L18.7081 6.27624C18.7961 5.83622 19.2242 5.55085 19.6641 5.63886Z" fill="#850E0C"/>
<path d="M8.00595 4.793C8.23286 4.56607 8.60079 4.56607 8.82771 4.793C9.05464 5.01991 9.05464 5.38783 8.82771 5.61476C8.60079 5.84169 8.23286 5.84169 8.00595 5.61476C7.77902 5.38783 7.77902 5.01991 8.00595 4.793Z" fill="#850E0C"/>
</g>
<path opacity="0.7" d="M21.9684 17.1133C21.7416 16.8864 21.3736 16.8864 21.1467 17.1133C20.9198 17.3402 20.9198 17.7081 21.1467 17.9351C21.3736 18.1619 21.7416 18.1619 21.9684 17.9351C22.1954 17.7081 22.1954 17.3402 21.9684 17.1133Z" fill="#850E0C"/>
<path opacity="0.2" d="M19.0879 11.5274C19.3148 11.3004 19.6828 11.3004 19.9097 11.5274C20.1366 11.7542 20.1366 12.1222 19.9097 12.3491C19.6828 12.5761 19.3148 12.5761 19.0879 12.3491C18.861 12.1222 18.861 11.7542 19.0879 11.5274Z" fill="#850E0C"/>
<path opacity="0.5" d="M4.84643 17.5753L6.67671 12.0844C7.50657 9.59489 7.92149 8.35012 8.90327 8.11835C9.88505 7.88658 10.8128 8.81438 12.6685 10.67L16.329 14.3305C18.1846 16.1862 19.1124 17.1139 18.8806 18.0958C18.6489 19.0775 17.4041 19.4924 14.9145 20.3223L9.4237 22.1526C6.42784 23.1512 4.9299 23.6505 4.1392 22.8598C3.3485 22.0691 3.8478 20.5712 4.84643 17.5753Z" fill="#850E0C"/>
<path d="M10.0334 8.62963L10.0883 8.36419C9.66239 8.11432 9.2869 8.02776 8.90317 8.11835C8.74669 8.15528 8.60461 8.21795 8.47295 8.3073L9.22743 8.46317C8.70901 8.35607 8.53287 8.31962 8.47295 8.3073C8.46036 8.31585 8.44775 8.32473 8.43533 8.33377L8.42959 8.36218C8.42177 8.40109 8.41047 8.45793 8.39623 8.53106C8.36777 8.6773 8.32757 8.88878 8.2801 9.15221C8.18521 9.67873 8.06096 10.4145 7.94332 11.2529C7.71026 12.9138 7.49439 15.0361 7.60561 16.7321C7.67289 17.7582 7.88638 19.0312 8.07692 20.0258C8.17308 20.5278 8.26514 20.9678 8.33319 21.2825C8.36724 21.4399 8.39534 21.5662 8.41502 21.6536L8.43792 21.7545L8.44406 21.7811L8.44615 21.7902C8.44616 21.7904 8.44636 21.7911 9.23771 21.6069L8.44615 21.7902L8.59455 22.428C8.85732 22.3413 9.13342 22.2493 9.42358 22.1526L10.1431 21.9128L10.0274 21.4155L10.0219 21.3916L10.0003 21.2966C9.98154 21.2133 9.95445 21.0915 9.92147 20.939C9.85547 20.6338 9.76612 20.2068 9.67291 19.7201C9.48468 18.7375 9.28749 17.5464 9.22712 16.6257C9.1274 15.1049 9.32221 13.1203 9.55256 11.4788C9.66663 10.6658 9.78727 9.95133 9.87934 9.44041C9.92535 9.18512 9.96414 8.9811 9.99131 8.8415C10.0049 8.77171 10.0156 8.71806 10.0228 8.68221L10.0309 8.64197L10.0329 8.63224L10.0334 8.62963Z" fill="#850E0C"/>
<path d="M14.6259 20.4185L13.0842 20.9323L12.9841 20.6312L13.7552 20.375C12.9841 20.6312 12.9842 20.6313 12.9841 20.6312L12.9831 20.6281L12.981 20.6216L12.9733 20.598C12.9667 20.5778 12.9572 20.5486 12.9454 20.5113C12.9218 20.4367 12.8883 20.3296 12.8485 20.1962C12.7687 19.93 12.6626 19.5577 12.5562 19.1317C12.3481 18.2984 12.1213 17.1909 12.1213 16.2681C12.1213 15.3454 12.3481 14.2379 12.5562 13.4046C12.6626 12.9786 12.7687 12.6063 12.8485 12.3401C12.8883 12.2067 12.9218 12.0996 12.9454 12.0249C12.9572 11.9877 12.9667 11.9585 12.9733 11.9383L12.981 11.9147L12.9831 11.9081L12.9838 11.9061C12.9838 11.9061 12.9841 11.9051 13.7552 12.1613L12.9838 11.9061L13.2134 11.2151L14.4993 12.5009C14.4977 12.5059 14.496 12.5111 14.4943 12.5166C14.473 12.5835 14.4423 12.6821 14.4052 12.806C14.3309 13.0543 14.2318 13.402 14.1328 13.7983C13.9302 14.6095 13.7463 15.5554 13.7463 16.2681C13.7463 16.9809 13.9302 17.9268 14.1328 18.738C14.2318 19.1343 14.3309 19.482 14.4052 19.7303C14.4423 19.8542 14.473 19.9528 14.4943 20.0197C14.5049 20.0532 14.5131 20.0788 14.5186 20.0955L14.5246 20.114L14.526 20.1181L14.6259 20.4185Z" fill="#850E0C"/>
</g>
<defs>
<clipPath id="clip0_2018_38922">
<rect width="26" height="26" fill="white" transform="translate(0.5 0.5)"/>
</clipPath>
</defs>
</svg>
