<svg width="27" height="27" viewBox="0 0 27 27" fill="none" xmlns="http://www.w3.org/2000/svg">
<g clip-path="url(#clip0_253_39960)">
<path d="M9.23746 5.4874C11.118 3.60688 12.0583 2.66663 13.2266 2.66663C14.395 2.66663 15.3353 3.60688 17.2158 5.4874L22.0028 10.2744C23.8833 12.1549 24.8236 13.0951 24.8236 14.2636C24.8236 15.432 23.8833 16.3722 22.0028 18.2528C20.1223 20.1332 19.182 21.0735 18.0137 21.0735C16.8452 21.0735 15.905 20.1332 14.0245 18.2528L9.23746 13.4657C7.35694 11.5853 6.41669 10.645 6.41669 9.47657C6.41669 8.30816 7.35694 7.36791 9.23746 5.4874Z" fill="#0047FF"/>
<g opacity="0.5">
<path d="M10.0401 14.2683L4.06132 20.247C3.69034 20.6181 3.50484 20.8035 3.39343 20.9965C3.09111 21.5201 3.09111 22.1653 3.39343 22.689C3.50484 22.8819 3.69033 23.0674 4.06128 23.4383C4.43227 23.8093 4.61779 23.9948 4.81076 24.1063C5.33441 24.4086 5.97956 24.4086 6.50322 24.1063C6.69618 23.9948 6.88167 23.8093 7.25265 23.4384L13.2314 17.4596L10.0401 14.2683Z" fill="#0047FF"/>
<path d="M21.2097 9.48134L21.6137 9.07742C21.9846 8.70644 22.1701 8.52095 22.2816 8.32798C22.5839 7.80433 22.5839 7.15916 22.2816 6.63551C22.1701 6.44255 21.9846 6.25706 21.6137 5.88609C21.2426 5.5151 21.0572 5.32961 20.8642 5.2182C20.3406 4.91587 19.6954 4.91587 19.1717 5.2182C18.9788 5.32961 18.7933 5.5151 18.4223 5.88609L18.0184 6.29001L21.2097 9.48134Z" fill="#0047FF"/>
</g>
</g>
<defs>
<clipPath id="clip0_253_39960">
<rect width="26" height="26" fill="white" transform="translate(0.5 0.5)"/>
</clipPath>
</defs>
</svg>
