<svg width="220" height="220" viewBox="0 0 220 220" fill="none" xmlns="http://www.w3.org/2000/svg">
<path opacity="0.5" d="M201.667 110C201.667 160.626 160.626 201.667 110 201.667C59.3739 201.667 18.3333 160.626 18.3333 110C18.3333 59.3739 59.3739 18.3334 110 18.3334C160.626 18.3334 201.667 59.3739 201.667 110Z" fill="#583DCC"/>
<path d="M146.944 82.222C149.629 84.9068 149.629 89.2599 146.944 91.9444L101.111 137.778C98.4262 140.463 94.0738 140.463 91.3886 137.778L73.0553 119.444C70.3705 116.76 70.3705 112.407 73.0553 109.722C75.7401 107.037 80.0932 107.037 82.778 109.722L96.25 123.194L116.736 102.708L137.222 82.222C139.907 79.5372 144.259 79.5372 146.944 82.222Z" fill="#583DCC"/>
</svg>
