<svg width="220" height="220" viewBox="0 0 220 220" fill="none" xmlns="http://www.w3.org/2000/svg">
<path opacity="0.5" d="M201.667 110C201.667 160.626 160.626 201.667 110 201.667C59.3739 201.667 18.3334 160.626 18.3334 110C18.3334 59.3739 59.3739 18.3333 110 18.3333C160.626 18.3333 201.667 59.3739 201.667 110Z" fill="#0047FF"/>
<path d="M146.944 82.222C149.629 84.9068 149.629 89.2599 146.944 91.9444L101.111 137.778C98.4262 140.463 94.0739 140.463 91.3887 137.778L73.0554 119.444C70.3705 116.76 70.3705 112.407 73.0554 109.722C75.7402 107.037 80.0933 107.037 82.7781 109.722L96.2501 123.194L116.736 102.708L137.222 82.222C139.907 79.5372 144.26 79.5372 146.944 82.222Z" fill="#0047FF"/>
</svg>
