<svg width="40" height="40" viewBox="0 0 40 40" fill="none" xmlns="http://www.w3.org/2000/svg">
<path opacity="0.5" d="M36.6666 20C36.6666 29.2047 29.2046 36.6667 20 36.6667C10.7952 36.6667 3.33331 29.2047 3.33331 20C3.33331 10.7953 10.7952 3.33337 20 3.33337C29.2046 3.33337 36.6666 10.7953 36.6666 20Z" fill="#51E84F"/>
<path d="M26.7172 14.9495C27.2053 15.4376 27.2053 16.2291 26.7172 16.7172L18.3838 25.0505C17.8957 25.5387 17.1043 25.5387 16.6161 25.0505L13.2828 21.7172C12.7946 21.229 12.7946 20.4377 13.2828 19.9495C13.7709 19.4614 14.5624 19.4614 15.0506 19.9495L17.5 22.3989L21.2247 18.6742L24.9495 14.9495C25.4377 14.4613 26.229 14.4613 26.7172 14.9495Z" fill="#51E84F"/>
</svg>
