<svg width="220" height="220" viewBox="0 0 220 220" fill="none" xmlns="http://www.w3.org/2000/svg">
<path opacity="0.5" d="M201.667 110C201.667 160.626 160.626 201.667 110 201.667C59.3739 201.667 18.3333 160.626 18.3333 110C18.3333 59.3739 59.3739 18.3333 110 18.3333C160.626 18.3333 201.667 59.3739 201.667 110Z" fill="#850E0C"/>
<path d="M82.222 82.222C84.9068 79.5372 89.2599 79.5372 91.9444 82.222L110 100.278L128.056 82.2222C130.741 79.5374 135.093 79.5374 137.778 82.2222C140.463 84.907 140.463 89.2601 137.778 91.9454L119.723 110L137.778 128.055C140.463 130.74 140.463 135.093 137.778 137.778C135.093 140.463 130.74 140.463 128.055 137.778L110 119.723L91.9454 137.778C89.2601 140.463 84.907 140.463 82.2222 137.778C79.5374 135.093 79.5374 130.741 82.2222 128.056L100.278 110L82.222 91.9444C79.5372 89.2599 79.5372 84.9068 82.222 82.222Z" fill="#850E0C"/>
</svg>
