<svg width="96" height="100" viewBox="0 0 96 100" fill="none" xmlns="http://www.w3.org/2000/svg">
<path d="M46.6803 51.3158L7.09698 31.579" stroke="#583DCC" stroke-width="2.61429"/>
<path d="M46.6805 72.3685L20.2916 59.2106" stroke="#583DCC" stroke-width="2.61429"/>
<path d="M46.6805 93.4211L20.2916 80.2632" stroke="#583DCC" stroke-width="2.61429"/>
<path d="M46.6808 93.421L88.4999 72.8286" stroke="#583DCC" stroke-width="2.61429"/>
<path d="M46.6808 72.3683L88.4999 51.8285" stroke="#583DCC" stroke-width="2.61429"/>
<path d="M46.6808 51.3157L88.4999 30.8285" stroke="#583DCC" stroke-width="2.61429"/>
<path d="M44.0416 32.8947L70.4305 19.7368" stroke="#583DCC" stroke-width="2.61429"/>
<path d="M25.5693 22.3683L51.9582 9.21045" stroke="#583DCC" stroke-width="2.61429"/>
<path d="M4.45844 31.579V72.3684" stroke="#583DCC" stroke-width="2.61429"/>
<path d="M54.5 47.3286L48.4334 50.0127C47.0467 50.6262 45.462 50.6075 44.0902 49.9614L38.5 47.3286" stroke="#705ACB" stroke-width="5.22857" stroke-linecap="round"/>
<path d="M54.5001 68.3286L48.4335 71.0127C47.0468 71.6262 45.4621 71.6075 44.0902 70.9614L38.5001 68.3286" stroke="#705ACB" stroke-width="5.22857" stroke-linecap="round"/>
<path d="M54.5001 89.3286L48.4335 92.0127C47.0468 92.6262 45.4621 92.6075 44.0902 91.9614L38.5001 89.3286" stroke="#705ACB" stroke-width="5.22857" stroke-linecap="round"/>
<path d="M4.42151 65.3572V71.8929" stroke="#705ACB" stroke-width="5.22857" stroke-linecap="round"/>
<path d="M4.42151 37.9072V34.2943C4.42151 32.3509 6.4667 31.0869 8.20494 31.956L12.2644 33.9858" stroke="#705ACB" stroke-width="5.22857" stroke-linecap="round"/>
<path d="M87.5001 30.8286L82.0001 33.8286" stroke="#705ACB" stroke-width="5.22857" stroke-linecap="round"/>
<path d="M87.5001 72.8286L82.0001 75.8286" stroke="#705ACB" stroke-width="5.22857" stroke-linecap="round"/>
<path d="M87.5001 51.8286L82.0001 54.8286" stroke="#705ACB" stroke-width="5.22857" stroke-linecap="round"/>
<path d="M43.6358 32.6786L48.8644 30.0643" stroke="#705ACB" stroke-width="5.22857" stroke-linecap="round"/>
<path d="M25.3358 22.2215L30.5643 19.6072" stroke="#705ACB" stroke-width="5.22857" stroke-linecap="round"/>
<path d="M64.55 22.2215L69.7786 19.6072" stroke="#705ACB" stroke-width="5.22857" stroke-linecap="round"/>
<path d="M46.2501 11.7643L51.4786 9.15002" stroke="#705ACB" stroke-width="5.22857" stroke-linecap="round"/>
<path d="M20.1072 58.8214L25.3357 61.4357" stroke="#705ACB" stroke-width="5.22857" stroke-linecap="round"/>
<path d="M20.1072 79.7357L25.3357 82.35" stroke="#705ACB" stroke-width="5.22857" stroke-linecap="round"/>
</svg>
