<svg width="34" height="34" viewBox="0 0 34 34" fill="none" xmlns="http://www.w3.org/2000/svg">
<path fill-rule="evenodd" clip-rule="evenodd" d="M19.5543 7.55559C19.5543 4.94758 21.6781 2.83337 24.298 2.83337C26.9178 2.83337 29.0417 4.94758 29.0417 7.55559C29.0417 10.1636 26.9178 12.2778 24.298 12.2778C22.9751 12.2778 21.7796 11.7385 20.9201 10.8708L14.3532 15.3418C14.4139 15.6436 14.4458 15.9552 14.4458 16.2736C14.4458 16.904 14.3211 17.5066 14.0953 18.0574L21.2958 22.7883C22.113 22.1228 23.1587 21.7222 24.298 21.7222C26.9178 21.7222 29.0417 23.8364 29.0417 26.4445C29.0417 29.0525 26.9178 31.1667 24.298 31.1667C21.6781 31.1667 19.5543 29.0525 19.5543 26.4445C19.5543 25.7614 19.7005 25.1112 19.9632 24.5241L12.8209 19.8315C11.9878 20.5556 10.8964 20.9957 9.70202 20.9957C7.08216 20.9957 4.95834 18.8815 4.95834 16.2736C4.95834 13.6655 7.08216 11.5513 9.70202 11.5513C11.2085 11.5513 12.5496 12.2503 13.4179 13.3382L19.7822 9.00497C19.6342 8.54763 19.5543 8.06031 19.5543 7.55559Z" fill="#BCBCBC"/>
</svg>
