<svg width="302" height="152" viewBox="0 0 302 152" fill="none" xmlns="http://www.w3.org/2000/svg">
<g clip-path="url(#clip0_291_44023)">
<path fill-rule="evenodd" clip-rule="evenodd" d="M234.05 0.5C234.05 10.9244 225.599 19.375 215.175 19.375C204.751 19.375 196.3 10.9244 196.3 0.5H0V151.5H196.3C196.3 141.076 204.751 132.625 215.175 132.625C225.599 132.625 234.05 141.076 234.05 151.5H302V0.5H234.05Z" fill="url(#paint0_linear_291_44023)"/>
<g opacity="0.1">
<path d="M113.114 113.378L65.302 43.3367" stroke="#45545F" stroke-width="14.5715"/>
<path d="M93.4345 148.62L61.5599 101.926" stroke="#45545F" stroke-width="14.5715"/>
<path d="M73.7548 183.862L41.8801 137.167" stroke="#45545F" stroke-width="14.5715"/>
<path d="M73.7555 183.862L163.009 188.482" stroke="#45545F" stroke-width="14.5715"/>
<path d="M93.4353 148.62L182.64 153.329" stroke="#45545F" stroke-width="14.5715"/>
<path d="M113.115 113.378L202.271 118.175" stroke="#45545F" stroke-width="14.5715"/>
<path d="M125.917 80.0747L182.391 82.7167" stroke="#45545F" stroke-width="14.5715"/>
<path d="M104.834 45.1861L161.309 47.8281" stroke="#45545F" stroke-width="14.5715"/>
<path d="M60.8851 40.8704L22.7555 109.151" stroke="#45545F" stroke-width="14.5715"/>
<path d="M129.931 114.013L117.267 112.835C114.372 112.566 111.737 111.053 110.044 108.689L103.147 99.0564" stroke="#45545F" stroke-width="18.2144" stroke-linecap="round"/>
<path d="M110.301 149.167L97.6364 147.989C94.7416 147.72 92.1062 146.207 90.4138 143.843L83.517 134.21" stroke="#45545F" stroke-width="18.2144" stroke-linecap="round"/>
<path d="M29.2478 97.3796L23.1383 108.32" stroke="#45545F" stroke-width="18.2144" stroke-linecap="round"/>
<path d="M54.9077 51.429L58.285 45.3811C60.1017 42.1279 64.7068 41.9238 66.8042 45.0036L71.7022 52.196" stroke="#45545F" stroke-width="18.2144" stroke-linecap="round"/>
<path d="M200.597 117.241L188.586 117.121" stroke="#45545F" stroke-width="18.2144" stroke-linecap="round"/>
<path d="M180.966 152.394L168.955 152.275" stroke="#45545F" stroke-width="18.2144" stroke-linecap="round"/>
<path d="M125.439 79.3337L136.636 79.845" stroke="#45545F" stroke-width="18.2144" stroke-linecap="round"/>
<path d="M104.581 44.7221L115.777 45.2334" stroke="#45545F" stroke-width="18.2144" stroke-linecap="round"/>
<path d="M170.225 81.3791L181.421 81.8904" stroke="#45545F" stroke-width="18.2144" stroke-linecap="round"/>
<path d="M149.366 46.7671L160.563 47.2785" stroke="#45545F" stroke-width="18.2144" stroke-linecap="round"/>
<path d="M61.6147 101.102L67.9235 110.366" stroke="#45545F" stroke-width="18.2144" stroke-linecap="round"/>
<path d="M42.0643 136.112L48.3731 145.376" stroke="#45545F" stroke-width="18.2144" stroke-linecap="round"/>
</g>
<path d="M81.7699 121.234V118.879L82.3588 119.226C82.2984 119.226 82.233 119.231 82.1625 119.241C82.1021 119.241 82.0417 119.241 81.9813 119.241C81.5384 119.241 81.025 119.191 80.4411 119.09C79.8572 118.979 79.2935 118.818 78.7499 118.607L78.7801 115.738H80.0787L80.3354 117.263C80.6173 117.394 80.9092 117.49 81.2112 117.55C81.5233 117.61 81.8253 117.641 82.1172 117.641C82.4897 117.641 82.8219 117.59 83.1138 117.49C83.4057 117.389 83.6423 117.238 83.8235 117.037C84.0047 116.825 84.0953 116.568 84.0953 116.266C84.0953 115.944 83.9997 115.688 83.8084 115.496C83.6171 115.295 83.3604 115.134 83.0383 115.013C82.7262 114.892 82.3789 114.782 81.9964 114.681C81.6139 114.57 81.2313 114.449 80.8488 114.319C80.4763 114.188 80.129 114.022 79.8069 113.82C79.4948 113.609 79.2432 113.337 79.0519 113.005C78.8606 112.663 78.765 112.235 78.765 111.721C78.765 111.047 78.9261 110.488 79.2482 110.045C79.5804 109.592 80.0284 109.25 80.5921 109.018C81.1558 108.787 81.785 108.666 82.4796 108.656L81.7699 109.064V106.723H83.2346V109.049L82.6457 108.656H82.7967C83.0786 108.656 83.4057 108.691 83.7782 108.762C84.1607 108.822 84.5332 108.903 84.8956 109.003C85.2681 109.104 85.5902 109.21 85.862 109.32L85.711 111.948H84.4275L84.1406 110.498C83.9191 110.418 83.6826 110.357 83.4309 110.317C83.1893 110.267 82.9427 110.242 82.691 110.242C82.3689 110.242 82.0669 110.287 81.785 110.377C81.5031 110.458 81.2766 110.589 81.1055 110.77C80.9344 110.941 80.8488 111.178 80.8488 111.48C80.8488 111.772 80.9444 112.013 81.1357 112.205C81.337 112.386 81.5937 112.542 81.9058 112.673C82.2279 112.793 82.5803 112.909 82.9628 113.02C83.3453 113.121 83.7279 113.241 84.1104 113.382C84.4929 113.513 84.8402 113.689 85.1523 113.911C85.4744 114.122 85.7311 114.399 85.9224 114.741C86.1137 115.074 86.2093 115.496 86.2093 116.01C86.2093 116.684 86.0432 117.253 85.711 117.716C85.3889 118.169 84.9459 118.521 84.3822 118.773C83.8285 119.025 83.2094 119.176 82.5249 119.226L83.2346 118.773V121.234H81.7699ZM94.1021 108.701L98.1036 108.626V109.713L96.6842 110.181L97.0013 109.728V119.256H94.5098L89.9496 110.906H90.2516V118.199L89.9345 117.746L91.369 118.169V119.256H87.3524V118.169L88.7869 117.746L88.4698 118.199V109.743L88.6812 110.136L87.3524 109.789V108.701L91.0368 108.626L95.5215 116.81H95.2044V109.728L95.5366 110.166L94.1021 109.789V108.701ZM102.374 119.271L99.1732 109.789L99.6715 110.166L98.2974 109.789V108.701L102.767 108.626V109.713L101.287 110.136L101.544 109.607L103.854 117.384H103.552L106.074 109.728L106.24 110.151L104.866 109.789V108.701L108.898 108.626V109.713L107.539 110.121L108.037 109.743L104.67 119.271H102.374ZM109.25 119.256V118.169L110.64 117.776L110.368 118.199V109.743L110.745 110.196L109.25 109.789V108.701L112.618 108.626H114.082C115.29 108.626 116.201 108.877 116.815 109.381C117.43 109.884 117.737 110.609 117.737 111.555C117.737 112.401 117.475 113.1 116.951 113.654C116.438 114.208 115.628 114.545 114.52 114.666L114.535 114.424C114.928 114.434 115.25 114.495 115.502 114.605C115.753 114.716 115.96 114.872 116.121 115.074C116.292 115.265 116.448 115.496 116.589 115.768L117.797 118.094L117.178 117.716L118.567 118.169V119.256H116.091L114.732 116.342C114.55 115.959 114.394 115.667 114.264 115.466C114.133 115.255 113.972 115.114 113.78 115.043C113.589 114.963 113.312 114.928 112.95 114.938H112.165L112.527 114.636V118.199L112.24 117.761L113.765 118.169V119.256H109.25ZM112.527 113.971L112.165 113.443H113.418C114.123 113.443 114.651 113.297 115.003 113.005C115.356 112.713 115.532 112.28 115.532 111.706C115.532 111.223 115.391 110.846 115.109 110.574C114.827 110.302 114.394 110.166 113.811 110.166H112.165L112.527 109.834V113.971ZM131.417 109.713L130.013 110.196L130.315 109.638V118.199L130.013 117.761L131.417 118.169V119.256H127.204V118.169L128.669 117.746L128.322 118.199V110.936L128.639 110.951L125.875 116.493L124.516 116.568L121.859 110.921H122.176V118.199L121.934 117.792L123.293 118.169V119.256H119.322V118.169L120.726 117.761L120.439 118.199V109.638L120.726 110.166L119.322 109.789V108.701L123.082 108.626L125.573 114.409H125.317L127.929 108.701L131.417 108.626V109.713Z" fill="white"/>
<path d="M47.1721 84.3833C47.1721 88.0526 46.5153 90.68 45.2016 92.2655C43.8879 93.8057 41.8947 94.5758 39.222 94.5758C37.4553 94.5758 36.0283 94.304 34.9411 93.7604C33.8539 93.2168 33.0159 92.2202 32.427 90.7706C31.8834 89.321 31.5889 87.3731 31.5436 84.9269L31.4077 59.5816C29.2333 59.5816 27.444 59.1965 26.0397 58.4264C24.6354 57.611 23.9332 56.2747 23.9332 54.4174C23.9332 52.9225 24.5674 51.6994 25.8358 50.7481C27.1495 49.7515 28.9615 49.2532 31.2718 49.2532C32.1778 49.2532 33.4462 49.2758 35.077 49.3211C36.7531 49.3211 37.9309 49.3211 38.6104 49.3211C41.9626 49.3211 44.205 49.8874 45.3375 51.0199C46.5153 52.1071 47.1042 54.0323 47.1042 56.7956L47.1721 84.3833ZM73.7809 95.0515C70.8817 95.0515 68.2543 94.6664 65.8987 93.8963C63.5884 93.0809 61.482 91.8125 59.5794 90.0911C57.7221 88.3697 56.2725 86.0141 55.2306 83.0243C54.234 80.0345 53.7357 76.5238 53.7357 72.4921C53.7357 68.1433 54.234 64.4287 55.2306 61.3483C56.2272 58.2679 57.6541 55.867 59.5114 54.1456C61.3687 52.4242 63.4525 51.1785 65.7628 50.4083C68.0731 49.6382 70.7458 49.2532 73.7809 49.2532C76.7254 49.2532 79.3755 49.7062 81.7311 50.6122C84.0867 51.4729 86.1478 52.8092 87.9145 54.6212C89.7265 56.4332 91.1082 58.8568 92.0595 61.8919C93.0561 64.8817 93.5544 68.4151 93.5544 72.4921C93.5544 76.5691 93.0561 80.1025 92.0595 83.0923C91.0629 86.0368 89.6359 88.3697 87.7786 90.0911C85.9666 91.8125 83.8828 93.0809 81.5272 93.8963C79.2169 94.6664 76.6348 95.0515 73.7809 95.0515ZM77.4502 81.3935C78.2656 78.902 78.6733 75.9349 78.6733 72.4921C78.6733 69.004 78.243 65.9236 77.3823 63.2509C76.5216 60.5782 75.3211 59.2418 73.7809 59.2418C72.6937 59.2418 71.7424 59.9213 70.927 61.2803C70.1569 62.6393 69.5907 64.3154 69.2283 66.3086C68.8659 68.2565 68.6847 70.3177 68.6847 72.4921C68.6847 75.8443 69.115 78.7888 69.9757 81.3256C70.8817 83.8624 72.1501 85.1308 73.7809 85.1308C75.4117 85.1308 76.6348 83.885 77.4502 81.3935ZM118.639 95.0515C115.739 95.0515 113.112 94.6664 110.756 93.8963C108.446 93.0809 106.34 91.8125 104.437 90.0911C102.58 88.3697 101.13 86.0141 100.088 83.0243C99.0916 80.0345 98.5933 76.5238 98.5933 72.4921C98.5933 68.1433 99.0916 64.4287 100.088 61.3483C101.085 58.2679 102.512 55.867 104.369 54.1456C106.226 52.4242 108.31 51.1785 110.62 50.4083C112.931 49.6382 115.603 49.2532 118.639 49.2532C121.583 49.2532 124.233 49.7062 126.589 50.6122C128.944 51.4729 131.005 52.8092 132.772 54.6212C134.584 56.4332 135.966 58.8568 136.917 61.8919C137.914 64.8817 138.412 68.4151 138.412 72.4921C138.412 76.5691 137.914 80.1025 136.917 83.0923C135.92 86.0368 134.494 88.3697 132.636 90.0911C130.824 91.8125 128.74 93.0809 126.385 93.8963C124.075 94.6664 121.492 95.0515 118.639 95.0515ZM122.308 81.3935C123.123 78.902 123.531 75.9349 123.531 72.4921C123.531 69.004 123.101 65.9236 122.24 63.2509C121.379 60.5782 120.179 59.2418 118.639 59.2418C117.551 59.2418 116.6 59.9213 115.785 61.2803C115.015 62.6393 114.448 64.3154 114.086 66.3086C113.723 68.2565 113.542 70.3177 113.542 72.4921C113.542 75.8443 113.973 78.7888 114.833 81.3256C115.739 83.8624 117.008 85.1308 118.639 85.1308C120.269 85.1308 121.492 83.885 122.308 81.3935ZM163.496 95.0515C160.597 95.0515 157.97 94.6664 155.614 93.8963C153.304 93.0809 151.197 91.8125 149.295 90.0911C147.437 88.3697 145.988 86.0141 144.946 83.0243C143.949 80.0345 143.451 76.5238 143.451 72.4921C143.451 68.1433 143.949 64.4287 144.946 61.3483C145.942 58.2679 147.369 55.867 149.227 54.1456C151.084 52.4242 153.168 51.1785 155.478 50.4083C157.788 49.6382 160.461 49.2532 163.496 49.2532C166.441 49.2532 169.091 49.7062 171.446 50.6122C173.802 51.4729 175.863 52.8092 177.63 54.6212C179.442 56.4332 180.823 58.8568 181.775 61.8919C182.771 64.8817 183.27 68.4151 183.27 72.4921C183.27 76.5691 182.771 80.1025 181.775 83.0923C180.778 86.0368 179.351 88.3697 177.494 90.0911C175.682 91.8125 173.598 93.0809 171.242 93.8963C168.932 94.6664 166.35 95.0515 163.496 95.0515ZM167.165 81.3935C167.981 78.902 168.389 75.9349 168.389 72.4921C168.389 69.004 167.958 65.9236 167.097 63.2509C166.237 60.5782 165.036 59.2418 163.496 59.2418C162.409 59.2418 161.458 59.9213 160.642 61.2803C159.872 62.6393 159.306 64.3154 158.943 66.3086C158.581 68.2565 158.4 70.3177 158.4 72.4921C158.4 75.8443 158.83 78.7888 159.691 81.3256C160.597 83.8624 161.865 85.1308 163.496 85.1308C165.127 85.1308 166.35 83.885 167.165 81.3935Z" fill="white"/>
<path d="M22.0065 23.4844L14.4688 19.726" stroke="#45545F" stroke-width="0.497829"/>
<path d="M22.0065 27.4934L16.9813 24.9878" stroke="#45545F" stroke-width="0.497829"/>
<path d="M22.0065 31.5023L16.9813 28.9967" stroke="#45545F" stroke-width="0.497829"/>
<path d="M22.0065 31.5023L29.97 27.5809" stroke="#45545F" stroke-width="0.497829"/>
<path d="M22.0065 27.4934L29.97 23.582" stroke="#45545F" stroke-width="0.497829"/>
<path d="M22.0065 23.4843L29.97 19.583" stroke="#45545F" stroke-width="0.497829"/>
<path d="M21.504 19.9766L26.5292 17.4709" stroke="#45545F" stroke-width="0.497829"/>
<path d="M17.9864 17.972L23.0115 15.4664" stroke="#45545F" stroke-width="0.497829"/>
<path d="M13.9663 19.726V27.4933" stroke="#45545F" stroke-width="0.497829"/>
<path d="M23.4956 22.7251L22.3403 23.2362C22.0763 23.353 21.7745 23.3495 21.5132 23.2264L20.4487 22.7251" stroke="#4F5458" stroke-width="0.995658" stroke-linecap="round"/>
<path d="M23.4956 26.7241L22.3403 27.2352C22.0763 27.3521 21.7745 27.3485 21.5132 27.2255L20.4487 26.7241" stroke="#4F5458" stroke-width="0.995658" stroke-linecap="round"/>
<path d="M23.4956 30.723L22.3403 31.2341C22.0763 31.351 21.7745 31.3474 21.5132 31.2244L20.4487 30.723" stroke="#4F5458" stroke-width="0.995658" stroke-linecap="round"/>
<path d="M13.9593 26.1582V27.4028" stroke="#4F5458" stroke-width="0.995658" stroke-linecap="round"/>
<path d="M13.9593 20.931V20.243C13.9593 19.8729 14.3487 19.6322 14.6798 19.7977L15.4528 20.1842" stroke="#4F5458" stroke-width="0.995658" stroke-linecap="round"/>
<path d="M29.7797 19.583L28.7324 20.1543" stroke="#4F5458" stroke-width="0.995658" stroke-linecap="round"/>
<path d="M29.7797 27.5809L28.7324 28.1522" stroke="#4F5458" stroke-width="0.995658" stroke-linecap="round"/>
<path d="M29.7797 23.582L28.7324 24.1533" stroke="#4F5458" stroke-width="0.995658" stroke-linecap="round"/>
<path d="M21.4268 19.9353L22.4224 19.4375" stroke="#4F5458" stroke-width="0.995658" stroke-linecap="round"/>
<path d="M17.9419 17.9441L18.9376 17.4463" stroke="#4F5458" stroke-width="0.995658" stroke-linecap="round"/>
<path d="M25.4094 17.9441L26.405 17.4463" stroke="#4F5458" stroke-width="0.995658" stroke-linecap="round"/>
<path d="M21.9246 15.9527L22.9202 15.4548" stroke="#4F5458" stroke-width="0.995658" stroke-linecap="round"/>
<path d="M16.9462 24.9138L17.9419 25.4116" stroke="#4F5458" stroke-width="0.995658" stroke-linecap="round"/>
<path d="M16.9462 28.8962L17.9419 29.3941" stroke="#4F5458" stroke-width="0.995658" stroke-linecap="round"/>
<path d="M38.4569 20.6555C38.5727 20.6555 38.6653 20.696 38.7348 20.777C38.8101 20.8523 38.8477 20.9478 38.8477 21.0636V26.291C38.8477 26.4184 38.8043 26.5255 38.7174 26.6123C38.6364 26.6934 38.5322 26.7339 38.4048 26.7339C38.3469 26.7339 38.2833 26.7223 38.2138 26.6992C38.1501 26.676 38.1009 26.6442 38.0662 26.6036L34.4973 21.9754L34.697 21.8625V26.3344C34.697 26.4444 34.6594 26.54 34.5841 26.621C34.5089 26.6963 34.4133 26.7339 34.2976 26.7339C34.176 26.7339 34.0776 26.6963 34.0023 26.621C33.9329 26.54 33.8981 26.4444 33.8981 26.3344V21.0983C33.8981 20.9652 33.9415 20.8581 34.0284 20.777C34.1152 20.696 34.2194 20.6555 34.341 20.6555C34.4047 20.6555 34.4712 20.6699 34.5407 20.6989C34.616 20.722 34.6709 20.7597 34.7057 20.8118L38.1877 25.3445L38.0575 25.4661V21.0636C38.0575 20.9478 38.0951 20.8523 38.1704 20.777C38.2456 20.696 38.3412 20.6555 38.4569 20.6555ZM42.0467 26.291C42.0409 26.4184 41.9917 26.5255 41.899 26.6123C41.8122 26.6934 41.708 26.7339 41.5864 26.7339C41.4533 26.7339 41.3433 26.6934 41.2565 26.6123C41.1754 26.5255 41.1349 26.4184 41.1349 26.291V21.0983C41.1349 20.971 41.1783 20.8668 41.2651 20.7857C41.352 20.6989 41.4649 20.6555 41.6038 20.6555C41.7196 20.6555 41.8209 20.6989 41.9077 20.7857C42.0003 20.8668 42.0467 20.971 42.0467 21.0983V26.291ZM48.7468 20.6381C48.8684 20.6381 48.9726 20.6786 49.0594 20.7597C49.1463 20.8407 49.1897 20.9391 49.1897 21.0549C49.1897 21.1186 49.1752 21.1852 49.1463 21.2546L46.9493 26.4473C46.903 26.5457 46.8394 26.6181 46.7583 26.6644C46.683 26.7107 46.6049 26.7339 46.5239 26.7339C46.4428 26.7281 46.3647 26.702 46.2894 26.6557C46.2199 26.6094 46.1649 26.5429 46.1244 26.456L43.9275 21.2546C43.9159 21.2257 43.9072 21.1967 43.9015 21.1678C43.8957 21.1331 43.8928 21.0983 43.8928 21.0636C43.8928 20.9304 43.942 20.8262 44.0404 20.751C44.1388 20.6757 44.2343 20.6381 44.3269 20.6381C44.5122 20.6381 44.6482 20.7336 44.7351 20.9247L46.7236 25.6398H46.4718L48.3474 20.916C48.4284 20.7307 48.5616 20.6381 48.7468 20.6381ZM52.9118 21.7843L50.958 26.4734C50.9233 26.566 50.8712 26.6384 50.8017 26.6905C50.7323 26.7426 50.6541 26.7686 50.5673 26.7686C50.4399 26.7686 50.3444 26.7339 50.2807 26.6644C50.2171 26.5892 50.1823 26.4965 50.1765 26.3865C50.1765 26.346 50.1852 26.2997 50.2026 26.2476L52.4082 20.916C52.4487 20.8176 52.5066 20.7423 52.5818 20.6902C52.6629 20.6381 52.7497 20.615 52.8423 20.6207C52.9292 20.6207 53.0102 20.6468 53.0855 20.6989C53.1607 20.751 53.2157 20.8234 53.2505 20.916L55.43 26.1695C55.4532 26.2274 55.4647 26.2852 55.4647 26.3431C55.4647 26.4705 55.4213 26.5747 55.3345 26.6557C55.2535 26.731 55.1608 26.7686 55.0566 26.7686C54.9698 26.7686 54.8887 26.7426 54.8135 26.6905C54.744 26.6326 54.6919 26.5602 54.6572 26.4734L52.686 21.8104L52.9118 21.7843ZM51.3054 25.2403L51.6961 24.4067H54.1535L54.3012 25.2403H51.3054ZM57.7016 26.7339C57.5627 26.7339 57.4411 26.6934 57.3369 26.6123C57.2327 26.5255 57.1806 26.4184 57.1806 26.291V21.0983C57.1806 20.971 57.224 20.8668 57.3109 20.7857C57.3977 20.6989 57.5019 20.6555 57.6235 20.6555H60.0722C60.3848 20.6555 60.6714 20.7336 60.9319 20.8899C61.1924 21.0404 61.4008 21.2517 61.5571 21.5238C61.7192 21.7901 61.8002 22.0969 61.8002 22.4443C61.8002 22.6758 61.7539 22.8987 61.6613 23.1129C61.5686 23.3213 61.4442 23.5065 61.2879 23.6686C61.1316 23.8307 60.955 23.9523 60.7582 24.0333L60.6627 23.8683C60.8421 23.932 60.9984 24.0247 61.1316 24.1462C61.2647 24.262 61.3689 24.4009 61.4442 24.563C61.5252 24.7193 61.5686 24.8988 61.5744 25.1014C61.5918 25.2809 61.6063 25.4314 61.6179 25.5529C61.6352 25.6687 61.6584 25.7642 61.6873 25.8395C61.7163 25.9147 61.7684 25.9726 61.8436 26.0132C61.9478 26.0711 62.0115 26.1579 62.0347 26.2737C62.0636 26.3894 62.0404 26.4936 61.9652 26.5863C61.9131 26.6557 61.8465 26.702 61.7655 26.7252C61.6902 26.7426 61.6121 26.7455 61.531 26.7339C61.45 26.7165 61.3805 26.6934 61.3226 26.6644C61.23 26.6065 61.1345 26.5255 61.0361 26.4213C60.9434 26.3113 60.8682 26.1608 60.8103 25.9697C60.7524 25.7787 60.7235 25.5269 60.7235 25.2143C60.7235 25.0696 60.7003 24.9451 60.654 24.8409C60.6077 24.7367 60.544 24.6528 60.463 24.5891C60.3819 24.5196 60.2864 24.4704 60.1764 24.4415C60.0664 24.4067 59.9448 24.3894 59.8117 24.3894H57.9708L58.0924 24.2157V26.291C58.0924 26.4184 58.0576 26.5255 57.9882 26.6123C57.9187 26.6934 57.8232 26.7339 57.7016 26.7339ZM57.9795 23.6339H60.0548C60.188 23.6281 60.3153 23.576 60.4369 23.4776C60.5643 23.3734 60.6656 23.2345 60.7408 23.0608C60.8219 22.8871 60.8624 22.6903 60.8624 22.4703C60.8624 22.1924 60.7785 21.9609 60.6106 21.7756C60.4485 21.5846 60.2546 21.4891 60.0288 21.4891H57.9969L58.0924 21.2633V23.8162L57.9795 23.6339ZM64.8712 26.291C64.8654 26.4184 64.8162 26.5255 64.7236 26.6123C64.6368 26.6934 64.5326 26.7339 64.411 26.7339C64.2779 26.7339 64.1679 26.6934 64.081 26.6123C64 26.5255 63.9595 26.4184 63.9595 26.291V21.0983C63.9595 20.971 64.0029 20.8668 64.0897 20.7857C64.1766 20.6989 64.2894 20.6555 64.4284 20.6555C64.5442 20.6555 64.6455 20.6989 64.7323 20.7857C64.8249 20.8668 64.8712 20.971 64.8712 21.0983V26.291ZM71.4585 20.6468C71.5859 20.6468 71.6872 20.6902 71.7624 20.777C71.8377 20.8581 71.8753 20.9623 71.8753 21.0896V24.3807C71.8753 24.8438 71.774 25.2577 71.5714 25.6224C71.3688 25.9871 71.0909 26.2737 70.7378 26.4821C70.3847 26.6847 69.9765 26.786 69.5134 26.786C69.0561 26.786 68.648 26.6847 68.289 26.4821C67.9359 26.2737 67.6552 25.9871 67.4468 25.6224C67.2441 25.2577 67.1428 24.8438 67.1428 24.3807V21.0896C67.1428 20.9623 67.1862 20.8581 67.2731 20.777C67.3599 20.6902 67.4728 20.6468 67.6117 20.6468C67.7217 20.6468 67.8201 20.6902 67.907 20.777C67.9996 20.8581 68.0459 20.9623 68.0459 21.0896V24.3807C68.0459 24.6875 68.1125 24.9567 68.2456 25.1882C68.3846 25.414 68.5669 25.5935 68.7927 25.7266C69.0185 25.854 69.2587 25.9176 69.5134 25.9176C69.7913 25.9176 70.046 25.854 70.2776 25.7266C70.5091 25.5935 70.6944 25.414 70.8333 25.1882C70.978 24.9567 71.0504 24.6875 71.0504 24.3807V21.0896C71.0504 20.9623 71.0851 20.8581 71.1546 20.777C71.2298 20.6902 71.3311 20.6468 71.4585 20.6468ZM74.6107 20.6468C74.6801 20.6468 74.7525 20.6642 74.8277 20.6989C74.903 20.7336 74.9609 20.7828 75.0014 20.8465L77.207 24.207L76.8336 24.1896L79.0826 20.8465C79.1753 20.7134 79.2939 20.6468 79.4387 20.6468C79.5544 20.6468 79.6557 20.6902 79.7426 20.777C79.8352 20.8581 79.8815 20.9623 79.8815 21.0896V26.291C79.8815 26.4184 79.841 26.5255 79.7599 26.6123C79.6789 26.6934 79.5718 26.7339 79.4387 26.7339C79.2997 26.7339 79.1868 26.6934 79.1 26.6123C79.019 26.5255 78.9784 26.4184 78.9784 26.291V21.8885L79.2563 21.9493L77.3459 24.8583C77.3054 24.9104 77.2533 24.9567 77.1896 24.9972C77.126 25.0319 77.0594 25.0464 76.9899 25.0406C76.9262 25.0464 76.8597 25.0319 76.7902 24.9972C76.7265 24.9567 76.6744 24.9104 76.6339 24.8583L74.793 21.9927L75.0014 21.6454V26.291C75.0014 26.4184 74.9609 26.5255 74.8798 26.6123C74.8046 26.6934 74.7033 26.7339 74.5759 26.7339C74.4544 26.7339 74.3531 26.6934 74.272 26.6123C74.1968 26.5255 74.1591 26.4184 74.1591 26.291V21.0896C74.1591 20.9681 74.2025 20.8639 74.2894 20.777C74.382 20.6902 74.4891 20.6468 74.6107 20.6468Z" fill="#45545F"/>
<line x1="214.703" y1="132.625" x2="214.703" y2="19.375" stroke="#1E2831" stroke-width="0.94375" stroke-dasharray="3.77 3.77"/>
<path d="M227.569 106.716L225.511 100.591L225.719 100.742L224.804 100.572V100.166L227.295 100.119V100.525L226.266 100.723L226.361 100.525L228.097 106.027H227.975L229.834 100.572L229.909 100.732L228.899 100.572V100.166L231.259 100.119V100.525L230.343 100.723L230.542 100.572L228.38 106.716H227.569ZM234.754 106.282L234.631 106.112L235.5 106.282V106.697L234.178 106.753L234.065 105.847L234.131 105.876C233.854 106.178 233.555 106.407 233.235 106.565C232.914 106.716 232.602 106.791 232.3 106.791C231.935 106.791 231.627 106.675 231.375 106.442C231.124 106.209 230.998 105.857 230.998 105.385C230.998 105.014 231.076 104.731 231.234 104.536C231.391 104.334 231.608 104.193 231.885 104.111C232.162 104.029 232.483 103.988 232.848 103.988H234.084L233.999 104.083V103.177C233.999 102.831 233.908 102.585 233.725 102.441C233.543 102.29 233.291 102.214 232.97 102.214C232.8 102.214 232.618 102.233 232.423 102.271C232.234 102.302 232.033 102.356 231.819 102.431L231.932 102.308L231.838 103.167H231.338L231.262 101.997C231.621 101.877 231.957 101.789 232.272 101.733C232.586 101.67 232.876 101.638 233.14 101.638C233.643 101.638 234.037 101.752 234.32 101.978C234.609 102.198 234.754 102.554 234.754 103.045V106.282ZM231.762 105.319C231.762 105.627 231.835 105.854 231.979 105.998C232.13 106.143 232.319 106.216 232.546 106.216C232.766 106.216 233.008 106.149 233.272 106.017C233.543 105.879 233.804 105.693 234.056 105.461L233.999 105.659V104.394L234.084 104.479H232.961C232.514 104.479 232.203 104.548 232.027 104.687C231.85 104.819 231.762 105.03 231.762 105.319ZM237.405 106.225L237.32 106.121L238.141 106.3V106.706H235.904V106.3L236.725 106.121L236.65 106.225V99.9774L236.725 100.062L235.904 99.8924V99.4866L237.405 99.4205V106.225ZM240.219 106.225L240.134 106.121L240.955 106.3V106.706H238.727V106.3L239.548 106.121L239.464 106.225V102.242L239.539 102.327L238.727 102.157V101.752L240.219 101.695V106.225ZM239.784 100.676C239.64 100.676 239.52 100.629 239.426 100.534C239.331 100.44 239.284 100.311 239.284 100.147C239.284 99.9774 239.331 99.8484 239.426 99.7603C239.526 99.6659 239.649 99.6187 239.794 99.6187C239.945 99.6187 240.068 99.6628 240.162 99.7509C240.256 99.8389 240.303 99.9711 240.303 100.147C240.303 100.317 240.253 100.449 240.152 100.544C240.052 100.632 239.929 100.676 239.784 100.676ZM243.492 106.791C243.146 106.791 242.831 106.697 242.548 106.508C242.265 106.313 242.042 106.03 241.878 105.659C241.715 105.281 241.633 104.825 241.633 104.29C241.633 103.416 241.856 102.755 242.303 102.308C242.75 101.862 243.363 101.638 244.143 101.638C244.307 101.638 244.477 101.651 244.653 101.676C244.835 101.701 245.021 101.739 245.21 101.789L245.059 101.874V99.9774L245.144 100.081L244.275 99.8924V99.4866L245.814 99.4205V106.244L245.7 106.112L246.55 106.282V106.697L245.228 106.753L245.115 105.942L245.21 105.98C244.926 106.25 244.64 106.455 244.351 106.593C244.068 106.725 243.781 106.791 243.492 106.791ZM243.756 106.216C243.976 106.216 244.203 106.159 244.436 106.046C244.675 105.926 244.914 105.75 245.153 105.517L245.059 105.772V102.195L245.162 102.384C244.779 102.258 244.429 102.195 244.115 102.195C243.561 102.195 243.14 102.374 242.85 102.733C242.561 103.092 242.416 103.589 242.416 104.224C242.416 104.639 242.473 104.998 242.586 105.3C242.706 105.596 242.866 105.822 243.067 105.98C243.275 106.137 243.505 106.216 243.756 106.216ZM248.624 106.225L248.539 106.121L249.36 106.3V106.706H247.133V106.3L247.954 106.121L247.869 106.225V102.242L247.944 102.327L247.133 102.157V101.752L248.624 101.695V106.225ZM248.19 100.676C248.045 100.676 247.925 100.629 247.831 100.534C247.737 100.44 247.69 100.311 247.69 100.147C247.69 99.9774 247.737 99.8484 247.831 99.7603C247.932 99.6659 248.054 99.6187 248.199 99.6187C248.35 99.6187 248.473 99.6628 248.567 99.7509C248.662 99.8389 248.709 99.9711 248.709 100.147C248.709 100.317 248.658 100.449 248.558 100.544C248.457 100.632 248.334 100.676 248.19 100.676ZM251.614 106.791C251.287 106.791 251.029 106.691 250.84 106.489C250.651 106.282 250.557 105.97 250.557 105.555V102.129L250.68 102.252H249.708V101.837L250.689 101.695L250.557 101.846V100.6L251.312 100.478V101.846L251.208 101.723H252.69L252.662 102.252H251.208L251.312 102.129V105.451C251.312 105.715 251.362 105.907 251.463 106.027C251.57 106.146 251.718 106.206 251.907 106.206C252.02 106.206 252.143 106.187 252.275 106.149C252.407 106.112 252.548 106.058 252.699 105.989L252.86 106.423C252.413 106.669 251.998 106.791 251.614 106.791ZM253.054 108.915L253.12 108.358C253.195 108.37 253.264 108.38 253.327 108.386C253.397 108.392 253.46 108.396 253.516 108.396C253.824 108.396 254.073 108.323 254.262 108.179C254.457 108.04 254.62 107.829 254.752 107.546C254.885 107.263 255.02 106.911 255.158 106.489L255.13 106.772L253.365 102.176L253.469 102.261L252.856 102.157V101.752L254.922 101.686V102.101L254.073 102.242L254.13 102.157L255.536 106.168L255.366 106.131L256.715 102.176L256.772 102.261L255.942 102.157V101.752L257.942 101.686V102.101L257.282 102.252L257.414 102.167L255.753 106.725C255.64 107.04 255.52 107.332 255.394 107.603C255.275 107.873 255.136 108.109 254.979 108.311C254.822 108.518 254.63 108.679 254.403 108.792C254.177 108.905 253.903 108.962 253.582 108.962C253.437 108.962 253.261 108.946 253.054 108.915ZM260.052 108.877V108.471L260.91 108.273L260.788 108.414V102.214L260.901 102.337L260.052 102.157V101.752L261.373 101.686L261.467 102.507L261.382 102.45C261.672 102.179 261.961 101.978 262.25 101.846C262.54 101.708 262.826 101.638 263.109 101.638C263.462 101.638 263.776 101.736 264.053 101.931C264.336 102.126 264.56 102.409 264.723 102.78C264.887 103.145 264.968 103.595 264.968 104.13C264.968 104.709 264.868 105.196 264.666 105.593C264.471 105.989 264.195 106.291 263.836 106.499C263.477 106.7 263.056 106.801 262.571 106.801C262.395 106.801 262.213 106.785 262.024 106.753C261.835 106.722 261.637 106.681 261.429 106.631L261.543 106.527V108.414L261.439 108.282L262.411 108.471V108.877H260.052ZM262.486 106.234C263.04 106.234 263.462 106.055 263.751 105.696C264.04 105.338 264.185 104.841 264.185 104.205C264.185 103.79 264.125 103.435 264.006 103.139C263.893 102.843 263.735 102.617 263.534 102.459C263.333 102.296 263.103 102.214 262.845 102.214C262.625 102.214 262.395 102.274 262.156 102.393C261.923 102.507 261.687 102.683 261.448 102.922L261.543 102.686V106.225L261.439 106.055C261.823 106.175 262.172 106.234 262.486 106.234ZM268.023 106.791C267.602 106.791 267.228 106.697 266.9 106.508C266.579 106.313 266.328 106.03 266.145 105.659C265.963 105.288 265.872 104.835 265.872 104.3C265.872 103.752 265.966 103.28 266.155 102.884C266.344 102.488 266.611 102.183 266.957 101.969C267.303 101.748 267.709 101.638 268.174 101.638C268.615 101.638 268.977 101.733 269.26 101.921C269.549 102.104 269.763 102.359 269.901 102.686C270.046 103.013 270.119 103.387 270.119 103.809C270.119 103.878 270.115 103.947 270.109 104.017C270.103 104.086 270.093 104.171 270.081 104.271H266.447V103.733H269.42L269.335 103.79C269.342 103.507 269.307 103.246 269.231 103.007C269.156 102.768 269.027 102.576 268.844 102.431C268.662 102.286 268.42 102.214 268.118 102.214C267.797 102.214 267.526 102.299 267.306 102.469C267.086 102.639 266.922 102.872 266.815 103.167C266.708 103.463 266.655 103.806 266.655 104.196C266.655 104.611 266.715 104.97 266.834 105.272C266.954 105.568 267.127 105.797 267.353 105.961C267.586 106.124 267.869 106.206 268.203 106.206C268.436 106.206 268.69 106.162 268.967 106.074C269.244 105.98 269.53 105.838 269.826 105.649L270.1 106.074C269.747 106.313 269.395 106.492 269.043 106.612C268.69 106.731 268.351 106.791 268.023 106.791ZM270.938 106.706V106.3L271.769 106.121L271.675 106.263V102.195L271.778 102.337L270.938 102.157V101.752L272.26 101.686L272.363 102.61L272.26 102.573C272.543 102.277 272.82 102.047 273.09 101.884C273.361 101.72 273.656 101.638 273.977 101.638C274.179 101.638 274.389 101.67 274.61 101.733L274.553 103.054H274.081L273.968 102.12L274.053 102.29C274.009 102.277 273.962 102.268 273.911 102.261C273.861 102.255 273.811 102.252 273.76 102.252C273.509 102.252 273.263 102.327 273.024 102.478C272.791 102.629 272.568 102.824 272.354 103.063L272.43 102.837V106.263L272.316 106.121L273.345 106.3V106.706H270.938ZM276.485 106.225L276.4 106.121L277.221 106.3V106.706H274.994V106.3L275.815 106.121L275.73 106.225V102.242L275.805 102.327L274.994 102.157V101.752L276.485 101.695V106.225ZM276.051 100.676C275.906 100.676 275.786 100.629 275.692 100.534C275.598 100.44 275.55 100.311 275.55 100.147C275.55 99.9774 275.598 99.8484 275.692 99.7603C275.793 99.6659 275.915 99.6187 276.06 99.6187C276.211 99.6187 276.334 99.6628 276.428 99.7509C276.522 99.8389 276.57 99.9711 276.57 100.147C276.57 100.317 276.519 100.449 276.419 100.544C276.318 100.632 276.195 100.676 276.051 100.676ZM280.221 101.638C280.913 101.638 281.454 101.855 281.844 102.29C282.24 102.724 282.438 103.337 282.438 104.13C282.438 104.665 282.341 105.133 282.146 105.536C281.957 105.932 281.687 106.241 281.334 106.461C280.982 106.681 280.557 106.791 280.06 106.791C279.381 106.791 278.849 106.58 278.465 106.159C278.081 105.731 277.89 105.118 277.89 104.319C277.89 103.765 277.981 103.29 278.163 102.894C278.352 102.491 278.619 102.183 278.965 101.969C279.318 101.748 279.736 101.638 280.221 101.638ZM280.183 102.195C279.698 102.195 279.327 102.378 279.069 102.743C278.811 103.107 278.682 103.62 278.682 104.281C278.682 104.929 278.805 105.417 279.05 105.744C279.296 106.071 279.648 106.234 280.107 106.234C280.441 106.234 280.721 106.153 280.947 105.989C281.18 105.819 281.353 105.58 281.466 105.272C281.586 104.964 281.646 104.595 281.646 104.168C281.646 103.526 281.517 103.038 281.259 102.705C281.007 102.365 280.648 102.195 280.183 102.195ZM285.187 106.791C284.841 106.791 284.526 106.697 284.243 106.508C283.96 106.313 283.736 106.03 283.573 105.659C283.409 105.281 283.327 104.825 283.327 104.29C283.327 103.416 283.551 102.755 283.997 102.308C284.444 101.862 285.058 101.638 285.838 101.638C286.001 101.638 286.171 101.651 286.347 101.676C286.53 101.701 286.715 101.739 286.904 101.789L286.753 101.874V99.9774L286.838 100.081L285.97 99.8924V99.4866L287.508 99.4205V106.244L287.395 106.112L288.244 106.282V106.697L286.923 106.753L286.81 105.942L286.904 105.98C286.621 106.25 286.335 106.455 286.045 106.593C285.762 106.725 285.476 106.791 285.187 106.791ZM285.451 106.216C285.671 106.216 285.898 106.159 286.13 106.046C286.369 105.926 286.608 105.75 286.848 105.517L286.753 105.772V102.195L286.857 102.384C286.473 102.258 286.124 102.195 285.809 102.195C285.256 102.195 284.834 102.374 284.545 102.733C284.255 103.092 284.111 103.589 284.111 104.224C284.111 104.639 284.167 104.998 284.281 105.3C284.4 105.596 284.561 105.822 284.762 105.98C284.969 106.137 285.199 106.216 285.451 106.216Z" fill="#45545F"/>
<path d="M238.616 119.919V119.249C239.359 118.575 239.975 117.987 240.466 117.484C240.963 116.98 241.331 116.531 241.57 116.134C241.816 115.738 241.938 115.36 241.938 115.002C241.938 114.605 241.806 114.313 241.542 114.124C241.278 113.935 240.944 113.841 240.541 113.841C240.359 113.841 240.155 113.863 239.928 113.907C239.708 113.951 239.481 114.011 239.249 114.086L239.352 113.935L239.22 115.077H238.739L238.654 113.605C239.013 113.492 239.362 113.404 239.702 113.341C240.048 113.278 240.365 113.246 240.655 113.246C241.064 113.246 241.425 113.306 241.74 113.426C242.055 113.539 242.303 113.718 242.486 113.964C242.668 114.203 242.759 114.514 242.759 114.898C242.759 115.332 242.637 115.769 242.391 116.21C242.146 116.644 241.781 117.116 241.296 117.625C240.818 118.135 240.224 118.723 239.513 119.39L239.503 119.286H242.92V119.919H238.616ZM246.798 118.097L246.996 118.267H243.551L243.457 117.71L246.666 113.228L247.572 113.331V117.805L247.364 117.654H248.704V118.267H247.364L247.572 118.097V119.919H246.798V118.097ZM247.015 117.654L246.807 117.805V113.699L247.062 113.747L244.099 117.918L243.948 117.654H247.015ZM250.971 119.919V119.513L251.83 119.324L251.717 119.466V113.143L251.83 113.294L250.971 113.105V112.699L252.472 112.633V115.823L252.302 115.785C252.61 115.464 252.934 115.228 253.274 115.077C253.62 114.926 253.947 114.851 254.255 114.851C254.532 114.851 254.781 114.907 255.001 115.021C255.221 115.134 255.391 115.307 255.511 115.54C255.636 115.766 255.699 116.056 255.699 116.408V119.466L255.605 119.334L256.435 119.513V119.919H254.236V119.513L255.048 119.334L254.944 119.475V116.578C254.951 116.188 254.862 115.901 254.68 115.719C254.498 115.537 254.258 115.445 253.963 115.445C253.736 115.445 253.485 115.508 253.208 115.634C252.931 115.76 252.664 115.958 252.406 116.229L252.472 116.068V119.475L252.377 119.343L253.179 119.513V119.919H250.971ZM259.372 114.851C260.064 114.851 260.605 115.068 260.995 115.502C261.391 115.936 261.589 116.55 261.589 117.342C261.589 117.877 261.492 118.346 261.297 118.748C261.108 119.145 260.838 119.453 260.485 119.673C260.133 119.894 259.708 120.004 259.211 120.004C258.532 120.004 258 119.793 257.616 119.371C257.232 118.943 257.04 118.33 257.04 117.531C257.04 116.977 257.132 116.502 257.314 116.106C257.503 115.703 257.77 115.395 258.116 115.181C258.469 114.961 258.887 114.851 259.372 114.851ZM259.334 115.408C258.849 115.408 258.478 115.59 258.22 115.955C257.962 116.32 257.833 116.833 257.833 117.493C257.833 118.141 257.956 118.629 258.201 118.956C258.447 119.283 258.799 119.447 259.258 119.447C259.592 119.447 259.872 119.365 260.098 119.201C260.331 119.032 260.504 118.792 260.617 118.484C260.737 118.176 260.797 117.808 260.797 117.38C260.797 116.738 260.668 116.251 260.41 115.917C260.158 115.577 259.799 115.408 259.334 115.408ZM264.366 120.004C263.944 120.004 263.598 119.875 263.328 119.617C263.057 119.359 262.922 118.962 262.922 118.428V115.417L263.016 115.549L262.186 115.37V114.964L263.677 114.907V118.295C263.677 118.673 263.765 118.953 263.941 119.135C264.117 119.318 264.353 119.409 264.649 119.409C264.882 119.409 265.133 119.346 265.404 119.22C265.681 119.094 265.951 118.899 266.216 118.635L266.15 118.805V115.398L266.244 115.549L265.413 115.37V114.964L266.905 114.898V119.456L266.791 119.334L267.65 119.494V119.909L266.319 119.966L266.206 119.032L266.319 119.069C266.005 119.39 265.678 119.626 265.338 119.777C264.998 119.928 264.674 120.004 264.366 120.004ZM268.236 119.919V119.513L269.067 119.334L268.972 119.475V115.408L269.076 115.549L268.236 115.37V114.964L269.558 114.898L269.661 115.823L269.558 115.785C269.841 115.489 270.118 115.26 270.388 115.096C270.659 114.933 270.954 114.851 271.275 114.851C271.477 114.851 271.687 114.882 271.907 114.945L271.851 116.266H271.379L271.266 115.332L271.351 115.502C271.307 115.489 271.259 115.48 271.209 115.474C271.159 115.467 271.108 115.464 271.058 115.464C270.806 115.464 270.561 115.54 270.322 115.691C270.089 115.842 269.866 116.037 269.652 116.276L269.727 116.049V119.475L269.614 119.334L270.643 119.513V119.919H268.236ZM273.245 116.144C273.245 116.345 273.311 116.502 273.443 116.616C273.575 116.729 273.745 116.823 273.952 116.899C274.16 116.968 274.38 117.037 274.613 117.106C274.846 117.176 275.066 117.26 275.274 117.361C275.481 117.462 275.651 117.6 275.783 117.776C275.915 117.953 275.982 118.185 275.982 118.475C275.982 118.808 275.89 119.088 275.708 119.315C275.525 119.541 275.277 119.714 274.962 119.834C274.654 119.947 274.308 120.004 273.924 120.004C273.691 120.004 273.452 119.985 273.207 119.947C272.962 119.909 272.71 119.856 272.452 119.787L272.518 118.522H272.999L273.094 119.447L273.009 119.343C273.153 119.381 273.311 119.412 273.481 119.437C273.65 119.463 273.808 119.475 273.952 119.475C274.179 119.475 274.387 119.444 274.575 119.381C274.77 119.312 274.928 119.214 275.047 119.088C275.167 118.956 275.227 118.792 275.227 118.597C275.227 118.39 275.16 118.226 275.028 118.107C274.903 117.987 274.736 117.89 274.528 117.814C274.321 117.739 274.1 117.669 273.868 117.607C273.641 117.537 273.424 117.452 273.216 117.352C273.009 117.245 272.839 117.106 272.707 116.936C272.575 116.767 272.509 116.534 272.509 116.238C272.509 115.917 272.59 115.656 272.754 115.455C272.924 115.247 273.144 115.096 273.415 115.002C273.691 114.901 273.987 114.851 274.302 114.851C274.516 114.851 274.752 114.873 275.009 114.917C275.267 114.961 275.532 115.027 275.802 115.115L275.755 116.181H275.274L275.132 115.398L275.245 115.53C274.918 115.436 274.61 115.389 274.321 115.389C274.012 115.389 273.754 115.455 273.547 115.587C273.345 115.713 273.245 115.898 273.245 116.144Z" fill="white"/>
<rect x="224.612" y="29.7562" width="2.83125" height="47.1875" fill="#1E2831"/>
<rect x="228.388" y="29.7562" width="0.94375" height="47.1875" fill="#1E2831"/>
<rect x="230.275" y="29.7562" width="2.83125" height="47.1875" fill="#1E2831"/>
<rect x="234.05" y="29.7562" width="0.94375" height="47.1875" fill="#1E2831"/>
<rect x="235.938" y="29.7562" width="2.83125" height="47.1875" fill="#1E2831"/>
<rect x="239.712" y="29.7562" width="0.94375" height="47.1875" fill="#1E2831"/>
<rect x="241.6" y="29.7562" width="0.94375" height="47.1875" fill="#1E2831"/>
<rect x="243.487" y="29.7562" width="0.94375" height="47.1875" fill="#1E2831"/>
<rect x="245.375" y="29.7562" width="2.83125" height="47.1875" fill="#1E2831"/>
<rect x="249.15" y="29.7562" width="0.94375" height="47.1875" fill="#1E2831"/>
<rect x="251.038" y="29.7562" width="2.83125" height="47.1875" fill="#1E2831"/>
<rect x="254.812" y="29.7562" width="2.83125" height="47.1875" fill="#1E2831"/>
<rect x="258.587" y="29.7562" width="0.94375" height="47.1875" fill="#1E2831"/>
<rect x="260.475" y="29.7562" width="0.94375" height="47.1875" fill="#1E2831"/>
<rect x="262.362" y="29.7562" width="0.94375" height="47.1875" fill="#1E2831"/>
<rect x="264.25" y="29.7562" width="2.83125" height="47.1875" fill="#1E2831"/>
<rect x="268.025" y="29.7562" width="0.94375" height="47.1875" fill="#1E2831"/>
<rect x="269.913" y="29.7562" width="0.94375" height="47.1875" fill="#1E2831"/>
<rect x="271.8" y="29.7562" width="2.83125" height="47.1875" fill="#1E2831"/>
<rect x="275.575" y="29.7562" width="0.94375" height="47.1875" fill="#1E2831"/>
<rect x="277.462" y="29.7562" width="0.94375" height="47.1875" fill="#1E2831"/>
<rect x="279.35" y="29.7562" width="2.83125" height="47.1875" fill="#1E2831"/>
<rect x="283.125" y="29.7562" width="2.83125" height="47.1875" fill="#1E2831"/>
<rect x="286.9" y="29.7562" width="0.94375" height="47.1875" fill="#1E2831"/>
<rect x="288.788" y="29.7562" width="0.94375" height="47.1875" fill="#1E2831"/>
<rect x="290.675" y="29.7562" width="0.94375" height="47.1875" fill="#1E2831"/>
</g>
<defs>
<linearGradient id="paint0_linear_291_44023" x1="302" y1="9.38235" x2="-10.8144" y2="121.263" gradientUnits="userSpaceOnUse">
<stop stop-color="#FD9A8B"/>
<stop offset="1" stop-color="#51E84F"/>
</linearGradient>
<clipPath id="clip0_291_44023">
<rect y="0.5" width="302" height="151" rx="18.875" fill="white"/>
</clipPath>
</defs>
</svg>
