<svg width="556" height="129" viewBox="0 0 556 129" fill="none" xmlns="http://www.w3.org/2000/svg">
<path d="M293.169 83.7987C252.051 83.7987 214.126 81.4034 181.658 78.2098C79.8603 68.0966 8.40259 47.8702 7.73724 47.6041C7.0719 47.3379 6.6727 46.6726 6.80577 46.0073C7.07191 45.3419 7.73724 44.9427 8.40259 45.0758C9.06793 45.3419 80.2595 65.5683 181.924 75.5484C275.737 84.8632 415.326 86.9923 547.862 45.0758C548.527 44.8097 549.326 45.2089 549.592 46.0073C549.858 46.6726 549.459 47.471 548.66 47.7372C461.633 75.1492 371.413 83.7987 293.169 83.7987Z" fill="#1E2831"/>
<path d="M278.931 90.4521C278.798 90.4521 278.532 90.4521 278.399 90.4521C268.285 90.319 258.571 86.327 249.124 82.468C240.474 78.8752 232.357 75.5485 224.24 75.1493C215.058 74.617 205.61 77.1453 196.429 79.5405C186.715 82.2019 177.533 84.5971 168.617 83.6656C157.972 82.468 148.391 77.4114 139.076 72.621C131.092 68.4958 123.64 64.5038 116.055 63.3062C105.676 61.7093 95.2966 63.4392 85.3164 65.1691C76.1347 66.7659 67.3522 68.2297 59.7673 66.7659C41.0047 62.7739 35.4158 57.5842 29.96 52.6607C25.4357 48.5356 21.1775 44.5435 9.60053 41.2168C8.93519 40.9507 8.53598 40.2853 8.66905 39.62C8.93519 38.9547 9.60053 38.5555 10.2659 38.6885C22.5082 42.1483 27.1656 46.5396 31.6899 50.6647C37.1457 55.5882 42.2023 60.3787 60.1665 63.9715C67.2191 65.4353 75.7355 63.9715 84.6511 62.3747C94.8974 60.6448 105.41 58.7818 116.321 60.5117C124.305 61.7094 132.023 65.8345 140.141 70.0927C149.189 74.8831 158.637 79.8066 168.75 80.8712C177.134 81.8027 186.182 79.4074 195.63 76.8791C204.945 74.3508 214.659 71.6895 224.373 72.3548C232.889 72.8871 241.672 76.4799 250.055 79.9397C259.237 83.6656 268.818 87.6577 278.399 87.7907C287.314 87.9238 296.097 84.5971 305.545 81.0043C314.46 77.6776 323.509 74.2178 332.824 73.8186C341.606 73.5524 350.655 76.0807 359.437 78.7421C368.885 81.5365 378.732 84.464 388.18 83.5326C397.229 82.6011 405.745 78.2098 414.794 73.5524C423.044 69.2942 431.693 64.903 440.609 63.4392C449.258 62.1086 458.573 63.5723 467.622 64.903C477.469 66.4998 487.582 68.0966 496.764 65.9675C505.812 63.8384 514.063 57.9834 522.18 52.2615C529.632 46.9388 537.35 41.483 545.866 38.8216C546.531 38.5555 547.33 38.9547 547.596 39.7531C547.862 40.4184 547.463 41.2168 546.664 41.483C538.547 44.0113 530.962 49.4671 523.644 54.6567C515.393 60.5117 506.877 66.6329 497.296 68.762C487.582 71.0241 477.203 69.2942 467.09 67.6974C458.307 66.2337 449.125 64.903 440.875 66.2337C432.359 67.5644 423.975 71.9556 415.858 76.0807C406.943 80.6051 397.761 85.3955 388.18 86.327C378.333 87.2585 368.22 84.331 358.506 81.5365C349.457 78.8752 341.074 76.4799 332.691 76.7461C323.775 77.1453 314.859 80.472 306.21 83.7987C297.427 86.8593 288.113 90.4521 278.931 90.4521Z" fill="#1E2831"/>
<path d="M32.2238 64.2376L21.9775 61.8424L23.8405 54.1244C24.5058 51.33 27.3003 49.6001 30.0947 50.2654C32.8891 50.9308 34.619 53.7252 33.9537 56.5197L32.2238 64.2376Z" fill="#0F171E"/>
<path d="M32.2238 64.2376L21.9775 61.8424L22.6429 58.9149C23.3082 56.1205 26.1027 54.3906 28.8971 55.0559C31.6915 55.7213 33.4214 58.5157 32.7561 61.3101L32.2238 64.2376Z" fill="#1E2831"/>
<path d="M40.1249 84.7537C44.1351 75.6787 40.0292 65.0709 30.9542 61.0607C21.8791 57.0505 11.2714 61.1564 7.26114 70.2314C3.25092 79.3065 7.3568 89.9143 16.4319 93.9245C25.507 97.9347 36.1147 93.8288 40.1249 84.7537Z" fill="#E8524F"/>
<path d="M38.4196 77.7693C40.5571 70.1259 36.0936 62.1969 28.4502 60.0595C20.8068 57.922 12.8778 62.3855 10.7403 70.0289C8.60287 77.6723 13.0663 85.6013 20.7098 87.7387C28.3532 89.8762 36.2822 85.4127 38.4196 77.7693Z" fill="#E77A78"/>
<path d="M31.2916 66.2337C31.0254 67.1652 31.6908 68.0967 32.6222 68.3628C33.5537 68.6289 34.4852 67.9636 34.7513 67.0321C35.0175 66.1006 34.3521 65.1692 33.4206 64.903C32.4892 64.7699 31.5577 65.3022 31.2916 66.2337Z" fill="#BCBCBC"/>
<path d="M34.7517 70.6249C34.6186 71.0241 34.8848 71.5564 35.417 71.6895C35.8162 71.8225 36.3485 71.5564 36.4816 71.0241C36.6146 70.6249 36.3485 70.0926 35.8162 69.9596C35.284 69.8265 34.8848 70.0926 34.7517 70.6249Z" fill="#BCBCBC"/>
<path d="M203.881 90.4521L193.502 91.5166L192.703 83.5325C192.437 80.605 194.566 78.0767 197.361 77.8106C200.288 77.5445 202.816 79.6736 203.082 82.468L203.881 90.4521Z" fill="#0F171E"/>
<path d="M203.882 90.4521L193.502 91.5167L193.236 88.4561C192.97 85.5286 195.099 83.0003 197.894 82.7342C200.821 82.468 203.35 84.5971 203.616 87.3915L203.882 90.4521Z" fill="#1E2831"/>
<path d="M206.67 122.497C215.919 118.905 220.505 108.496 216.914 99.2476C213.322 89.9989 202.913 85.4129 193.664 89.0044C184.416 92.596 179.829 103.005 183.421 112.254C187.013 121.502 197.422 126.088 206.67 122.497Z" fill="#E8524F"/>
<path d="M214.128 100.698C214.927 108.682 209.072 115.735 201.22 116.4C193.236 117.199 186.184 111.344 185.518 103.493C184.853 95.6418 190.575 88.4561 198.426 87.7908C206.277 86.9924 213.33 92.8474 214.128 100.698Z" fill="#E77A78"/>
<path d="M203.748 92.7143C203.881 93.6458 204.68 94.3111 205.611 94.3111C206.543 94.178 207.208 93.3796 207.208 92.4481C207.075 91.5167 206.277 90.8513 205.345 90.8513C204.281 90.8513 203.615 91.6497 203.748 92.7143Z" fill="#BCBCBC"/>
<path d="M208.273 95.6418C208.273 96.174 208.806 96.4402 209.205 96.4402C209.737 96.4402 210.003 95.9079 210.003 95.5087C210.003 94.9764 209.471 94.7103 209.072 94.7103C208.673 94.7103 208.273 95.2425 208.273 95.6418Z" fill="#BCBCBC"/>
<path d="M373.809 84.7302L366.224 91.9159L360.768 86.1939C358.772 84.0648 358.905 80.7381 360.901 78.7421C363.03 76.7461 366.357 76.8792 368.353 78.8752L373.809 84.7302Z" fill="#0F171E"/>
<path d="M373.809 84.7302L366.224 91.9159L364.095 89.6537C362.099 87.5246 362.232 84.1979 364.228 82.2019C366.357 80.2059 369.684 80.3389 371.68 82.335L373.809 84.7302Z" fill="#1E2831"/>
<path d="M393.237 86.7262C400.156 93.9119 399.89 105.356 392.704 112.142C385.519 119.062 374.075 118.796 367.288 111.61C360.369 104.424 360.635 92.9804 367.821 86.1939C375.006 79.2744 386.45 79.5405 393.237 86.7262Z" fill="#E8524F"/>
<path d="M382.245 110.216C389.793 107.76 393.92 99.6513 391.465 92.1039C389.009 84.5565 380.9 80.4289 373.352 82.8846C365.805 85.3404 361.677 93.4495 364.133 100.997C366.589 108.544 374.698 112.672 382.245 110.216Z" fill="#E77A78"/>
<path d="M375.007 86.5931C375.672 87.2585 376.737 87.2585 377.402 86.5931C378.067 85.9278 378.067 84.8632 377.402 84.1979C376.737 83.5325 375.672 83.5325 375.007 84.1979C374.341 84.8632 374.341 85.9278 375.007 86.5931Z" fill="#BCBCBC"/>
<path d="M380.463 86.1939C380.729 86.5931 381.395 86.5931 381.661 86.1939C381.927 85.7947 382.06 85.2624 381.661 84.9963C381.395 84.5971 380.729 84.5971 380.463 84.9963C380.197 85.2624 380.197 85.7947 380.463 86.1939Z" fill="#BCBCBC"/>
<path d="M522.314 39.3539L532.693 40.9507L531.496 48.8017C531.096 51.7292 528.435 53.5922 525.507 53.193C522.58 52.7938 520.717 50.1324 521.116 47.2049L522.314 39.3539Z" fill="#0F171E"/>
<path d="M522.313 39.3539L532.693 40.9507L532.293 44.0113C531.894 46.9388 529.233 48.8017 526.305 48.4025C523.378 48.0033 521.515 45.342 521.914 42.4145L522.313 39.3539Z" fill="#1E2831"/>
<path d="M541.807 38.6446C549.134 31.9557 549.651 20.5935 542.962 13.2666C536.273 5.93965 524.911 5.42249 517.584 12.1115C510.257 18.8005 509.74 30.1626 516.429 37.4895C523.118 44.8165 534.48 45.3336 541.807 38.6446Z" fill="#E8524F"/>
<path d="M514.995 26.8454C516.193 18.9944 523.511 13.5386 531.362 14.7362C539.213 15.9338 544.669 23.2526 543.472 31.1036C542.274 38.9547 534.955 44.4105 527.104 43.2128C519.253 42.1483 513.797 34.6965 514.995 26.8454Z" fill="#E77A78"/>
<path d="M523.112 37.2248C523.246 36.2933 522.58 35.3618 521.649 35.2287C520.717 35.0957 519.786 35.761 519.653 36.6925C519.52 37.624 520.185 38.5555 521.116 38.6885C522.048 38.8216 522.979 38.1563 523.112 37.2248Z" fill="#BCBCBC"/>
<path d="M519.387 33.2327C519.52 32.7005 519.12 32.3012 518.721 32.3012C518.189 32.1682 517.79 32.5674 517.79 32.9666C517.657 33.4989 518.056 33.8981 518.455 33.8981C518.854 34.0311 519.254 33.6319 519.387 33.2327Z" fill="#BCBCBC"/>
<path d="M94.3661 74.4839L83.9868 76.0807L82.7891 68.2297C82.3899 65.3022 84.386 62.6408 87.1804 62.2416C90.1079 61.8424 92.7693 63.8384 93.1685 66.6329L94.3661 74.4839Z" fill="#0F171E"/>
<path d="M94.3665 74.4839L83.9872 76.0807L83.588 73.0201C83.1888 70.0926 85.1848 67.4313 87.9792 67.0321C90.9067 66.6329 93.5681 68.6289 93.9673 71.4233L94.3665 74.4839Z" fill="#1E2831"/>
<path d="M109.27 87.2584C110.734 97.1055 103.947 106.287 94.1003 107.751C84.2532 109.215 75.0715 102.428 73.6077 92.5812C72.144 82.7341 78.9305 73.5524 88.7775 72.0886C98.6246 70.6249 107.673 77.4114 109.27 87.2584Z" fill="#51E84F"/>
<path d="M105.144 84.1978C106.342 92.0489 100.886 99.3676 93.0353 100.565C85.1842 101.763 77.8655 96.3071 76.6679 88.456C75.4702 80.605 80.926 73.2862 88.7771 72.0886C96.6281 70.891 103.947 76.3468 105.144 84.1978Z" fill="#51E84F"/>
<path d="M94.2328 76.613C94.3658 77.5445 95.2973 78.2098 96.2288 78.0768C97.1603 77.9437 97.8256 77.0122 97.6926 76.0807C97.5595 75.1493 96.628 74.4839 95.6965 74.617C94.765 74.8831 94.0997 75.6815 94.2328 76.613Z" fill="#BCBCBC"/>
<path d="M99.0225 79.4074C99.1555 79.9397 99.5547 80.2058 99.9539 80.0728C100.486 79.9397 100.752 79.5405 100.619 79.1413C100.486 78.609 100.087 78.3429 99.6878 78.476C99.2886 78.476 99.0225 79.0082 99.0225 79.4074Z" fill="#BCBCBC"/>
<path d="M257.507 69.5604L263.362 78.2098L256.709 82.6011C254.313 84.1979 250.987 83.5326 249.39 81.1373C247.793 78.7421 248.458 75.4154 250.854 73.8186L257.507 69.5604Z" fill="#0F171E"/>
<path d="M257.507 69.5604L263.362 78.2098L260.834 79.9397C258.438 81.5366 255.112 80.8712 253.515 78.476C251.918 76.0808 252.583 72.754 254.979 71.1572L257.507 69.5604Z" fill="#1E2831"/>
<path d="M283.787 79.925C291.657 73.8829 293.138 62.6052 287.096 54.7356C281.054 46.866 269.776 45.3845 261.906 51.4266C254.037 57.4687 252.555 68.7464 258.597 76.616C264.64 84.4856 275.917 85.9671 283.787 79.925Z" fill="#51E84F"/>
<path d="M284.099 69.478C285.091 61.6028 279.512 54.4144 271.636 53.4223C263.761 52.4301 256.573 58.01 255.581 65.8851C254.588 73.7603 260.168 80.9487 268.043 81.9409C275.919 82.933 283.107 77.3532 284.099 69.478Z" fill="#51E84F"/>
<path d="M259.503 68.6289C260.302 68.0966 260.568 67.0321 260.035 66.2337C259.503 65.4353 258.439 65.1691 257.64 65.7014C256.842 66.2337 256.576 67.2982 257.108 68.0966C257.64 69.0281 258.838 69.1612 259.503 68.6289Z" fill="#BCBCBC"/>
<path d="M260.035 63.1731C260.434 62.907 260.568 62.3747 260.301 61.9755C260.035 61.5763 259.503 61.4432 259.104 61.7094C258.705 61.9755 258.572 62.5078 258.838 62.907C259.104 63.3062 259.636 63.4392 260.035 63.1731Z" fill="#BCBCBC"/>
<path d="M406.411 66.6329L414.528 59.9795L419.585 66.1006C421.448 68.3628 421.049 71.6895 418.786 73.4194C416.524 75.2824 413.198 74.8831 411.468 72.621L406.411 66.6329Z" fill="#0F171E"/>
<path d="M406.411 66.6329L414.528 59.9795L416.524 62.3747C418.387 64.6369 417.988 67.9636 415.726 69.6935C413.464 71.5564 410.137 71.1572 408.407 68.8951L406.411 66.6329Z" fill="#1E2831"/>
<path d="M387.116 63.3062C380.861 55.5882 381.926 44.2774 389.644 38.0232C397.362 31.769 408.673 32.8335 414.927 40.5515C421.181 48.2695 420.117 59.5803 412.399 65.8345C404.814 72.0887 393.503 71.0241 387.116 63.3062Z" fill="#51E84F"/>
<path d="M417.656 56.6925C418.755 48.8316 413.273 41.5686 405.412 40.4701C397.551 39.3716 390.288 44.8536 389.189 52.7145C388.091 60.5754 393.573 67.8384 401.434 68.9369C409.295 70.0354 416.558 64.5534 417.656 56.6925Z" fill="#51E84F"/>
<path d="M405.479 64.7699C404.813 63.9715 403.749 63.9715 403.083 64.5038C402.285 65.1691 402.285 66.2337 402.817 66.899C403.483 67.6974 404.547 67.6974 405.212 67.1652C405.878 66.4998 406.011 65.4353 405.479 64.7699Z" fill="#BCBCBC"/>
<path d="M399.889 64.77C399.623 64.3708 399.091 64.3708 398.692 64.6369C398.292 64.903 398.292 65.4353 398.559 65.8345C398.825 66.2337 399.357 66.2337 399.756 65.9676C400.155 65.7014 400.155 65.1692 399.889 64.77Z" fill="#BCBCBC"/>
<path d="M139.209 57.185L147.592 63.4392L142.802 69.8265C141.072 72.2218 137.745 72.621 135.483 70.8911C133.088 69.1612 132.689 65.8345 134.419 63.5723L139.209 57.185Z" fill="#0F171E"/>
<path d="M139.209 57.185L147.593 63.4392L145.73 65.8345C144 68.2297 140.673 68.6289 138.411 66.899C136.016 65.1691 135.617 61.8424 137.346 59.5803L139.209 57.185Z" fill="#1E2831"/>
<path d="M170.207 49.5639C170.895 39.6664 163.429 31.0855 153.531 30.3979C143.634 29.7104 135.053 37.1765 134.365 47.0741C133.677 56.9717 141.144 65.5526 151.041 66.2401C160.939 66.9277 169.52 59.4615 170.207 49.5639Z" fill="#583DCC"/>
<path d="M152.284 65.402C160.13 64.2019 165.518 56.8688 164.318 49.023C163.117 41.1771 155.784 35.7897 147.939 36.9898C140.093 38.1899 134.705 45.523 135.905 53.3689C137.105 61.2147 144.439 66.6021 152.284 65.402Z" fill="#705ACB"/>
<path d="M140.806 55.7213C141.338 54.9229 141.205 53.8583 140.407 53.326C139.609 52.7938 138.544 52.9268 138.012 53.7253C137.479 54.5237 137.613 55.5882 138.411 56.1205C139.209 56.6528 140.274 56.5197 140.806 55.7213Z" fill="#BCBCBC"/>
<path d="M139.342 50.3985C139.608 49.9993 139.608 49.4671 139.209 49.2009C138.81 48.9348 138.278 48.9348 138.012 49.334C137.746 49.7332 137.746 50.2655 138.145 50.5316C138.544 50.7977 139.076 50.6647 139.342 50.3985Z" fill="#BCBCBC"/>
<path d="M306.875 94.8434L296.762 92.0489L298.891 84.331C299.689 81.5365 302.617 79.9397 305.411 80.7381C308.206 81.5365 309.802 84.464 309.004 87.2585L306.875 94.8434Z" fill="#0F171E"/>
<path d="M306.875 94.8434L296.762 92.0489L297.56 89.1214C298.359 86.327 301.286 84.7302 304.08 85.5286C306.875 86.327 308.472 89.2545 307.673 92.0489L306.875 94.8434Z" fill="#1E2831"/>
<path d="M315.628 110.32C317.066 100.504 310.274 91.3812 300.457 89.9436C290.641 88.5059 281.518 95.2981 280.081 105.114C278.643 114.931 285.435 124.054 295.251 125.491C305.068 126.929 314.191 120.137 315.628 110.32Z" fill="#583DCC"/>
<path d="M305.138 117.198C312.256 113.687 315.18 105.07 311.669 97.9521C308.157 90.8341 299.54 87.9104 292.422 91.4218C285.304 94.9331 282.381 103.55 285.892 110.668C289.403 117.786 298.02 120.71 305.138 117.198Z" fill="#705ACB"/>
<path d="M305.944 96.8394C305.677 97.7709 306.21 98.7024 307.141 98.9685C308.073 99.2346 309.004 98.7024 309.27 97.7709C309.536 96.8394 309.004 95.9079 308.073 95.6418C307.141 95.3756 306.21 95.9079 305.944 96.8394Z" fill="#BCBCBC"/>
<path d="M309.138 101.364C309.005 101.763 309.271 102.295 309.67 102.428C310.07 102.561 310.602 102.295 310.735 101.896C310.868 101.497 310.602 100.965 310.203 100.831C309.803 100.698 309.271 100.831 309.138 101.364Z" fill="#BCBCBC"/>
<path d="M483.724 67.9636L478.002 76.7461L471.349 72.3548C468.954 70.758 468.288 67.5644 469.885 65.1691C471.482 62.7739 474.675 62.1086 477.071 63.7054L483.724 67.9636Z" fill="#0F171E"/>
<path d="M483.724 67.9636L478.002 76.7461L475.474 75.0162C473.079 73.4194 472.413 70.2257 474.01 67.8305C475.607 65.4353 478.8 64.7699 481.196 66.3668L483.724 67.9636Z" fill="#1E2831"/>
<path d="M503.019 65.4353C511.402 70.8911 513.664 82.0688 508.209 90.3191C502.753 98.7024 491.575 100.965 483.325 95.5087C474.942 90.0529 472.679 78.8752 478.135 70.6249C483.591 62.3747 494.769 59.9795 503.019 65.4353Z" fill="#583DCC"/>
<path d="M493.392 92.617C501.139 90.8883 506.017 83.2071 504.289 75.4605C502.56 67.7139 494.879 62.8354 487.132 64.5641C479.385 66.2928 474.507 73.9741 476.236 81.7207C477.964 89.4673 485.646 94.3457 493.392 92.617Z" fill="#705ACB"/>
<path d="M485.321 69.5604C486.119 70.0926 487.184 69.8265 487.716 69.0281C488.248 68.2297 487.982 67.1652 487.184 66.6329C486.385 66.1006 485.321 66.3667 484.789 67.1652C484.256 67.9636 484.522 69.0281 485.321 69.5604Z" fill="#BCBCBC"/>
<path d="M490.51 67.8305C490.909 68.0967 491.442 67.9636 491.708 67.5644C491.974 67.1652 491.841 66.6329 491.442 66.3668C491.042 66.1007 490.51 66.2337 490.244 66.6329C489.978 67.0321 490.111 67.5644 490.51 67.8305Z" fill="#BCBCBC"/>
</svg>
