<svg width="69" height="77" viewBox="0 0 69 77" fill="none" xmlns="http://www.w3.org/2000/svg">
<rect x="16.5596" y="21.5428" width="34.8387" height="32.7273" fill="#0D141B"/>
<rect x="16.5596" y="21.5428" width="34.8387" height="32.7273" fill="url(#paint0_linear_107_31309)"/>
<g filter="url(#filter0_f_107_31309)">
<ellipse cx="21.5" cy="38.5" rx="1.5" ry="18.5" fill="#583DCC"/>
</g>
<g filter="url(#filter1_f_107_31309)">
<ellipse cx="47.5" cy="38.5" rx="1.5" ry="18.5" fill="#583DCC"/>
</g>
<path d="M49.4194 21.6364H18.5807C17.4761 21.6364 16.5807 22.5318 16.5807 23.6364V52.3636C16.5807 53.4682 17.4761 54.3636 18.5807 54.3636H49.4194C50.5239 54.3636 51.4194 53.4682 51.4194 52.3636V23.6364C51.4194 22.5318 50.5239 21.6364 49.4194 21.6364Z" stroke="#1E2831"/>
<path d="M49.4194 21.6364H18.5807C17.4761 21.6364 16.5807 22.5318 16.5807 23.6364V52.3636C16.5807 53.4682 17.4761 54.3636 18.5807 54.3636H49.4194C50.5239 54.3636 51.4194 53.4682 51.4194 52.3636V23.6364C51.4194 22.5318 50.5239 21.6364 49.4194 21.6364Z" stroke="url(#paint1_linear_107_31309)"/>
<path d="M49.4194 21.6364H18.5807C17.4761 21.6364 16.5807 22.5318 16.5807 23.6364V52.3636C16.5807 53.4682 17.4761 54.3636 18.5807 54.3636H49.4194C50.5239 54.3636 51.4194 53.4682 51.4194 52.3636V23.6364C51.4194 22.5318 50.5239 21.6364 49.4194 21.6364Z" stroke="url(#paint2_linear_107_31309)"/>
<path d="M17.9391 21.6364V21.6364C17.1889 21.6364 16.5807 22.2446 16.5807 22.9948V25.6364" stroke="#3C4853" stroke-width="2" stroke-linecap="round"/>
<path d="M16.5807 50.3636L16.5807 53.0052C16.5807 53.7554 17.1889 54.3636 17.9391 54.3636V54.3636" stroke="#3C4853" stroke-width="2" stroke-linecap="round"/>
<path d="M50.0708 54.3962V54.3962C50.829 54.3951 51.4296 53.7928 51.4297 53.0334L51.4302 50.4499" stroke="#3C4853" stroke-width="2" stroke-linecap="round"/>
<path d="M51.4295 25.6649L51.4295 23.0233C51.4295 22.2731 50.8213 21.6649 50.071 21.6649V21.6649" stroke="#3C4853" stroke-width="2" stroke-linecap="round"/>
<path fill-rule="evenodd" clip-rule="evenodd" d="M35.6506 43.7417L41.9846 37.4266C42.8969 36.5171 43.353 36.0624 43.5932 35.4841C43.8334 34.9059 43.8334 34.2628 43.8334 32.9766V32.3622C43.8334 30.3844 43.8334 29.3955 43.2171 28.7811C42.6009 28.1667 41.609 28.1667 39.6253 28.1667H39.009C37.719 28.1667 37.074 28.1667 36.494 28.4062C35.914 28.6457 35.4579 29.1005 34.5457 30.0099L28.2116 36.325C27.1457 37.3877 26.4847 38.0467 26.2288 38.6831C26.1479 38.8842 26.1075 39.0831 26.1075 39.2917C26.1075 40.1606 26.8089 40.8599 28.2116 42.2584L28.4001 42.4463L30.6085 40.205C30.9235 39.8853 31.4378 39.8815 31.7575 40.1965C32.0771 40.5114 32.0809 41.0259 31.766 41.3455L29.5509 43.5937L29.6994 43.7417C31.1021 45.1402 31.8035 45.8394 32.675 45.8394C32.8675 45.8394 33.0518 45.8053 33.2371 45.7371C33.8907 45.4963 34.5578 44.8312 35.6506 43.7417ZM38.6263 36.3255C37.8046 37.1447 36.4724 37.1447 35.6507 36.3255C34.829 35.5063 34.829 34.178 35.6507 33.3588C36.4724 32.5396 37.8046 32.5396 38.6263 33.3588C39.448 34.178 39.448 35.5063 38.6263 36.3255Z" fill="#583DCC"/>
<g opacity="0.5">
<path d="M29.7871 32.46L27.0321 35.2068C26.5257 35.7116 26.0611 36.1748 25.6943 36.5934C25.4587 36.8623 25.2232 37.1566 25.0238 37.4817L24.997 37.4549C24.946 37.4041 24.9205 37.3787 24.8949 37.3539C24.416 36.8892 23.8528 36.5198 23.2352 36.2654C23.2022 36.2518 23.1687 36.2385 23.1017 36.212L22.6915 36.0494C22.1358 35.8292 21.9877 35.1139 22.4106 34.6923C23.6241 33.4824 25.0812 32.0298 25.7844 31.738C26.4045 31.4807 27.0744 31.3951 27.7205 31.4906C28.3125 31.5781 28.8726 31.8822 29.7871 32.46Z" fill="#583DCC"/>
<path d="M34.4914 46.9227C34.7134 47.148 34.8608 47.3071 34.9942 47.4772C35.17 47.7016 35.3273 47.9399 35.4644 48.1898C35.6186 48.4712 35.7384 48.7717 35.9781 49.3727C36.1731 49.8621 36.8211 49.9914 37.1975 49.6161L37.2885 49.5254C38.502 48.3154 39.959 46.8627 40.2516 46.1617C40.5098 45.5434 40.5956 44.8755 40.4998 44.2313C40.4121 43.6411 40.1072 43.0829 39.5277 42.1713L36.7635 44.9273C36.2456 45.4436 35.7707 45.9171 35.3413 46.2879C35.0839 46.5102 34.8023 46.7324 34.4914 46.9227Z" fill="#583DCC"/>
</g>
<defs>
<filter id="filter0_f_107_31309" x="0" y="0" width="43" height="77" filterUnits="userSpaceOnUse" color-interpolation-filters="sRGB">
<feFlood flood-opacity="0" result="BackgroundImageFix"/>
<feBlend mode="normal" in="SourceGraphic" in2="BackgroundImageFix" result="shape"/>
<feGaussianBlur stdDeviation="10" result="effect1_foregroundBlur_107_31309"/>
</filter>
<filter id="filter1_f_107_31309" x="26" y="0" width="43" height="77" filterUnits="userSpaceOnUse" color-interpolation-filters="sRGB">
<feFlood flood-opacity="0" result="BackgroundImageFix"/>
<feBlend mode="normal" in="SourceGraphic" in2="BackgroundImageFix" result="shape"/>
<feGaussianBlur stdDeviation="10" result="effect1_foregroundBlur_107_31309"/>
</filter>
<linearGradient id="paint0_linear_107_31309" x1="33.9789" y1="21.5428" x2="33.9789" y2="54.2701" gradientUnits="userSpaceOnUse">
<stop stop-color="#0D1318" stop-opacity="0"/>
<stop offset="1" stop-color="#1E2831" stop-opacity="0.4"/>
</linearGradient>
<linearGradient id="paint1_linear_107_31309" x1="16.5807" y1="38" x2="17.4922" y2="38" gradientUnits="userSpaceOnUse">
<stop stop-color="#583DCC"/>
<stop offset="1" stop-color="#1E2831" stop-opacity="0"/>
</linearGradient>
<linearGradient id="paint2_linear_107_31309" x1="50.0415" y1="38" x2="51.4404" y2="38" gradientUnits="userSpaceOnUse">
<stop stop-color="#1E2831" stop-opacity="0"/>
<stop offset="1" stop-color="#583DCC"/>
</linearGradient>
</defs>
</svg>
