<svg width="36" height="36" viewBox="0 0 36 36" fill="none" xmlns="http://www.w3.org/2000/svg">
<path opacity="0.5" d="M33 18C33 26.2842 26.2842 33 18 33C9.71572 33 3 26.2842 3 18C3 9.71572 9.71572 3 18 3C26.2842 3 33 9.71572 33 18Z" fill="#583DCC"/>
<path d="M18 11.625C17.068 11.625 16.3125 12.3805 16.3125 13.3125C16.3125 13.9338 15.8088 14.4375 15.1875 14.4375C14.5662 14.4375 14.0625 13.9338 14.0625 13.3125C14.0625 11.1379 15.8254 9.375 18 9.375C20.1746 9.375 21.9375 11.1379 21.9375 13.3125C21.9375 14.3788 21.5123 15.348 20.8245 16.056C20.6861 16.1983 20.554 16.3303 20.4281 16.4562C20.1044 16.7796 19.8207 17.0629 19.5719 17.3827C19.2434 17.8048 19.125 18.1152 19.125 18.375V19.5C19.125 20.1213 18.6213 20.625 18 20.625C17.3787 20.625 16.875 20.1213 16.875 19.5V18.375C16.875 17.3922 17.3325 16.5966 17.7963 16.0008C18.1393 15.5599 18.5706 15.1294 18.9207 14.7802C19.0263 14.6748 19.1244 14.5768 19.2105 14.4882C19.5069 14.1831 19.6875 13.7701 19.6875 13.3125C19.6875 12.3805 18.932 11.625 18 11.625Z" fill="#583DCC"/>
<path d="M18 25.5C18.8284 25.5 19.5 24.8284 19.5 24C19.5 23.1715 18.8284 22.5 18 22.5C17.1715 22.5 16.5 23.1715 16.5 24C16.5 24.8284 17.1715 25.5 18 25.5Z" fill="#583DCC"/>
</svg>
