<svg width="48" height="48" viewBox="0 0 48 48" fill="none" xmlns="http://www.w3.org/2000/svg">
<path opacity="0.5" d="M21.6936 43.8684C11.7343 42.7248 4 34.2656 4 24C4 12.9543 12.9543 4 24 4C35.0456 4 44 12.9543 44 24C44 34.313 37.4346 33.465 31.827 32.7406C28.5928 32.3228 25.6772 31.9462 24.5238 33.776C23.7348 35.0272 24.5876 36.5876 25.6336 37.6336C26.9406 38.9406 26.9406 41.0594 25.6336 42.3664C24.5876 43.4124 23.1632 44.0372 21.6936 43.8684Z" fill="#0047FF"/>
<path d="M22.17 14C22.17 15.6569 20.8268 17 19.17 17C17.5132 17 16.17 15.6569 16.17 14C16.17 12.3431 17.5132 11 19.17 11C20.8268 11 22.17 12.3431 22.17 14Z" fill="#0047FF"/>
<path d="M13 26.0004C14.6569 26.0004 16 24.6574 16 23.0004C16 21.3436 14.6569 20.0004 13 20.0004C11.3431 20.0004 10 21.3436 10 23.0004C10 24.6574 11.3431 26.0004 13 26.0004Z" fill="#0047FF"/>
<path d="M35 26.0004C36.6568 26.0004 38 24.6574 38 23.0004C38 21.3436 36.6568 20.0004 35 20.0004C33.3432 20.0004 32 21.3436 32 23.0004C32 24.6574 33.3432 26.0004 35 26.0004Z" fill="#0047FF"/>
<path d="M29 17.0005C30.6568 17.0005 32 15.6573 32 14.0005C32 12.3436 30.6568 11.0005 29 11.0005C27.3432 11.0005 26 12.3436 26 14.0005C26 15.6573 27.3432 17.0005 29 17.0005Z" fill="#0047FF"/>
</svg>
