<svg width="48" height="48" viewBox="0 0 48 48" fill="none" xmlns="http://www.w3.org/2000/svg">
<path d="M6 12.7719C6 11.803 6.69076 11.0176 7.54286 11.0176L12.8713 11.0166C13.93 10.9861 14.864 10.2207 15.2243 9.08824C15.2338 9.05846 15.2446 9.02174 15.2837 8.88848L15.5133 8.10512C15.6538 7.62482 15.7762 7.20636 15.9475 6.83234C16.6242 5.35472 17.8762 4.32864 19.3229 4.06594C19.6891 3.99944 20.077 3.99972 20.5222 4.00004H27.4782C27.9234 3.99972 28.3112 3.99944 28.6774 4.06594C30.1242 4.32864 31.3762 5.35472 32.0528 6.83234C32.2242 7.20636 32.3466 7.62482 32.487 8.10512L32.7166 8.88848C32.7556 9.02174 32.7666 9.05846 32.776 9.08824C33.1364 10.2207 34.2556 10.9871 35.3142 11.0176H40.4572C41.3092 11.0176 42 11.803 42 12.7719C42 13.7409 41.3092 14.5263 40.4572 14.5263H7.54286C6.69076 14.5263 6 13.7409 6 12.7719Z" fill="#0047FF"/>
<path fill-rule="evenodd" clip-rule="evenodd" d="M18.8509 22.963C19.6752 22.8762 20.4102 23.5094 20.4926 24.377L21.4926 34.9034C21.575 35.771 20.9736 36.5448 20.1494 36.6316C19.3251 36.7184 18.59 36.0852 18.5076 35.2176L17.5076 24.6912C17.4251 23.8236 18.0265 23.0498 18.8509 22.963Z" fill="#0047FF"/>
<path fill-rule="evenodd" clip-rule="evenodd" d="M29.1494 22.963C29.9736 23.0498 30.5749 23.8236 30.4925 24.6912L29.4925 35.2176C29.4101 36.0852 28.6751 36.7184 27.8507 36.6316C27.0265 36.5448 26.4252 35.771 26.5076 34.9034L27.5076 24.377C27.59 23.5094 28.325 22.8762 29.1494 22.963Z" fill="#0047FF"/>
<path opacity="0.5" d="M23.1912 44.0002H24.8088C30.3742 44.0002 33.157 44.0002 34.9662 42.2284C36.7756 40.4566 36.9606 37.5502 37.3308 31.7372L37.8642 23.3614C38.0652 20.2074 38.1656 18.6305 37.2578 17.6312C36.3502 16.6318 34.8174 16.6318 31.752 16.6318H16.2481C13.1825 16.6318 11.6498 16.6318 10.7421 17.6312C9.83444 18.6305 9.93488 20.2074 10.1358 23.3614L10.6692 31.7372C11.0394 37.5502 11.2245 40.4566 13.0338 42.2284C14.8431 44.0002 17.6258 44.0002 23.1912 44.0002Z" fill="#0047FF"/>
</svg>
