<svg width="48" height="48" viewBox="0 0 48 48" fill="none" xmlns="http://www.w3.org/2000/svg">
<path opacity="0.5" d="M24 44C35.0457 44 44 35.0457 44 24C44 12.9543 35.0457 4 24 4C12.9543 4 4 12.9543 4 24C4 35.0457 12.9543 44 24 44Z" fill="#583DCC"/>
<path d="M17.1503 18.8947C16.7758 14.7263 13.5612 10.8421 12.0007 9.42106L11.1387 8.68378C14.6158 5.76074 19.1027 4 24.0008 4C28.4274 4 32.5184 5.4382 35.8316 7.87284C36.2996 9.2939 35.408 12.2632 34.4718 13.6842C34.1326 14.1989 33.3636 14.838 32.5204 15.4437C30.6194 16.8095 28.2204 17.4851 27.0008 20C26.652 20.719 26.667 21.4216 26.8346 22.0326C26.9552 22.4716 27.0322 22.949 27.0334 23.416C27.0374 24.9258 25.5104 26.0164 24.0008 26C20.0722 25.9572 17.5004 22.791 17.1503 18.8947Z" fill="#583DCC"/>
<path d="M26.873 36.5522C28.8492 32.828 35.4364 32.828 35.4364 32.828C42.3004 32.7564 43.2276 28.5888 43.8474 26.4824C42.738 35.4452 35.6988 42.5698 26.777 43.8092C26.1318 42.4512 25.3674 39.3892 26.873 36.5522Z" fill="#583DCC"/>
</svg>
