<svg width="19" height="14" viewBox="0 0 19 14" fill="none" xmlns="http://www.w3.org/2000/svg">
<g clip-path="url(#clip0_228_31635)">
<path d="M0 0.5H19V13.5H0V0.5Z" fill="#012169"/>
<path d="M2.22656 0.5L9.47031 5.40208L16.6844 0.5H19V2.17917L11.875 7.02708L19 11.8479V13.5H16.625L9.5 8.65208L2.40469 13.5H0V11.875L7.09531 7.05417L0 2.23333V0.5H2.22656Z" fill="#BCBCBC"/>
<path d="M12.5875 8.11042L19 12.4167V13.5L10.9547 8.11042H12.5875ZM7.125 8.65208L7.30312 9.6L1.60312 13.5H0L7.125 8.65208ZM19 0.5V0.58125L11.6078 5.67292L11.6672 4.48125L17.5156 0.5H19ZM0 0.5L7.09531 5.26667H5.31406L0 1.6375V0.5Z" fill="#C8102E"/>
<path d="M7.15469 0.5V13.5H11.9047V0.5H7.15469ZM0 4.83333V9.16667H19V4.83333H0Z" fill="#BCBCBC"/>
<path d="M0 5.72708V8.32708H19V5.72708H0ZM8.10469 0.5V13.5H10.9547V0.5H8.10469Z" fill="#C8102E"/>
</g>
<defs>
<clipPath id="clip0_228_31635">
<rect width="19" height="13" fill="white" transform="translate(0 0.5)"/>
</clipPath>
</defs>
</svg>
