<svg width="20" height="14" viewBox="0 0 20 14" fill="none" xmlns="http://www.w3.org/2000/svg">
<g clip-path="url(#clip0_273_39636)">
<path d="M0.942261 0.5H19.9423V4.83333H0.942261V0.5Z" fill="#FF9933"/>
<path d="M0.942261 4.83333H19.9423V9.16667H0.942261V4.83333Z" fill="white"/>
<path d="M0.942261 9.16667H19.9423V13.5H0.942261V9.16667Z" fill="#128807"/>
<path d="M10.4422 8.73333C11.4916 8.73333 12.3422 7.95729 12.3422 7C12.3422 6.04271 11.4916 5.26667 10.4422 5.26667C9.3929 5.26667 8.54224 6.04271 8.54224 7C8.54224 7.95729 9.3929 8.73333 10.4422 8.73333Z" fill="#000088"/>
<path d="M10.4422 8.51667C11.3604 8.51667 12.1047 7.83763 12.1047 7C12.1047 6.16237 11.3604 5.48333 10.4422 5.48333C9.52405 5.48333 8.77972 6.16237 8.77972 7C8.77972 7.83763 9.52405 8.51667 10.4422 8.51667Z" fill="white"/>
<path d="M10.4422 7.30333C10.6259 7.30333 10.7747 7.16753 10.7747 7C10.7747 6.83247 10.6259 6.69667 10.4422 6.69667C10.2586 6.69667 10.1097 6.83247 10.1097 7C10.1097 7.16753 10.2586 7.30333 10.4422 7.30333Z" fill="#000088"/>
<path d="M12.0794 7.27586C12.1262 7.28149 12.1691 7.25142 12.1753 7.20871C12.1814 7.166 12.1485 7.12682 12.1017 7.1212C12.0549 7.11558 12.0119 7.14564 12.0057 7.18835C11.9996 7.23106 12.0325 7.27024 12.0794 7.27586Z" fill="#000088"/>
<path d="M10.4423 8.51667L10.4993 7.60667L10.4423 7.17333L10.3853 7.60667L10.4423 8.51667Z" fill="#000088"/>
<path d="M11.9321 7.64257C11.9684 7.66482 12.0185 7.65526 12.0438 7.62123C12.0692 7.58719 12.0603 7.54156 12.0239 7.51932C11.9876 7.49707 11.9376 7.50662 11.9122 7.54066C11.8869 7.57469 11.8958 7.62032 11.9321 7.64257Z" fill="#000088"/>
<path d="M9.99919 8.45979L10.3169 7.60649L10.4058 7.17262L10.2324 7.56918L9.99919 8.45979Z" fill="#000088"/>
<path d="M11.7043 7.98408C11.7393 8.01117 11.793 8.00613 11.8242 7.97282C11.8554 7.93951 11.8524 7.89054 11.8174 7.86345C11.7824 7.83636 11.7287 7.8414 11.6975 7.87471C11.6663 7.90802 11.6693 7.95699 11.7043 7.98408Z" fill="#000088"/>
<path d="M9.60787 8.31419L10.1571 7.55041L10.3504 7.14939L10.0646 7.49985L9.60787 8.31419Z" fill="#000088"/>
<path d="M11.3805 8.24848C11.4062 8.28411 11.4599 8.29292 11.5004 8.26815C11.5409 8.24339 11.5529 8.19442 11.5272 8.15879C11.5015 8.12315 11.4478 8.11434 11.4073 8.13911C11.3668 8.16388 11.3548 8.21284 11.3805 8.24848Z" fill="#000088"/>
<path d="M9.26052 8.06911L10.0084 7.47027L10.3141 7.1259L9.94011 7.39005L9.26052 8.06911Z" fill="#000088"/>
<path d="M11.0012 8.4312C11.0205 8.47107 11.0705 8.49008 11.1129 8.47366C11.1553 8.45724 11.174 8.41161 11.1547 8.37175C11.1353 8.33188 11.0853 8.31287 11.0429 8.32929C11.0006 8.34571 10.9818 8.39134 11.0012 8.4312Z" fill="#000088"/>
<path d="M9.00405 7.75698L9.89587 7.35021L10.2762 7.08802L9.83579 7.25742L9.00405 7.75698Z" fill="#000088"/>
<path d="M10.5743 8.51199C10.5808 8.5558 10.6237 8.58767 10.6703 8.58315C10.7168 8.57864 10.7494 8.53946 10.7429 8.49564C10.7365 8.45182 10.6936 8.41996 10.647 8.42447C10.6005 8.42899 10.5679 8.46817 10.5743 8.51199Z" fill="#000088"/>
<path d="M8.83422 7.3717L9.81326 7.23548L10.2609 7.06571L9.78813 7.09334L8.83422 7.3717Z" fill="#000088"/>
<path d="M10.1338 8.50469C10.1367 8.55245 10.1797 8.59072 10.2298 8.59015C10.2799 8.58958 10.3182 8.5504 10.3154 8.50264C10.3125 8.45487 10.2695 8.41661 10.2194 8.41717C10.1693 8.41774 10.131 8.45692 10.1338 8.50469Z" fill="#000088"/>
<path d="M8.78341 6.95172L9.7723 7.02085L10.2486 7.04827L9.77962 7.0134L8.78341 6.95172Z" fill="#000088"/>
<path d="M9.70239 8.38443C9.69762 8.43154 9.7399 8.47717 9.79683 8.48634C9.85375 8.49552 9.90377 8.46477 9.90854 8.41766C9.91331 8.37055 9.87103 8.32492 9.8141 8.31574C9.75717 8.30657 9.70716 8.33732 9.70239 8.38443Z" fill="#000088"/>
<path d="M8.84511 6.77899L9.82028 7.00388L10.25 6.78361L9.77336 6.56036L8.84511 6.77899Z" fill="#000088"/>
<path d="M9.36603 8.15358C9.33494 8.18673 9.33821 8.23569 9.37333 8.26295C9.40845 8.29021 9.46212 8.28544 9.49321 8.2523C9.5243 8.21916 9.52103 8.1702 9.48591 8.14294C9.45079 8.11568 9.39712 8.12044 9.36603 8.15358Z" fill="#000088"/>
<path d="M9.00392 6.24293L9.83578 6.74251L10.2762 6.91207L9.89575 6.64992L9.00392 6.24293Z" fill="#000088"/>
<path d="M9.07745 7.85743C9.03632 7.88169 9.0233 7.93066 9.04838 7.9668C9.07345 8.00293 9.12713 8.01256 9.16826 7.9883C9.20939 7.96404 9.22241 7.91507 9.19733 7.87894C9.17226 7.8428 9.11859 7.83317 9.07745 7.85743Z" fill="#000088"/>
<path d="M9.27257 5.9249L9.9236 6.60608L10.3019 6.88008L10.0161 6.53784L9.27257 5.9249Z" fill="#000088"/>
<path d="M8.88362 7.5015C8.83425 7.51449 8.8042 7.56012 8.81652 7.60341C8.82884 7.64671 8.87885 7.67128 8.92823 7.6583C8.97761 7.64531 9.00765 7.59968 8.99533 7.55639C8.98302 7.51309 8.933 7.48852 8.88362 7.5015Z" fill="#000088"/>
<path d="M9.62676 5.68143L10.0389 6.49732L10.3313 6.85499L10.1693 6.45552L9.62676 5.68143Z" fill="#000088"/>
<path d="M8.7977 7.11158C8.74684 7.11251 8.70389 7.15169 8.70177 7.19909C8.69964 7.24649 8.73915 7.28417 8.79 7.28324C8.84085 7.28231 8.8838 7.24313 8.88593 7.19573C8.88805 7.14832 8.84855 7.11065 8.7977 7.11158Z" fill="#000088"/>
<path d="M10.0784 5.52905L10.1251 6.42362L10.3267 6.83853L10.368 6.40862L10.0784 5.52905Z" fill="#000088"/>
<path d="M8.81173 6.72654C8.76858 6.71959 8.72563 6.7475 8.71581 6.78888C8.70598 6.83027 8.73301 6.86945 8.77616 6.8764C8.81932 6.88335 8.86227 6.85543 8.87209 6.81405C8.88192 6.77267 8.85489 6.73349 8.81173 6.72654Z" fill="#000088"/>
<path d="M10.4945 5.49606L10.419 6.37609L10.3899 6.81394L10.4283 6.40154L10.4945 5.49606Z" fill="#000088"/>
<path d="M8.94586 6.35061C8.90591 6.33213 8.8559 6.34779 8.83415 6.38559C8.81241 6.42339 8.82717 6.46902 8.86712 6.4875C8.90707 6.50598 8.95708 6.49032 8.97883 6.45252C9.00057 6.41472 8.98581 6.36909 8.94586 6.35061Z" fill="#000088"/>
<path d="M10.8796 5.53431L10.5639 6.4015L10.4843 6.83327L10.6598 6.42701L10.8796 5.53431Z" fill="#000088"/>
<path d="M9.18259 6.01809C9.14894 5.9898 9.09527 5.9929 9.06271 6.02502C9.03015 6.05713 9.03104 6.10609 9.06468 6.13438C9.09833 6.16267 9.15201 6.15957 9.18456 6.12746C9.21712 6.09535 9.21624 6.04638 9.18259 6.01809Z" fill="#000088"/>
<path d="M11.2817 5.68941L10.7307 6.44471L10.529 6.84701L10.813 6.50247L11.2817 5.68941Z" fill="#000088"/>
<path d="M9.50782 5.75447C9.48422 5.71721 9.43055 5.70576 9.38794 5.7289C9.34533 5.75203 9.32992 5.801 9.35351 5.83826C9.37711 5.87552 9.43078 5.88697 9.47339 5.86384C9.51601 5.8407 9.53142 5.79174 9.50782 5.75447Z" fill="#000088"/>
<path d="M11.6293 5.93617L10.8796 6.52258L10.565 6.86882L10.9371 6.61335L11.6293 5.93617Z" fill="#000088"/>
<path d="M9.88332 5.56879C9.86401 5.52893 9.814 5.50993 9.77161 5.52635C9.72922 5.54277 9.71051 5.5884 9.72981 5.62826C9.74912 5.66812 9.79913 5.68712 9.84152 5.6707C9.88391 5.65427 9.90263 5.60865 9.88332 5.56879Z" fill="#000088"/>
<path d="M11.8805 6.24301L10.9887 6.64981L10.6083 6.91199L11.0487 6.74257L11.8805 6.24301Z" fill="#000088"/>
<path d="M10.3103 5.48816C10.3039 5.44426 10.261 5.41227 10.2144 5.41671C10.1677 5.42114 10.1351 5.46032 10.1414 5.50422C10.1477 5.54812 10.1907 5.58011 10.2373 5.57567C10.284 5.57124 10.3166 5.53206 10.3103 5.48816Z" fill="#000088"/>
<path d="M12.0504 6.62867L11.0713 6.76401L10.6235 6.93392L11.0963 6.9069L12.0504 6.62867Z" fill="#000088"/>
<path d="M10.7522 5.49745C10.7501 5.44974 10.7072 5.41056 10.6562 5.40994C10.6053 5.40932 10.5656 5.4475 10.5677 5.49522C10.5697 5.54293 10.6127 5.58211 10.6636 5.58273C10.7145 5.58335 10.7542 5.54517 10.7522 5.49745Z" fill="#000088"/>
<path d="M12.0991 7.04862L11.1149 6.97937L10.6379 6.95138L11.1036 6.98612L12.0991 7.04862Z" fill="#000088"/>
<path d="M11.182 5.61662C11.1869 5.57009 11.1447 5.52446 11.0878 5.5147C11.0309 5.50495 10.9809 5.53476 10.9761 5.58129C10.9713 5.62782 11.0134 5.67345 11.0703 5.68321C11.1272 5.69296 11.1772 5.66315 11.182 5.61662Z" fill="#000088"/>
<path d="M12.0386 7.2408L11.0637 7.00889L10.6353 7.1966L11.1122 7.41283L12.0386 7.2408Z" fill="#000088"/>
<path d="M11.5286 5.83965C11.5541 5.80277 11.5417 5.75381 11.5009 5.73028C11.4602 5.70676 11.4065 5.71758 11.3811 5.75446C11.3556 5.79134 11.368 5.8403 11.4087 5.86383C11.4495 5.88735 11.5032 5.87652 11.5286 5.83965Z" fill="#000088"/>
<path d="M11.8896 7.74797L11.0364 7.25161L10.5992 7.09703L10.9946 7.36241L11.8896 7.74797Z" fill="#000088"/>
<path d="M11.8192 6.13472C11.8536 6.10612 11.8557 6.05716 11.8239 6.02535C11.7921 5.99355 11.7384 5.99095 11.704 6.01954C11.6696 6.04814 11.6675 6.09711 11.6993 6.12891C11.7311 6.16071 11.7848 6.16331 11.8192 6.13472Z" fill="#000088"/>
<path d="M11.6253 8.06613L10.9425 7.38813L10.569 7.12889L10.877 7.47431L11.6253 8.06613Z" fill="#000088"/>
<path d="M12.0166 6.48881C12.0572 6.47048 12.0731 6.42485 12.0521 6.3869C12.0311 6.34895 11.981 6.33305 11.9404 6.35139C11.8997 6.36972 11.8838 6.41535 11.9048 6.4533C11.9259 6.49125 11.9759 6.50715 12.0166 6.48881Z" fill="#000088"/>
<path d="M11.2818 8.30975L10.8128 7.49699L10.5289 7.15383L10.7307 7.55643L11.2818 8.30975Z" fill="#000088"/>
<path d="M12.107 6.87658C12.1509 6.86911 12.1793 6.82993 12.1703 6.78907C12.1614 6.7482 12.1184 6.72113 12.0744 6.7286C12.0304 6.73606 12.002 6.77524 12.011 6.81611C12.02 6.85697 12.063 6.88405 12.107 6.87658Z" fill="#000088"/>
<path d="M10.8826 8.46235L10.6559 7.57083L10.4815 7.17006L10.5658 7.60302L10.8826 8.46235Z" fill="#000088"/>
</g>
<defs>
<clipPath id="clip0_273_39636">
<rect width="19" height="13" fill="white" transform="translate(0.942261 0.5)"/>
</clipPath>
</defs>
</svg>
