<svg width="16" height="17" viewBox="0 0 16 17" fill="none" xmlns="http://www.w3.org/2000/svg">
<path d="M10.4854 3.08927C11.4416 2.12934 12.8403 2.10918 13.6146 2.8865C14.3904 3.66528 14.3695 5.07277 13.4126 6.03335L11.7968 7.65549C11.6019 7.85116 11.6025 8.16776 11.7981 8.36263C11.9938 8.55749 12.3104 8.55689 12.5052 8.36123L14.1211 6.73909C15.3953 5.45995 15.5553 3.41773 14.3231 2.18076C13.0895 0.942327 11.0518 1.10374 9.77691 2.38353L6.54516 5.62784C5.27097 6.90698 5.11099 8.94923 6.34317 10.1862C6.53805 10.3818 6.85464 10.3824 7.05031 10.1876C7.24591 9.99269 7.24651 9.67609 7.05164 9.48043C6.27588 8.70169 6.29677 7.29416 7.25364 6.33357L10.4854 3.08927Z" fill="#0047FF"/>
<path opacity="0.5" d="M9.65636 6.81376C9.46149 6.61812 9.14489 6.61751 8.94923 6.81239C8.75363 7.00727 8.75303 7.32382 8.94789 7.51949C9.72369 8.29829 9.70276 9.70576 8.74589 10.6664L5.51415 13.9107C4.55793 14.8706 3.15922 14.8908 2.38491 14.1134C1.60913 13.3347 1.63003 11.9272 2.58689 10.9666L4.20279 9.34436C4.39767 9.14876 4.39706 8.83216 4.20142 8.63729C4.00578 8.44243 3.6892 8.44302 3.49431 8.63862L1.87842 10.2608C0.604218 11.54 0.444245 13.5822 1.67643 14.8192C2.91008 16.0576 4.94778 15.8962 6.22263 14.6164L9.45436 11.3721C10.7286 10.093 10.8886 8.05076 9.65636 6.81376Z" fill="#0047FF"/>
</svg>
