<svg width="120" height="84" viewBox="0 0 120 84" fill="none" xmlns="http://www.w3.org/2000/svg">
<g filter="url(#filter0_iiii_107_48720)">
<rect x="1" y="1" width="117.997" height="82" rx="2" fill="#0C151C"/>
</g>
<path d="M116.997 1H3C1.89543 1 1 1.89543 1 3V81C1 82.1046 1.89543 83 3 83H116.997C118.102 83 118.997 82.1046 118.997 81V3C118.997 1.89543 118.102 1 116.997 1Z" stroke="#1E2831"/>
<path d="M9.07153 1.14197H3.07153C1.96696 1.14197 1.07153 2.0374 1.07153 3.14197V9.14197" stroke="#3C4853" stroke-width="2" stroke-linecap="round"/>
<path d="M1.07153 74.7848L1.07153 80.7848C1.07153 81.8894 1.96696 82.7848 3.07153 82.7848L9.07153 82.7848" stroke="#3C4853" stroke-width="2" stroke-linecap="round"/>
<path d="M110.963 82.7669L116.961 82.8581C118.065 82.8749 118.954 81.9926 118.946 80.8876L118.902 74.9969" stroke="#3C4853" stroke-width="2" stroke-linecap="round"/>
<path d="M118.96 9.21301L118.96 3.21301C118.96 2.10844 118.065 1.21301 116.96 1.21301L110.96 1.21301" stroke="#3C4853" stroke-width="2" stroke-linecap="round"/>
<defs>
<filter id="filter0_iiii_107_48720" x="-2" y="-2" width="123.997" height="88" filterUnits="userSpaceOnUse" color-interpolation-filters="sRGB">
<feFlood flood-opacity="0" result="BackgroundImageFix"/>
<feBlend mode="normal" in="SourceGraphic" in2="BackgroundImageFix" result="shape"/>
<feColorMatrix in="SourceAlpha" type="matrix" values="0 0 0 0 0 0 0 0 0 0 0 0 0 0 0 0 0 0 127 0" result="hardAlpha"/>
<feOffset dx="3" dy="3"/>
<feGaussianBlur stdDeviation="4"/>
<feComposite in2="hardAlpha" operator="arithmetic" k2="-1" k3="1"/>
<feColorMatrix type="matrix" values="0 0 0 0 0.0196078 0 0 0 0 0.0313726 0 0 0 0 0.0431373 0 0 0 0.9 0"/>
<feBlend mode="normal" in2="shape" result="effect1_innerShadow_107_48720"/>
<feColorMatrix in="SourceAlpha" type="matrix" values="0 0 0 0 0 0 0 0 0 0 0 0 0 0 0 0 0 0 127 0" result="hardAlpha"/>
<feOffset dx="-3" dy="-3"/>
<feGaussianBlur stdDeviation="3"/>
<feComposite in2="hardAlpha" operator="arithmetic" k2="-1" k3="1"/>
<feColorMatrix type="matrix" values="0 0 0 0 0.0745098 0 0 0 0 0.133333 0 0 0 0 0.176471 0 0 0 0.9 0"/>
<feBlend mode="normal" in2="effect1_innerShadow_107_48720" result="effect2_innerShadow_107_48720"/>
<feColorMatrix in="SourceAlpha" type="matrix" values="0 0 0 0 0 0 0 0 0 0 0 0 0 0 0 0 0 0 127 0" result="hardAlpha"/>
<feOffset dx="3" dy="-3"/>
<feGaussianBlur stdDeviation="3"/>
<feComposite in2="hardAlpha" operator="arithmetic" k2="-1" k3="1"/>
<feColorMatrix type="matrix" values="0 0 0 0 0.0196078 0 0 0 0 0.0313726 0 0 0 0 0.0431373 0 0 0 0.2 0"/>
<feBlend mode="normal" in2="effect2_innerShadow_107_48720" result="effect3_innerShadow_107_48720"/>
<feColorMatrix in="SourceAlpha" type="matrix" values="0 0 0 0 0 0 0 0 0 0 0 0 0 0 0 0 0 0 127 0" result="hardAlpha"/>
<feOffset dx="-3" dy="3"/>
<feGaussianBlur stdDeviation="3"/>
<feComposite in2="hardAlpha" operator="arithmetic" k2="-1" k3="1"/>
<feColorMatrix type="matrix" values="0 0 0 0 0.0196078 0 0 0 0 0.0313726 0 0 0 0 0.0431373 0 0 0 0.2 0"/>
<feBlend mode="normal" in2="effect3_innerShadow_107_48720" result="effect4_innerShadow_107_48720"/>
</filter>
</defs>
</svg>
