<svg width="120" height="321" viewBox="0 0 120 321" fill="none" xmlns="http://www.w3.org/2000/svg">
<g filter="url(#filter0_i_2007_40249)">
<rect x="1" y="1.9989" width="117.997" height="317.832" rx="2" fill="url(#paint0_linear_2007_40249)"/>
</g>
<path d="M116.997 1.9989H3C1.89543 1.9989 1 2.89434 1 3.99891V317.831C1 318.936 1.89543 319.831 3 319.831H116.997C118.102 319.831 118.997 318.936 118.997 317.831V3.9989C118.997 2.89433 118.102 1.9989 116.997 1.9989Z" stroke="#1E2831"/>
<path d="M8.9382 1.9989H3.07153C1.96696 1.9989 1.07153 2.89433 1.07153 3.9989V9.94471" stroke="#3C4853" stroke-width="2" stroke-linecap="round"/>
<path d="M1 311.885L1 317.831C1 318.936 1.89543 319.831 3 319.831L8.86667 319.831" stroke="#3C4853" stroke-width="2" stroke-linecap="round"/>
<path d="M111.133 319.831L117 319.831C118.105 319.831 119 318.936 119 317.831L119 311.885" stroke="#3C4853" stroke-width="2" stroke-linecap="round"/>
<path d="M118.96 9.77698L118.96 3.83118C118.96 2.72661 118.065 1.83118 116.96 1.83118L111.094 1.83118" stroke="#3C4853" stroke-width="2" stroke-linecap="round"/>
<defs>
<filter id="filter0_i_2007_40249" x="1" y="1.9989" width="120.997" height="320.832" filterUnits="userSpaceOnUse" color-interpolation-filters="sRGB">
<feFlood flood-opacity="0" result="BackgroundImageFix"/>
<feBlend mode="normal" in="SourceGraphic" in2="BackgroundImageFix" result="shape"/>
<feColorMatrix in="SourceAlpha" type="matrix" values="0 0 0 0 0 0 0 0 0 0 0 0 0 0 0 0 0 0 127 0" result="hardAlpha"/>
<feOffset dx="3" dy="3"/>
<feGaussianBlur stdDeviation="4"/>
<feComposite in2="hardAlpha" operator="arithmetic" k2="-1" k3="1"/>
<feColorMatrix type="matrix" values="0 0 0 0 0.075 0 0 0 0 0.075 0 0 0 0 0.075 0 0 0 0.6 0"/>
<feBlend mode="normal" in2="shape" result="effect1_innerShadow_2007_40249"/>
</filter>
<linearGradient id="paint0_linear_2007_40249" x1="118.997" y1="160.915" x2="1" y2="160.915" gradientUnits="userSpaceOnUse">
<stop stop-color="#AAAEB0"/>
<stop offset="1" stop-color="#CFCFCF"/>
</linearGradient>
</defs>
</svg>
