<svg width="20" height="14" viewBox="0 0 20 14" fill="none" xmlns="http://www.w3.org/2000/svg">
<g clip-path="url(#clip0_289_15725)">
<path d="M8.54224 0.5H19.9422V13.5H8.54224V0.5Z" fill="#FF0000"/>
<path d="M0.942261 0.5H8.54226V13.5H0.942261V0.5Z" fill="#006600"/>
<path fill-rule="evenodd" clip-rule="evenodd" d="M11.0212 8.79292C10.0623 8.76583 5.67745 6.26875 5.64777 5.86792L5.88824 5.50229C6.32464 6.07917 10.8075 8.50854 11.2498 8.42187L11.0212 8.79292Z" fill="#FFFF00" stroke="black" stroke-width="0.075" stroke-linecap="round" stroke-linejoin="round"/>
<path fill-rule="evenodd" clip-rule="evenodd" d="M5.83773 5.45083C5.75164 5.66208 6.98367 6.35542 8.46211 7.17875C9.94351 7.99938 11.2201 8.50583 11.3121 8.43542L11.3566 8.35958C11.3388 8.38667 11.2973 8.39479 11.229 8.37583C10.8282 8.27021 9.78617 7.83417 8.49476 7.11917C7.20039 6.40417 6.0782 5.74604 5.90304 5.46708C5.88939 5.44093 5.88326 5.41204 5.88523 5.38313H5.87929L5.84367 5.44271L5.83773 5.45083ZM11.042 8.80375C11.0271 8.83083 10.9945 8.83083 10.938 8.82542C10.5818 8.79021 9.49523 8.30813 8.20976 7.60667C6.71351 6.78875 5.47851 6.04667 5.61508 5.85167L5.6507 5.79208L5.65664 5.79479C5.53789 6.12521 8.09398 7.45771 8.24539 7.54438C9.72383 8.37854 10.9707 8.86875 11.0805 8.74146L11.042 8.80375Z" fill="#FFFF00" stroke="black" stroke-width="0.075" stroke-linecap="round" stroke-linejoin="round"/>
<path fill-rule="evenodd" clip-rule="evenodd" d="M8.54823 6.11167C9.50417 6.10354 10.6857 5.9925 11.3685 5.74333L11.2201 5.52667C10.8193 5.72979 9.63182 5.86521 8.53932 5.88417C7.25088 5.87333 6.33948 5.76229 5.88229 5.48333L5.74573 5.71625C6.58292 6.04125 7.44385 6.10896 8.54823 6.11167Z" fill="#FFFF00" stroke="black" stroke-width="0.075" stroke-linecap="round" stroke-linejoin="round"/>
<path fill-rule="evenodd" clip-rule="evenodd" d="M11.4071 5.74875C11.3834 5.78396 10.9381 5.92208 10.285 6.025C9.70922 6.10461 9.12759 6.14355 8.54527 6.14146C7.98735 6.14338 7.42993 6.1108 6.87684 6.04396C6.19105 5.94646 5.83777 5.81104 5.70418 5.76229L5.73684 5.70271C6.11387 5.83812 6.47012 5.91937 6.88574 5.97896C7.4348 6.04659 7.98827 6.08007 8.5423 6.07917C9.1216 6.0797 9.70014 6.04077 10.2731 5.96271C10.9411 5.8625 11.3062 5.73521 11.3596 5.67833L11.4071 5.74875ZM11.2765 5.52937C11.2053 5.58354 10.8431 5.7 10.2078 5.79208C9.65916 5.86451 9.10554 5.90072 8.55121 5.90042C7.89809 5.90042 7.36074 5.85708 6.95402 5.80292C6.30684 5.72708 5.96246 5.58625 5.83777 5.54833L5.87637 5.48875C5.97434 5.53479 6.30387 5.65667 6.95996 5.74062C7.48738 5.80507 8.01909 5.83584 8.55121 5.83271C9.10159 5.83286 9.65125 5.79666 10.1959 5.72437C10.8342 5.64312 11.1786 5.49687 11.232 5.45896L11.2765 5.52937ZM5.40434 7.1625C5.99215 7.45229 7.30137 7.59583 8.53934 7.60667C9.66746 7.60937 11.134 7.44958 11.6832 7.18417L11.6684 6.89437C11.4962 7.13812 9.92277 7.37375 8.52746 7.36562C7.13215 7.35479 5.8348 7.15979 5.40137 6.90521V7.1625" fill="#FFFF00"/>
<path d="M5.40434 7.1625C5.99215 7.45229 7.30137 7.59583 8.53934 7.60667C9.66746 7.60937 11.134 7.44958 11.6832 7.18417L11.6684 6.89437C11.4962 7.13812 9.92277 7.37375 8.52746 7.36562C7.13215 7.35479 5.8348 7.15979 5.40137 6.90521V7.1625M11.4071 5.74875C11.3834 5.78396 10.9381 5.92208 10.285 6.025C9.70922 6.10461 9.12759 6.14355 8.54527 6.14146C7.98735 6.14338 7.42993 6.1108 6.87684 6.04396C6.19105 5.94646 5.83777 5.81104 5.70418 5.76229L5.73684 5.70271C6.11387 5.83812 6.47012 5.91937 6.88574 5.97896C7.4348 6.04659 7.98827 6.08007 8.5423 6.07917C9.1216 6.0797 9.70014 6.04077 10.2731 5.96271C10.9411 5.8625 11.3062 5.73521 11.3596 5.67833L11.4071 5.74875ZM11.2765 5.52937C11.2053 5.58354 10.8431 5.7 10.2078 5.79208C9.65916 5.86451 9.10554 5.90072 8.55121 5.90042C7.89809 5.90042 7.36074 5.85708 6.95402 5.80292C6.30684 5.72708 5.96246 5.58625 5.83777 5.54833L5.87637 5.48875C5.97434 5.53479 6.30387 5.65667 6.95996 5.74062C7.48738 5.80507 8.01909 5.83584 8.55121 5.83271C9.10159 5.83286 9.65125 5.79666 10.1959 5.72437C10.8342 5.64312 11.1786 5.49687 11.232 5.45896L11.2765 5.52937Z" stroke="black" stroke-width="0.075" stroke-linecap="round" stroke-linejoin="round"/>
<path fill-rule="evenodd" clip-rule="evenodd" d="M11.7129 7.12187V7.18958C11.6298 7.28167 11.1132 7.41708 10.466 7.51458C9.82307 7.5989 9.17403 7.63873 8.52447 7.63375C7.90855 7.63854 7.29315 7.5996 6.68385 7.51729C6.2292 7.46936 5.78494 7.35982 5.36572 7.19229V7.11375C5.65369 7.28708 6.4315 7.41708 6.69275 7.455C7.16182 7.52 7.76447 7.56875 8.52447 7.56875C9.32307 7.56875 9.96135 7.51729 10.4542 7.44958C10.9203 7.38729 11.5823 7.2275 11.7129 7.12187ZM11.7129 6.87812V6.94583C11.6298 7.03521 11.1132 7.17062 10.466 7.26812C9.82314 7.35334 9.1741 7.39409 8.52447 7.39C7.9086 7.39331 7.29332 7.35438 6.68385 7.27354C6.2292 7.22561 5.78494 7.11607 5.36572 6.94854V6.86729C5.65369 7.04333 6.43447 7.17062 6.69275 7.20854C7.29922 7.28958 7.91155 7.32852 8.52447 7.325C9.32307 7.325 9.96432 7.27083 10.4542 7.20312C10.9203 7.14354 11.5823 6.98375 11.7129 6.87812ZM8.53635 8.74146C7.1826 8.73604 6.02182 8.40562 5.77541 8.35146L5.95354 8.60604C6.78624 8.87509 7.66495 9.00625 8.54822 8.99333C9.57838 8.96625 10.4779 8.89312 11.1103 8.61146L11.2943 8.34604C10.8638 8.53292 9.39432 8.74146 8.53338 8.74146" fill="#FFFF00"/>
<path d="M8.53635 8.74146C7.1826 8.73604 6.02182 8.40562 5.77541 8.35146L5.95354 8.60604C6.78624 8.87509 7.66495 9.00625 8.54822 8.99333C9.57838 8.96625 10.4779 8.89312 11.1103 8.61146L11.2943 8.34604C10.8638 8.53292 9.39432 8.74146 8.53338 8.74146M11.7129 7.12187V7.18958C11.6298 7.28167 11.1132 7.41708 10.466 7.51458C9.82307 7.5989 9.17403 7.63873 8.52447 7.63375C7.90855 7.63854 7.29315 7.5996 6.68385 7.51729C6.2292 7.46936 5.78494 7.35982 5.36572 7.19229V7.11375C5.65369 7.28708 6.4315 7.41708 6.69275 7.455C7.16182 7.52 7.76447 7.56875 8.52447 7.56875C9.32307 7.56875 9.96135 7.51729 10.4542 7.44958C10.9203 7.38729 11.5823 7.2275 11.7129 7.12187ZM11.7129 6.87812V6.94583C11.6298 7.03521 11.1132 7.17062 10.466 7.26812C9.82314 7.35334 9.1741 7.39409 8.52447 7.39C7.9086 7.39331 7.29332 7.35438 6.68385 7.27354C6.2292 7.22561 5.78494 7.11607 5.36572 6.94854V6.86729C5.65369 7.04333 6.43447 7.17062 6.69275 7.20854C7.29922 7.28958 7.91155 7.32852 8.52447 7.325C9.32307 7.325 9.96432 7.27083 10.4542 7.20312C10.9203 7.14354 11.5823 6.98375 11.7129 6.87812Z" stroke="black" stroke-width="0.075" stroke-linecap="round" stroke-linejoin="round"/>
<path fill-rule="evenodd" clip-rule="evenodd" d="M11.1815 8.55187C11.1545 8.58841 11.1268 8.62453 11.0984 8.66021C10.8015 8.75771 10.3265 8.86063 10.1306 8.88771C9.60481 8.97709 9.07118 9.02241 8.53636 9.02313C7.33698 9.00688 6.35433 8.79292 5.89417 8.60875L5.85558 8.55187L5.86152 8.54104L5.92386 8.56542C6.76878 8.82049 7.65234 8.953 8.5423 8.95812C9.10042 8.95812 9.65558 8.90125 10.1039 8.82812C10.7926 8.70083 11.0717 8.60604 11.1578 8.56271L11.1785 8.55187H11.1815ZM11.3389 8.31354C11.3193 8.34527 11.2995 8.37686 11.2795 8.40833C11.1192 8.4625 10.6857 8.57625 10.0534 8.6575C9.63777 8.70896 9.37948 8.76042 8.5512 8.77396C7.60436 8.76529 6.66333 8.6377 5.75464 8.39479L5.72198 8.32708C6.64522 8.55986 7.59655 8.68722 8.55417 8.70625C9.3112 8.69271 9.6348 8.64125 10.0475 8.58979C10.7837 8.48688 11.1548 8.37312 11.2646 8.34333C11.2647 8.34153 11.2647 8.33972 11.2646 8.33792L11.3418 8.31083L11.3389 8.31354Z" fill="#FFFF00" stroke="black" stroke-width="0.075" stroke-linecap="round" stroke-linejoin="round"/>
<path fill-rule="evenodd" clip-rule="evenodd" d="M11.3567 6.935C11.3597 7.7475 10.9025 8.47875 10.5373 8.79833C9.99799 9.27819 9.27776 9.55148 8.5245 9.56208C7.62497 9.57563 6.77887 9.04208 6.55028 8.80646C6.03889 8.31172 5.74783 7.66094 5.73387 6.98104C5.78731 6.09271 6.17028 5.47521 6.72247 5.05C7.25887 4.64715 7.93365 4.4295 8.6284 4.43521C9.03397 4.45315 9.43096 4.54818 9.79393 4.71421C10.1569 4.88024 10.4778 5.11361 10.7362 5.39937C11.1073 5.81104 11.2706 6.25792 11.3567 6.935ZM8.53043 4.15625C9.36094 4.15623 10.1578 4.45571 10.7473 4.98942C11.3367 5.52313 11.671 6.24778 11.6773 7.00542C11.6773 7.38135 11.5961 7.75361 11.4384 8.10093C11.2807 8.44825 11.0496 8.76383 10.7582 9.02966C10.4668 9.29548 10.1209 9.50635 9.74019 9.65021C9.35947 9.79408 8.95142 9.86812 8.53934 9.86812C8.12726 9.86812 7.71921 9.79408 7.33849 9.65021C6.95778 9.50635 6.61185 9.29548 6.32046 9.02966C6.02907 8.76383 5.79793 8.44825 5.64024 8.10093C5.48254 7.75361 5.40137 7.38135 5.40137 7.00542C5.3984 5.43458 6.80559 4.15625 8.53043 4.15625Z" fill="#FFFF00" stroke="black" stroke-width="0.075" stroke-linecap="round" stroke-linejoin="round"/>
<path fill-rule="evenodd" clip-rule="evenodd" d="M8.53932 4.14271C10.2671 4.14271 11.6743 5.42646 11.6743 7.00271C11.6743 8.57896 10.2671 9.86271 8.54229 9.86271C6.81744 9.86271 5.40729 8.57896 5.40729 7.00271C5.40729 5.42646 6.81448 4.14271 8.54229 4.14271H8.53932ZM5.4726 7C5.4726 8.53833 6.85901 9.79771 8.53932 9.79771C10.2196 9.79771 11.606 8.53833 11.606 7C11.606 5.46167 10.2196 4.20229 8.53932 4.20229C6.85901 4.20229 5.4726 5.46167 5.4726 7Z" fill="#FFFF00" stroke="black" stroke-width="0.075" stroke-linecap="round" stroke-linejoin="round"/>
<path fill-rule="evenodd" clip-rule="evenodd" d="M8.54229 4.38104C9.30295 4.38318 10.0318 4.6598 10.5696 5.15048C11.1075 5.64117 11.4107 6.30607 11.4131 7C11.4107 7.69418 11.1076 8.35936 10.5698 8.85048C10.032 9.3416 9.30322 9.61881 8.54229 9.62166C6.96885 9.62166 5.67151 8.44083 5.67151 7C5.67463 6.30629 5.97809 5.6418 6.51579 5.15127C7.05349 4.66073 7.78187 4.38389 8.54229 4.38104ZM5.73979 7C5.73979 8.40833 7.00448 9.55667 8.54229 9.55667C10.0801 9.55667 11.3448 8.40562 11.3448 7C11.3448 5.59167 10.0801 4.44333 8.54229 4.44333C7.79998 4.44618 7.08897 4.71646 6.56408 5.19531C6.03918 5.67416 5.74292 6.32281 5.73979 7Z" fill="#FFFF00" stroke="black" stroke-width="0.075" stroke-linecap="round" stroke-linejoin="round"/>
<path fill-rule="evenodd" clip-rule="evenodd" d="M8.66994 4.12917H8.39978V9.87896H8.66697L8.66994 4.12917Z" fill="#FFFF00" stroke="black" stroke-width="0.075" stroke-linecap="round" stroke-linejoin="round"/>
<path fill-rule="evenodd" clip-rule="evenodd" d="M8.64023 4.09667H8.70852V9.91146H8.6432V4.09667H8.64023ZM8.37305 4.09667H8.4443V9.91146H8.37602L8.37305 4.09667Z" fill="#FFFF00" stroke="black" stroke-width="0.075" stroke-linecap="round" stroke-linejoin="round"/>
<path fill-rule="evenodd" clip-rule="evenodd" d="M11.6773 7.11375V6.9025L11.4873 6.74L10.4096 6.48L8.85996 6.33646L6.98964 6.42312L5.65964 6.71021L5.39246 6.89167V7.10562L6.0723 6.82667L7.6873 6.59646H9.23996L10.38 6.71021L11.1696 6.88354L11.6773 7.11375Z" fill="#FFFF00" stroke="black" stroke-width="0.075" stroke-linecap="round" stroke-linejoin="round"/>
<path fill-rule="evenodd" clip-rule="evenodd" d="M8.54229 6.56125C9.2815 6.56125 9.99697 6.62354 10.5699 6.72375C11.1578 6.83208 11.5704 6.9675 11.7129 7.11646V7.19229C11.5407 7.00271 10.9856 6.86729 10.5551 6.78604C9.99103 6.68854 9.27853 6.62354 8.53932 6.62354C7.76447 6.62354 7.0401 6.69396 6.48197 6.79146C6.03666 6.87271 5.43994 7.03521 5.36572 7.19229V7.11375C5.40432 7.00542 5.84963 6.84292 6.47307 6.72646C7.03416 6.62625 7.75853 6.56125 8.53932 6.56125H8.54229ZM8.54229 6.31479C9.22214 6.31355 9.90074 6.36793 10.5699 6.47729C11.1578 6.58563 11.5704 6.72104 11.7129 6.87271V6.94583C11.5407 6.75896 10.9856 6.62083 10.5551 6.54229C9.99103 6.44208 9.27853 6.37979 8.53932 6.37979C7.85031 6.3778 7.16258 6.43402 6.48494 6.54771C6.05447 6.62083 5.434 6.78875 5.36572 6.94583V6.87C5.40729 6.76167 5.85854 6.59104 6.47307 6.48271C7.03713 6.3825 7.75854 6.31479 8.54229 6.31479ZM8.52447 5.06354C9.69119 5.05813 10.7095 5.2125 11.1756 5.42917L11.3448 5.7C10.941 5.49958 9.8426 5.29375 8.52744 5.32083C7.45572 5.32896 6.30979 5.42917 5.73682 5.71083L5.93869 5.40208C6.41072 5.17729 7.52103 5.06354 8.52447 5.06354Z" fill="#FFFF00" stroke="black" stroke-width="0.075" stroke-linecap="round" stroke-linejoin="round"/>
<path fill-rule="evenodd" clip-rule="evenodd" d="M8.54231 5.28563C9.15148 5.27625 9.76039 5.31521 10.3622 5.40208C10.8372 5.48333 11.2914 5.6025 11.3567 5.6675L11.4072 5.74875C11.2498 5.65667 10.855 5.55104 10.3503 5.46438C9.8456 5.37771 9.20138 5.34792 8.53935 5.35063C7.78825 5.34792 7.20341 5.38313 6.70466 5.46438C6.36085 5.50833 6.02704 5.60253 5.71606 5.74333L5.76653 5.65938C5.94466 5.57813 6.22075 5.47792 6.68981 5.39938C7.20935 5.31271 7.80013 5.28833 8.54231 5.28563ZM8.54231 5.04188C9.17763 5.03646 9.807 5.06896 10.2968 5.15021C10.6142 5.19319 10.9213 5.28476 11.2053 5.42104L11.2795 5.52938C11.1548 5.40208 10.6858 5.28021 10.2672 5.21521C9.78028 5.13667 9.17763 5.10688 8.54231 5.10146C7.95092 5.09665 7.3601 5.13651 6.77591 5.22063C6.47045 5.25945 6.17377 5.34266 5.89716 5.46708L5.96247 5.37771C6.13466 5.29646 6.41372 5.22063 6.76403 5.15833C7.35207 5.07311 7.94694 5.03325 8.54231 5.03917V5.04188ZM10.0979 8.19167C9.58337 8.11039 9.06147 8.07412 8.53935 8.08333C6.59481 8.105 5.96841 8.44896 5.89122 8.55188L5.74278 8.33521C6.24153 8.01021 7.29841 7.82604 8.55122 7.84229C9.20138 7.85313 9.76247 7.89375 10.2315 7.97771L10.0979 8.19438" fill="#FFFF00"/>
<path d="M10.0979 8.19167C9.58337 8.11039 9.06147 8.07412 8.53935 8.08333C6.59481 8.105 5.96841 8.44896 5.89122 8.55188L5.74278 8.33521C6.24153 8.01021 7.29841 7.82604 8.55122 7.84229C9.20138 7.85313 9.76247 7.89375 10.2315 7.97771L10.0979 8.19438M8.54231 5.28563C9.15148 5.27625 9.76039 5.31521 10.3622 5.40208C10.8372 5.48333 11.2914 5.6025 11.3567 5.6675L11.4072 5.74875C11.2498 5.65667 10.855 5.55104 10.3503 5.46438C9.8456 5.37771 9.20138 5.34792 8.53935 5.35063C7.78825 5.34792 7.20341 5.38313 6.70466 5.46438C6.36085 5.50833 6.02704 5.60253 5.71606 5.74333L5.76653 5.65938C5.94466 5.57813 6.22075 5.47792 6.68981 5.39938C7.20935 5.31271 7.80013 5.28833 8.54231 5.28563ZM8.54231 5.04188C9.17763 5.03646 9.807 5.06896 10.2968 5.15021C10.6142 5.19319 10.9213 5.28476 11.2053 5.42104L11.2795 5.52938C11.1548 5.40208 10.6858 5.28021 10.2672 5.21521C9.78028 5.13667 9.17763 5.10688 8.54231 5.10146C7.95092 5.09665 7.3601 5.13651 6.77591 5.22063C6.47045 5.25945 6.17377 5.34266 5.89716 5.46708L5.96247 5.37771C6.13466 5.29646 6.41372 5.22063 6.76403 5.15833C7.35207 5.07311 7.94694 5.03325 8.54231 5.03917V5.04188Z" stroke="black" stroke-width="0.075" stroke-linecap="round" stroke-linejoin="round"/>
<path fill-rule="evenodd" clip-rule="evenodd" d="M8.5304 8.05354C9.07071 8.06167 9.59915 8.08063 10.1127 8.16729L10.0771 8.22687C9.60212 8.14562 9.09149 8.11854 8.53337 8.11854C7.81196 8.11312 7.08759 8.17542 6.45524 8.34063C6.25634 8.39208 5.92681 8.50854 5.89118 8.60604L5.85556 8.55187C5.86743 8.49229 6.06337 8.37312 6.43743 8.28104C7.16181 8.09146 7.83868 8.05625 8.5304 8.05354ZM8.55415 7.80438C9.12444 7.80384 9.69367 7.84916 10.2552 7.93979L10.2167 8.00208C9.66828 7.91032 9.11166 7.86588 8.55415 7.86938C7.83571 7.86938 7.07274 7.91813 6.37806 8.10229C6.1554 8.16188 5.76649 8.29188 5.75462 8.39208L5.71899 8.3325C5.72493 8.24042 6.0604 8.11854 6.36321 8.04C7.06087 7.85313 7.82681 7.80708 8.55415 7.80438Z" fill="#FFFF00" stroke="black" stroke-width="0.075" stroke-linecap="round" stroke-linejoin="round"/>
<path fill-rule="evenodd" clip-rule="evenodd" d="M11.3151 8.36771L11.0835 8.70083L10.4096 8.15646L8.66993 7.08667L6.70462 6.10354L5.68634 5.78667L5.90306 5.41833L5.97728 5.38313L6.60962 5.52667L8.69962 6.50979L9.90493 7.20313L10.9173 7.86667L11.3299 8.3L11.3151 8.36771Z" fill="#FFFF00" stroke="black" stroke-width="0.075" stroke-linecap="round" stroke-linejoin="round"/>
<path fill-rule="evenodd" clip-rule="evenodd" d="M5.65072 5.79479C5.82884 5.68646 7.14103 6.21729 8.51853 6.97562C9.88712 7.73396 11.1993 8.58979 11.0806 8.74958L11.042 8.80646L11.0242 8.82C11.0271 8.81729 11.0479 8.79292 11.0242 8.73604C10.9648 8.56 10.0326 7.88292 8.49181 7.0325C6.98665 6.21729 5.73384 5.72437 5.61212 5.86521L5.65072 5.79479ZM11.3626 8.365C11.4754 8.15917 10.2582 7.32229 8.74712 6.50708C7.20337 5.70812 6.08712 5.23687 5.88228 5.37771L5.84072 5.45625C5.84072 5.45896 5.84072 5.45083 5.85259 5.44271C5.88822 5.41562 5.95056 5.41562 5.97728 5.41562C6.32759 5.42104 7.32806 5.84083 8.73228 6.57479C9.34978 6.89979 11.3329 8.06437 11.324 8.38937C11.324 8.41646 11.327 8.42187 11.3151 8.43812L11.3656 8.36771L11.3626 8.365Z" fill="#FFFF00" stroke="black" stroke-width="0.075" stroke-linecap="round" stroke-linejoin="round"/>
<path d="M6.66125 7.3187C6.66172 7.54295 6.71095 7.76489 6.80607 7.97167C6.90119 8.17846 7.04033 8.36597 7.21542 8.52337C7.38838 8.68359 7.59439 8.811 7.82157 8.89826C8.04874 8.98552 8.2926 9.03091 8.53909 9.03182C9.03795 9.03178 9.51637 8.85097 9.8691 8.52915C10.0436 8.37088 10.1821 8.18273 10.2766 7.97551C10.3712 7.76828 10.4199 7.54605 10.4201 7.32159V5.03358L6.66125 5.0278V7.3187Z" fill="white" stroke="black" stroke-width="0.0933336"/>
<path d="M6.73724 7.32159C6.73791 7.5367 6.78527 7.74957 6.87658 7.9479C6.96789 8.14623 7.10134 8.32611 7.26925 8.47715C7.60639 8.78633 8.06421 8.96087 8.54225 8.96248C9.01945 8.96272 9.47727 8.79026 9.81525 8.48293C9.98258 8.33165 10.1155 8.15167 10.2062 7.95334C10.297 7.75502 10.3438 7.54228 10.3441 7.32737V5.10291H6.73724V7.32159ZM9.61892 5.77025V7.18292L9.61575 7.33025C9.61682 7.45931 9.58932 7.58724 9.53491 7.70638C9.4805 7.82551 9.40029 7.93341 9.29908 8.02359C9.09771 8.20794 8.82437 8.31184 8.53908 8.31248C8.24141 8.31248 7.97858 8.19692 7.78225 8.01781C7.58017 7.8341 7.46628 7.58474 7.46558 7.32448V5.76447L9.61892 5.77025Z" fill="#FF0000" stroke="black" stroke-width="0.0666669"/>
<path d="M6.96527 5.68358C6.96844 5.52469 7.09194 5.48714 7.09194 5.48714C7.0951 5.48714 7.22811 5.52758 7.22811 5.68647L6.96527 5.68358Z" fill="#FFFF00"/>
<path d="M6.85761 5.49003L6.83545 5.67203H6.96845C6.96845 5.5218 7.09511 5.49869 7.09511 5.49869C7.09828 5.49869 7.22178 5.53047 7.22495 5.67203H7.35795L7.33261 5.48714L6.85761 5.49003ZM6.82595 5.67492H7.36428C7.37378 5.67492 7.38328 5.68358 7.38328 5.69514C7.38328 5.70958 7.37378 5.71825 7.36428 5.71825H6.82595C6.81645 5.71825 6.80695 5.70958 6.80695 5.69514C6.80695 5.68358 6.81645 5.67492 6.82911 5.67492H6.82595Z" fill="#FFFF00" stroke="black" stroke-width="0.0666669"/>
<path d="M7.02231 5.67203C7.02231 5.57669 7.09514 5.55069 7.09514 5.55069C7.09514 5.55069 7.16798 5.57958 7.16798 5.67203H7.02231ZM6.83864 5.41203H7.35481C7.36431 5.41203 7.37381 5.42358 7.37381 5.43514C7.37381 5.4438 7.36431 5.45247 7.35481 5.45247H6.83864C6.82914 5.45247 6.81964 5.4438 6.81964 5.43225C6.81964 5.42358 6.82914 5.41492 6.83864 5.41492V5.41203ZM6.85131 5.45536H7.33898C7.34848 5.45536 7.35798 5.46403 7.35798 5.47558C7.35798 5.48714 7.34848 5.4958 7.33898 5.4958H6.84814C6.83547 5.4958 6.82914 5.48714 6.82914 5.47558C6.82914 5.46403 6.83547 5.45536 6.84814 5.45536H6.85131ZM7.00964 5.14914H7.04764V5.17225H7.07614V5.14914H7.11731V5.17514H7.14581V5.14625H7.18381V5.20403C7.18381 5.21558 7.17748 5.22136 7.16798 5.22136H7.02864C7.01914 5.22136 7.00964 5.21558 7.00964 5.20691V5.14914ZM7.15531 5.22714L7.16481 5.41203H7.02864L7.03814 5.22425H7.15531" fill="#FFFF00"/>
<path d="M7.15531 5.22714L7.16481 5.41203H7.02864L7.03814 5.22425H7.15531M7.02231 5.67203C7.02231 5.57669 7.09514 5.55069 7.09514 5.55069C7.09514 5.55069 7.16798 5.57958 7.16798 5.67203H7.02231ZM6.83864 5.41203H7.35481C7.36431 5.41203 7.37381 5.42358 7.37381 5.43514C7.37381 5.4438 7.36431 5.45247 7.35481 5.45247H6.83864C6.82914 5.45247 6.81964 5.4438 6.81964 5.43225C6.81964 5.42358 6.82914 5.41492 6.83864 5.41492V5.41203ZM6.85131 5.45536H7.33898C7.34848 5.45536 7.35798 5.46403 7.35798 5.47558C7.35798 5.48714 7.34848 5.4958 7.33898 5.4958H6.84814C6.83547 5.4958 6.82914 5.48714 6.82914 5.47558C6.82914 5.46403 6.83547 5.45536 6.84814 5.45536H6.85131ZM7.00964 5.14914H7.04764V5.17225H7.07614V5.14914H7.11731V5.17514H7.14581V5.14625H7.18381V5.20403C7.18381 5.21558 7.17748 5.22136 7.16798 5.22136H7.02864C7.01914 5.22136 7.00964 5.21558 7.00964 5.20691V5.14914Z" stroke="black" stroke-width="0.0666669"/>
<path d="M6.99062 5.3138V5.41203H6.86395V5.3138H6.99062Z" fill="#FFFF00" stroke="black" stroke-width="0.0666669"/>
<path d="M7.32625 5.3138V5.41203H7.19958V5.3138H7.32625Z" fill="#FFFF00" stroke="black" stroke-width="0.0666669"/>
<path d="M6.8418 5.23869H6.8798V5.26758H6.9083V5.23869H6.9463V5.26758H6.9748V5.23869H7.0128V5.29647C7.0128 5.30803 7.00646 5.3138 6.99696 5.3138H6.8608C6.85576 5.3138 6.85093 5.31198 6.84736 5.30873C6.8438 5.30548 6.8418 5.30107 6.8418 5.29647V5.23869Z" fill="#FFFF00" stroke="black" stroke-width="0.0666669"/>
<path d="M7.17743 5.23869H7.21543V5.26758H7.24393V5.23869H7.28193V5.26758H7.31043V5.23869H7.34843V5.29647C7.34843 5.30803 7.3421 5.3138 7.3326 5.3138H7.19643C7.19139 5.3138 7.18656 5.31198 7.18299 5.30873C7.17943 5.30548 7.17743 5.30107 7.17743 5.29647V5.23869Z" fill="#FFFF00" stroke="black" stroke-width="0.0666669"/>
<path d="M7.08246 5.28492C7.08246 5.26758 7.11096 5.26758 7.11096 5.28492V5.33114H7.08246V5.28492Z" fill="#000001"/>
<path d="M6.91461 5.34847C6.91461 5.33114 6.93994 5.33114 6.93994 5.34847V5.38314H6.91461V5.34847Z" fill="#000001"/>
<path d="M7.25031 5.34847C7.25031 5.33114 7.27564 5.33114 7.27564 5.34847V5.38314H7.25031V5.34847Z" fill="#000001"/>
<path d="M6.96527 7.02114C6.96844 6.86225 7.09194 6.8247 7.09194 6.8247C7.0951 6.8247 7.22811 6.86514 7.22811 7.02403L6.96527 7.02114Z" fill="#FFFF00"/>
<path d="M6.85761 6.82759L6.83545 7.00959H6.96845C6.96845 6.85936 7.09511 6.83625 7.09511 6.83625C7.09828 6.83625 7.22178 6.86803 7.22495 7.00959H7.35795L7.33261 6.8247L6.85761 6.82759ZM6.82595 7.01248H7.36428C7.37378 7.01248 7.38328 7.02114 7.38328 7.0327C7.38328 7.04714 7.37378 7.05581 7.36428 7.05581H6.82595C6.81645 7.05581 6.80695 7.04714 6.80695 7.0327C6.80695 7.02114 6.81645 7.01248 6.82911 7.01248H6.82595Z" fill="#FFFF00" stroke="black" stroke-width="0.0666669"/>
<path d="M7.02231 7.00959C7.02231 6.91425 7.09514 6.88825 7.09514 6.88825C7.09514 6.88825 7.16798 6.91714 7.16798 7.00959H7.02231ZM6.83864 6.74959H7.35481C7.36431 6.74959 7.37381 6.76114 7.37381 6.7727C7.37381 6.78136 7.36431 6.79003 7.35481 6.79003H6.83864C6.82914 6.79003 6.81964 6.78136 6.81964 6.76981C6.81964 6.76114 6.82914 6.75247 6.83864 6.75247V6.74959ZM6.85131 6.79292H7.33898C7.34848 6.79292 7.35798 6.80159 7.35798 6.81314C7.35798 6.8247 7.34848 6.83336 7.33898 6.83336H6.84814C6.83547 6.83336 6.82914 6.8247 6.82914 6.81314C6.82914 6.80159 6.83547 6.79292 6.84814 6.79292H6.85131ZM7.00964 6.4867H7.04764V6.50981H7.07614V6.4867H7.11731V6.5127H7.14581V6.48381H7.18381V6.54158C7.18381 6.55314 7.17748 6.55892 7.16798 6.55892H7.02864C7.01914 6.55892 7.00964 6.55314 7.00964 6.54447V6.4867ZM7.15531 6.5647L7.16481 6.74959H7.02864L7.03814 6.56181H7.15531" fill="#FFFF00"/>
<path d="M7.15531 6.5647L7.16481 6.74959H7.02864L7.03814 6.56181H7.15531M7.02231 7.00959C7.02231 6.91425 7.09514 6.88825 7.09514 6.88825C7.09514 6.88825 7.16798 6.91714 7.16798 7.00959H7.02231ZM6.83864 6.74959H7.35481C7.36431 6.74959 7.37381 6.76114 7.37381 6.7727C7.37381 6.78136 7.36431 6.79003 7.35481 6.79003H6.83864C6.82914 6.79003 6.81964 6.78136 6.81964 6.76981C6.81964 6.76114 6.82914 6.75247 6.83864 6.75247V6.74959ZM6.85131 6.79292H7.33898C7.34848 6.79292 7.35798 6.80159 7.35798 6.81314C7.35798 6.8247 7.34848 6.83336 7.33898 6.83336H6.84814C6.83547 6.83336 6.82914 6.8247 6.82914 6.81314C6.82914 6.80159 6.83547 6.79292 6.84814 6.79292H6.85131ZM7.00964 6.4867H7.04764V6.50981H7.07614V6.4867H7.11731V6.5127H7.14581V6.48381H7.18381V6.54158C7.18381 6.55314 7.17748 6.55892 7.16798 6.55892H7.02864C7.01914 6.55892 7.00964 6.55314 7.00964 6.54447V6.4867Z" stroke="black" stroke-width="0.0666669"/>
<path d="M6.99062 6.65136V6.74959H6.86395V6.65136H6.99062Z" fill="#FFFF00" stroke="black" stroke-width="0.0666669"/>
<path d="M7.32625 6.65136V6.74959H7.19958V6.65136H7.32625Z" fill="#FFFF00" stroke="black" stroke-width="0.0666669"/>
<path d="M6.8418 6.57625H6.8798V6.60514H6.9083V6.57625H6.9463V6.60514H6.9748V6.57625H7.0128V6.63403C7.0128 6.64559 7.00646 6.65136 6.99696 6.65136H6.8608C6.85576 6.65136 6.85093 6.64954 6.84736 6.64629C6.8438 6.64304 6.8418 6.63863 6.8418 6.63403V6.57625Z" fill="#FFFF00" stroke="black" stroke-width="0.0666669"/>
<path d="M7.17743 6.57625H7.21543V6.60514H7.24393V6.57625H7.28193V6.60514H7.31043V6.57625H7.34843V6.63403C7.34843 6.64559 7.3421 6.65136 7.3326 6.65136H7.19643C7.19139 6.65136 7.18656 6.64954 7.18299 6.64629C7.17943 6.64304 7.17743 6.63863 7.17743 6.63403V6.57625Z" fill="#FFFF00" stroke="black" stroke-width="0.0666669"/>
<path d="M7.08246 6.62247C7.08246 6.60514 7.11096 6.60514 7.11096 6.62247V6.6687H7.08246V6.62247Z" fill="#000001"/>
<path d="M6.91461 6.68603C6.91461 6.6687 6.93994 6.6687 6.93994 6.68603V6.7207H6.91461V6.68603Z" fill="#000001"/>
<path d="M7.25031 6.68603C7.25031 6.6687 7.27564 6.6687 7.27564 6.68603V6.7207H7.25031V6.68603Z" fill="#000001"/>
<path d="M7.53671 8.41517C7.4154 8.3012 7.47325 8.19478 7.47325 8.19478C7.47548 8.19273 7.60067 8.1351 7.72422 8.24702L7.53671 8.41517Z" fill="#FFFF00"/>
<path d="M7.31035 8.34855L7.43623 8.49109L7.52996 8.40497C7.41317 8.29917 7.48448 8.20088 7.48448 8.20088C7.48671 8.19883 7.59845 8.14125 7.71074 8.2389L7.80447 8.15279L7.64288 8.03897L7.31035 8.34855ZM7.43178 8.49927L7.81118 8.15072C7.81788 8.14457 7.83131 8.14453 7.8403 8.15267C7.85153 8.16284 7.85157 8.17509 7.84487 8.18124L7.46547 8.52979C7.45877 8.53594 7.44534 8.53599 7.43411 8.52582C7.42513 8.51768 7.42508 8.50542 7.43401 8.49722L7.43178 8.49927Z" fill="#FFFF00" stroke="black" stroke-width="0.0666669"/>
<path d="M7.56785 8.37009C7.49372 8.30294 7.52484 8.23746 7.52484 8.23746C7.52484 8.23746 7.59864 8.21065 7.67053 8.27576L7.56785 8.37009ZM7.23622 8.30587L7.60005 7.97163C7.60675 7.96548 7.62243 7.96747 7.63142 7.97561C7.63815 7.98172 7.6382 7.99397 7.6315 8.00012L7.26767 8.33436C7.26098 8.34051 7.24754 8.34056 7.23856 8.33242C7.23182 8.32632 7.23177 8.31406 7.23847 8.30791L7.23622 8.30587ZM7.27885 8.3282L7.62259 8.01241C7.62928 8.00626 7.64272 8.00621 7.6517 8.01435C7.66069 8.02249 7.66073 8.03475 7.65403 8.0409L7.30806 8.35874C7.29913 8.36694 7.28793 8.36493 7.27895 8.35679C7.26996 8.34865 7.26769 8.33845 7.27661 8.33025L7.27885 8.3282ZM7.15235 8.00996L7.17913 7.98535L7.1971 8.00163L7.21719 7.98318L7.19922 7.9669L7.22824 7.94024L7.24845 7.95856L7.26854 7.9401L7.24608 7.91975L7.27286 7.89515L7.31779 7.93585C7.32677 7.94399 7.3268 7.95216 7.32011 7.95831L7.22189 8.04853C7.2152 8.05468 7.20401 8.05677 7.19727 8.05066L7.15235 8.00996ZM7.31567 7.97058L7.46613 8.09467L7.37015 8.18284L7.23084 8.04442L7.31342 7.96855" fill="#FFFF00"/>
<path d="M7.31567 7.97058L7.46613 8.09467L7.37015 8.18284L7.23084 8.04442L7.31342 7.96855M7.56785 8.37009C7.49372 8.30294 7.52484 8.23746 7.52484 8.23746C7.52484 8.23746 7.59864 8.21065 7.67053 8.27576L7.56785 8.37009ZM7.23622 8.30587L7.60005 7.97163C7.60675 7.96548 7.62243 7.96747 7.63142 7.97561C7.63815 7.98172 7.6382 7.99397 7.6315 8.00012L7.26767 8.33436C7.26098 8.34051 7.24754 8.34056 7.23856 8.33242C7.23182 8.32632 7.23177 8.31406 7.23847 8.30791L7.23622 8.30587ZM7.27885 8.3282L7.62259 8.01241C7.62928 8.00626 7.64272 8.00621 7.6517 8.01435C7.66069 8.02249 7.66073 8.03475 7.65403 8.0409L7.30806 8.35874C7.29913 8.36694 7.28793 8.36493 7.27895 8.35679C7.26996 8.34865 7.26769 8.33845 7.27661 8.33025L7.27885 8.3282ZM7.15235 8.00996L7.17913 7.98535L7.1971 8.00163L7.21719 7.98318L7.19922 7.9669L7.22824 7.94024L7.24845 7.95856L7.26854 7.9401L7.24608 7.91975L7.27286 7.89515L7.31779 7.93585C7.32677 7.94399 7.3268 7.95216 7.32011 7.95831L7.22189 8.04853C7.2152 8.05468 7.20401 8.05677 7.19727 8.05066L7.15235 8.00996Z" stroke="black" stroke-width="0.0666669"/>
<path d="M7.26701 8.13821L7.34339 8.2074L7.25411 8.28942L7.17773 8.22023L7.26701 8.13821Z" fill="#FFFF00" stroke="black" stroke-width="0.0666669"/>
<path d="M7.50353 7.92093L7.5799 7.99011L7.49062 8.07213L7.41425 8.00295L7.50353 7.92093Z" fill="#FFFF00" stroke="black" stroke-width="0.0666669"/>
<path d="M7.1037 8.18166L7.13048 8.15705L7.15294 8.1774L7.17303 8.15895L7.15057 8.1386L7.17735 8.114L7.19981 8.13434L7.2199 8.11589L7.19743 8.09554L7.22422 8.07094L7.26914 8.11163C7.27812 8.11977 7.27815 8.12794 7.27145 8.13409L7.17549 8.22226C7.17193 8.22552 7.16711 8.22736 7.16207 8.22738C7.15703 8.2274 7.15219 8.22559 7.14862 8.22235L7.1037 8.18166Z" fill="#FFFF00" stroke="black" stroke-width="0.0666669"/>
<path d="M7.34021 7.96437L7.36699 7.93977L7.38945 7.96011L7.40954 7.94166L7.38708 7.92131L7.41386 7.89671L7.43632 7.91706L7.45641 7.8986L7.43395 7.87826L7.46073 7.85365L7.50565 7.89435C7.51463 7.90249 7.51466 7.91066 7.50797 7.91681L7.412 8.00497C7.40845 8.00823 7.40362 8.01008 7.39858 8.01009C7.39354 8.01011 7.3887 8.0083 7.38513 8.00506L7.34021 7.96437Z" fill="#FFFF00" stroke="black" stroke-width="0.0666669"/>
<path d="M7.30924 8.05842C7.29576 8.04621 7.31585 8.02775 7.32933 8.03996L7.36528 8.07252L7.34519 8.09098L7.30924 8.05842Z" fill="#000001"/>
<path d="M7.24039 8.21184C7.22692 8.19963 7.24477 8.18323 7.25825 8.19544L7.28521 8.21986L7.26735 8.23627L7.24039 8.21184Z" fill="#000001"/>
<path d="M7.47691 7.99456C7.46343 7.98235 7.48129 7.96594 7.49476 7.97815L7.52172 8.00257L7.50386 8.01898L7.47691 7.99456Z" fill="#000001"/>
<path d="M8.41241 5.68358C8.41558 5.52469 8.53908 5.48714 8.53908 5.48714C8.54225 5.48714 8.67525 5.52758 8.67525 5.68647L8.41241 5.68358Z" fill="#FFFF00"/>
<path d="M8.30476 5.49003L8.28259 5.67203H8.41559C8.41559 5.5218 8.54226 5.49869 8.54226 5.49869C8.54542 5.49869 8.66892 5.53047 8.67209 5.67203H8.80509L8.77976 5.48714L8.30476 5.49003ZM8.27309 5.67492H8.81142C8.82092 5.67492 8.83042 5.68358 8.83042 5.69514C8.83042 5.70958 8.82092 5.71825 8.81142 5.71825H8.27309C8.26359 5.71825 8.25409 5.70958 8.25409 5.69514C8.25409 5.68358 8.26359 5.67492 8.27626 5.67492H8.27309Z" fill="#FFFF00" stroke="black" stroke-width="0.0666669"/>
<path d="M8.46945 5.67203C8.46945 5.57669 8.54229 5.55069 8.54229 5.55069C8.54229 5.55069 8.61512 5.57958 8.61512 5.67203H8.46945ZM8.28578 5.41203H8.80195C8.81145 5.41203 8.82095 5.42358 8.82095 5.43514C8.82095 5.4438 8.81145 5.45247 8.80195 5.45247H8.28578C8.27628 5.45247 8.26678 5.4438 8.26678 5.43225C8.26678 5.42358 8.27628 5.41492 8.28578 5.41492V5.41203ZM8.29845 5.45536H8.78612C8.79562 5.45536 8.80512 5.46403 8.80512 5.47558C8.80512 5.48714 8.79562 5.4958 8.78612 5.4958H8.29528C8.28262 5.4958 8.27628 5.48714 8.27628 5.47558C8.27628 5.46403 8.28262 5.45536 8.29528 5.45536H8.29845ZM8.45679 5.14914H8.49479V5.17225H8.52329V5.14914H8.56445V5.17514H8.59295V5.14625H8.63095V5.20403C8.63095 5.21558 8.62462 5.22136 8.61512 5.22136H8.47579C8.46629 5.22136 8.45679 5.21558 8.45679 5.20691V5.14914ZM8.60245 5.22714L8.61195 5.41203H8.47579L8.48529 5.22425H8.60245" fill="#FFFF00"/>
<path d="M8.60245 5.22714L8.61195 5.41203H8.47579L8.48529 5.22425H8.60245M8.46945 5.67203C8.46945 5.57669 8.54229 5.55069 8.54229 5.55069C8.54229 5.55069 8.61512 5.57958 8.61512 5.67203H8.46945ZM8.28578 5.41203H8.80195C8.81145 5.41203 8.82095 5.42358 8.82095 5.43514C8.82095 5.4438 8.81145 5.45247 8.80195 5.45247H8.28578C8.27628 5.45247 8.26678 5.4438 8.26678 5.43225C8.26678 5.42358 8.27628 5.41492 8.28578 5.41492V5.41203ZM8.29845 5.45536H8.78612C8.79562 5.45536 8.80512 5.46403 8.80512 5.47558C8.80512 5.48714 8.79562 5.4958 8.78612 5.4958H8.29528C8.28262 5.4958 8.27628 5.48714 8.27628 5.47558C8.27628 5.46403 8.28262 5.45536 8.29528 5.45536H8.29845ZM8.45679 5.14914H8.49479V5.17225H8.52329V5.14914H8.56445V5.17514H8.59295V5.14625H8.63095V5.20403C8.63095 5.21558 8.62462 5.22136 8.61512 5.22136H8.47579C8.46629 5.22136 8.45679 5.21558 8.45679 5.20691V5.14914Z" stroke="black" stroke-width="0.0666669"/>
<path d="M8.43776 5.3138V5.41203H8.3111V5.3138H8.43776Z" fill="#FFFF00" stroke="black" stroke-width="0.0666669"/>
<path d="M8.7734 5.3138V5.41203H8.64673V5.3138H8.7734Z" fill="#FFFF00" stroke="black" stroke-width="0.0666669"/>
<path d="M8.28894 5.23869H8.32694V5.26758H8.35544V5.23869H8.39344V5.26758H8.42194V5.23869H8.45994V5.29647C8.45994 5.30803 8.45361 5.3138 8.44411 5.3138H8.30794C8.3029 5.3138 8.29807 5.31198 8.29451 5.30873C8.29094 5.30548 8.28894 5.30107 8.28894 5.29647V5.23869Z" fill="#FFFF00" stroke="black" stroke-width="0.0666669"/>
<path d="M8.62457 5.23869H8.66257V5.26758H8.69107V5.23869H8.72907V5.26758H8.75757V5.23869H8.79557V5.29647C8.79557 5.30803 8.78924 5.3138 8.77974 5.3138H8.64357C8.63853 5.3138 8.6337 5.31198 8.63014 5.30873C8.62657 5.30548 8.62457 5.30107 8.62457 5.29647V5.23869Z" fill="#FFFF00" stroke="black" stroke-width="0.0666669"/>
<path d="M8.5296 5.28492C8.5296 5.26758 8.5581 5.26758 8.5581 5.28492V5.33114H8.5296V5.28492Z" fill="#000001"/>
<path d="M8.36176 5.34847C8.36176 5.33114 8.38709 5.33114 8.38709 5.34847V5.38314H8.36176V5.34847Z" fill="#000001"/>
<path d="M8.69745 5.34847C8.69745 5.33114 8.72278 5.33114 8.72278 5.34847V5.38314H8.69745V5.34847Z" fill="#000001"/>
<path d="M10.1129 5.68358C10.1097 5.52469 9.98625 5.48714 9.98625 5.48714C9.98308 5.48714 9.85008 5.52758 9.85008 5.68647L10.1129 5.68358Z" fill="#FFFF00"/>
<path d="M10.2206 5.49003L10.2427 5.67203H10.1097C10.1097 5.5218 9.98307 5.49869 9.98307 5.49869C9.97991 5.49869 9.85641 5.53047 9.85324 5.67203H9.72024L9.74557 5.48714L10.2206 5.49003ZM10.2522 5.67492H9.7139C9.7044 5.67492 9.69491 5.68358 9.69491 5.69514C9.69491 5.70958 9.7044 5.71825 9.7139 5.71825H10.2522C10.2617 5.71825 10.2712 5.70958 10.2712 5.69514C10.2712 5.68358 10.2617 5.67492 10.2491 5.67492H10.2522Z" fill="#FFFF00" stroke="black" stroke-width="0.0666669"/>
<path d="M10.0559 5.67203C10.0559 5.57669 9.98311 5.55069 9.98311 5.55069C9.98311 5.55069 9.91027 5.57958 9.91027 5.67203H10.0559ZM10.2396 5.41203H9.72344C9.71394 5.41203 9.70444 5.42358 9.70444 5.43514C9.70444 5.4438 9.71394 5.45247 9.72344 5.45247H10.2396C10.2491 5.45247 10.2586 5.4438 10.2586 5.43225C10.2586 5.42358 10.2491 5.41492 10.2396 5.41492V5.41203ZM10.2269 5.45536H9.73927C9.72977 5.45536 9.72027 5.46403 9.72027 5.47558C9.72027 5.48714 9.72977 5.4958 9.73927 5.4958H10.2301C10.2428 5.4958 10.2491 5.48714 10.2491 5.47558C10.2491 5.46403 10.2428 5.45536 10.2301 5.45536H10.2269ZM10.0686 5.14914H10.0306V5.17225H10.0021V5.14914H9.96094V5.17514H9.93244V5.14625H9.89444V5.20403C9.89444 5.21558 9.90077 5.22136 9.91027 5.22136H10.0496C10.0591 5.22136 10.0686 5.21558 10.0686 5.20691V5.14914ZM9.92294 5.22714L9.91344 5.41203H10.0496L10.0401 5.22425H9.92294" fill="#FFFF00"/>
<path d="M9.92294 5.22714L9.91344 5.41203H10.0496L10.0401 5.22425H9.92294M10.0559 5.67203C10.0559 5.57669 9.98311 5.55069 9.98311 5.55069C9.98311 5.55069 9.91027 5.57958 9.91027 5.67203H10.0559ZM10.2396 5.41203H9.72344C9.71394 5.41203 9.70444 5.42358 9.70444 5.43514C9.70444 5.4438 9.71394 5.45247 9.72344 5.45247H10.2396C10.2491 5.45247 10.2586 5.4438 10.2586 5.43225C10.2586 5.42358 10.2491 5.41492 10.2396 5.41492V5.41203ZM10.2269 5.45536H9.73927C9.72977 5.45536 9.72027 5.46403 9.72027 5.47558C9.72027 5.48714 9.72977 5.4958 9.73927 5.4958H10.2301C10.2428 5.4958 10.2491 5.48714 10.2491 5.47558C10.2491 5.46403 10.2428 5.45536 10.2301 5.45536H10.2269ZM10.0686 5.14914H10.0306V5.17225H10.0021V5.14914H9.96094V5.17514H9.93244V5.14625H9.89444V5.20403C9.89444 5.21558 9.90077 5.22136 9.91027 5.22136H10.0496C10.0591 5.22136 10.0686 5.21558 10.0686 5.20691V5.14914Z" stroke="black" stroke-width="0.0666669"/>
<path d="M10.0876 5.3138V5.41203H10.2142V5.3138H10.0876Z" fill="#FFFF00" stroke="black" stroke-width="0.0666669"/>
<path d="M9.75193 5.3138V5.41203H9.8786V5.3138H9.75193Z" fill="#FFFF00" stroke="black" stroke-width="0.0666669"/>
<path d="M10.2365 5.23869H10.1985V5.26758H10.17V5.23869H10.1319V5.26758H10.1034V5.23869H10.0654V5.29647C10.0654 5.30803 10.0718 5.3138 10.0813 5.3138H10.2175C10.2225 5.3138 10.2273 5.31198 10.2309 5.30873C10.2344 5.30548 10.2365 5.30107 10.2365 5.29647V5.23869Z" fill="#FFFF00" stroke="black" stroke-width="0.0666669"/>
<path d="M9.90076 5.23869H9.86276V5.26758H9.83426V5.23869H9.79626V5.26758H9.76776V5.23869H9.72976V5.29647C9.72976 5.30803 9.73609 5.3138 9.74559 5.3138H9.88176C9.8868 5.3138 9.89163 5.31198 9.89519 5.30873C9.89876 5.30548 9.90076 5.30107 9.90076 5.29647V5.23869Z" fill="#FFFF00" stroke="black" stroke-width="0.0666669"/>
<path d="M9.99573 5.28492C9.99573 5.26758 9.96723 5.26758 9.96723 5.28492V5.33114H9.99573V5.28492Z" fill="#000001"/>
<path d="M10.1636 5.34847C10.1636 5.33114 10.1382 5.33114 10.1382 5.34847V5.38314H10.1636V5.34847Z" fill="#000001"/>
<path d="M9.82794 5.34847C9.82794 5.33114 9.80261 5.33114 9.80261 5.34847V5.38314H9.82794V5.34847Z" fill="#000001"/>
<path d="M10.1129 7.02114C10.1097 6.86225 9.98625 6.8247 9.98625 6.8247C9.98308 6.8247 9.85008 6.86514 9.85008 7.02403L10.1129 7.02114Z" fill="#FFFF00"/>
<path d="M10.2206 6.82759L10.2427 7.00959H10.1097C10.1097 6.85936 9.98307 6.83625 9.98307 6.83625C9.97991 6.83625 9.85641 6.86803 9.85324 7.00959H9.72024L9.74557 6.8247L10.2206 6.82759ZM10.2522 7.01248H9.7139C9.7044 7.01248 9.69491 7.02114 9.69491 7.0327C9.69491 7.04714 9.7044 7.05581 9.7139 7.05581H10.2522C10.2617 7.05581 10.2712 7.04714 10.2712 7.0327C10.2712 7.02114 10.2617 7.01248 10.2491 7.01248H10.2522Z" fill="#FFFF00" stroke="black" stroke-width="0.0666669"/>
<path d="M10.0559 7.00959C10.0559 6.91425 9.98304 6.88825 9.98304 6.88825C9.98304 6.88825 9.91021 6.91714 9.91021 7.00959H10.0559ZM10.2395 6.74959H9.72338C9.71388 6.74959 9.70438 6.76114 9.70438 6.7727C9.70438 6.78136 9.71388 6.79003 9.72338 6.79003H10.2395C10.249 6.79003 10.2585 6.78136 10.2585 6.76981C10.2585 6.76114 10.249 6.75247 10.2395 6.75247V6.74959ZM10.2269 6.79292H9.73921C9.72971 6.79292 9.72021 6.80159 9.72021 6.81314C9.72021 6.8247 9.72971 6.83336 9.73921 6.83336H10.23C10.2427 6.83336 10.249 6.8247 10.249 6.81314C10.249 6.80159 10.2427 6.79292 10.23 6.79292H10.2269ZM10.0685 6.4867H10.0305V6.50981H10.002V6.4867H9.96088V6.5127H9.93238V6.48381H9.89438V6.54158C9.89438 6.55314 9.90071 6.55892 9.91021 6.55892H10.0495C10.059 6.55892 10.0685 6.55314 10.0685 6.54447V6.4867ZM9.92288 6.5647L9.91338 6.74959H10.0495L10.04 6.56181H9.92288" fill="#FFFF00"/>
<path d="M9.92288 6.5647L9.91338 6.74959H10.0495L10.04 6.56181H9.92288M10.0559 7.00959C10.0559 6.91425 9.98304 6.88825 9.98304 6.88825C9.98304 6.88825 9.91021 6.91714 9.91021 7.00959H10.0559ZM10.2395 6.74959H9.72338C9.71388 6.74959 9.70438 6.76114 9.70438 6.7727C9.70438 6.78136 9.71388 6.79003 9.72338 6.79003H10.2395C10.249 6.79003 10.2585 6.78136 10.2585 6.76981C10.2585 6.76114 10.249 6.75247 10.2395 6.75247V6.74959ZM10.2269 6.79292H9.73921C9.72971 6.79292 9.72021 6.80159 9.72021 6.81314C9.72021 6.8247 9.72971 6.83336 9.73921 6.83336H10.23C10.2427 6.83336 10.249 6.8247 10.249 6.81314C10.249 6.80159 10.2427 6.79292 10.23 6.79292H10.2269ZM10.0685 6.4867H10.0305V6.50981H10.002V6.4867H9.96088V6.5127H9.93238V6.48381H9.89438V6.54158C9.89438 6.55314 9.90071 6.55892 9.91021 6.55892H10.0495C10.059 6.55892 10.0685 6.55314 10.0685 6.54447V6.4867Z" stroke="black" stroke-width="0.0666669"/>
<path d="M10.0876 6.65136V6.74959H10.2142V6.65136H10.0876Z" fill="#FFFF00" stroke="black" stroke-width="0.0666669"/>
<path d="M9.75193 6.65136V6.74959H9.8786V6.65136H9.75193Z" fill="#FFFF00" stroke="black" stroke-width="0.0666669"/>
<path d="M10.2364 6.57625H10.1984V6.60514H10.1699V6.57625H10.1319V6.60514H10.1034V6.57625H10.0654V6.63403C10.0654 6.64559 10.0717 6.65136 10.0812 6.65136H10.2174C10.2224 6.65136 10.2273 6.64954 10.2308 6.64629C10.2344 6.64304 10.2364 6.63863 10.2364 6.63403V6.57625Z" fill="#FFFF00" stroke="black" stroke-width="0.0666669"/>
<path d="M9.90076 6.57625H9.86276V6.60514H9.83426V6.57625H9.79626V6.60514H9.76776V6.57625H9.72976V6.63403C9.72976 6.64559 9.73609 6.65136 9.74559 6.65136H9.88176C9.8868 6.65136 9.89163 6.64954 9.89519 6.64629C9.89876 6.64304 9.90076 6.63863 9.90076 6.63403V6.57625Z" fill="#FFFF00" stroke="black" stroke-width="0.0666669"/>
<path d="M9.99573 6.62247C9.99573 6.60514 9.96723 6.60514 9.96723 6.62247V6.6687H9.99573V6.62247Z" fill="#000001"/>
<path d="M10.1636 6.68603C10.1636 6.6687 10.1382 6.6687 10.1382 6.68603V6.7207H10.1636V6.68603Z" fill="#000001"/>
<path d="M9.82788 6.68603C9.82788 6.6687 9.80255 6.6687 9.80255 6.68603V6.7207H9.82788V6.68603Z" fill="#000001"/>
<path d="M9.54147 8.41517C9.66278 8.3012 9.60493 8.19478 9.60493 8.19478C9.6027 8.19273 9.47751 8.1351 9.35397 8.24702L9.54147 8.41517Z" fill="#FFFF00"/>
<path d="M9.76783 8.34855L9.64196 8.49109L9.54822 8.40497C9.66501 8.29917 9.59371 8.20088 9.59371 8.20088C9.59148 8.19883 9.47973 8.14125 9.36745 8.2389L9.27371 8.15279L9.43531 8.03897L9.76783 8.34855ZM9.64641 8.49927L9.267 8.15072C9.26031 8.14457 9.24687 8.14453 9.23789 8.15267C9.22666 8.16284 9.22662 8.17509 9.23331 8.18124L9.61272 8.52979C9.61941 8.53594 9.63285 8.53599 9.64408 8.52582C9.65306 8.51768 9.6531 8.50542 9.64417 8.49722L9.64641 8.49927Z" fill="#FFFF00" stroke="black" stroke-width="0.0666669"/>
<path d="M9.51034 8.37009C9.58446 8.30294 9.55334 8.23746 9.55334 8.23746C9.55334 8.23746 9.47954 8.21065 9.40766 8.27576L9.51034 8.37009ZM9.84196 8.30587L9.47813 7.97163C9.47144 7.96548 9.45576 7.96747 9.44677 7.97561C9.44003 7.98172 9.43999 7.99397 9.44669 8.00012L9.81051 8.33436C9.81721 8.34051 9.83065 8.34056 9.83963 8.33242C9.84637 8.32632 9.84641 8.31406 9.83972 8.30791L9.84196 8.30587ZM9.79934 8.3282L9.4556 8.01241C9.4489 8.00626 9.43547 8.00621 9.42648 8.01435C9.4175 8.02249 9.41746 8.03475 9.42415 8.0409L9.77012 8.35874C9.77905 8.36694 9.79025 8.36493 9.79924 8.35679C9.80823 8.34865 9.8105 8.33845 9.80157 8.33025L9.79934 8.3282ZM9.92584 8.00996L9.89906 7.98535L9.88109 8.00163L9.861 7.98318L9.87897 7.9669L9.84995 7.94024L9.82973 7.95856L9.80965 7.9401L9.83211 7.91975L9.80532 7.89515L9.7604 7.93585C9.75141 7.94399 9.75138 7.95216 9.75808 7.95831L9.85629 8.04853C9.86299 8.05468 9.87418 8.05677 9.88092 8.05066L9.92584 8.00996ZM9.76252 7.97058L9.61206 8.09467L9.70804 8.18284L9.84735 8.04442L9.76476 7.96855" fill="#FFFF00"/>
<path d="M9.76252 7.97058L9.61206 8.09467L9.70804 8.18284L9.84735 8.04442L9.76476 7.96855M9.51034 8.37009C9.58446 8.30294 9.55334 8.23746 9.55334 8.23746C9.55334 8.23746 9.47954 8.21065 9.40766 8.27576L9.51034 8.37009ZM9.84196 8.30587L9.47813 7.97163C9.47144 7.96548 9.45576 7.96747 9.44677 7.97561C9.44003 7.98172 9.43999 7.99397 9.44669 8.00012L9.81051 8.33436C9.81721 8.34051 9.83065 8.34056 9.83963 8.33242C9.84637 8.32632 9.84641 8.31406 9.83972 8.30791L9.84196 8.30587ZM9.79934 8.3282L9.4556 8.01241C9.4489 8.00626 9.43547 8.00621 9.42648 8.01435C9.4175 8.02249 9.41746 8.03475 9.42415 8.0409L9.77012 8.35874C9.77905 8.36694 9.79025 8.36493 9.79924 8.35679C9.80823 8.34865 9.8105 8.33845 9.80157 8.33025L9.79934 8.3282ZM9.92584 8.00996L9.89906 7.98535L9.88109 8.00163L9.861 7.98318L9.87897 7.9669L9.84995 7.94024L9.82973 7.95856L9.80965 7.9401L9.83211 7.91975L9.80532 7.89515L9.7604 7.93585C9.75141 7.94399 9.75138 7.95216 9.75808 7.95831L9.85629 8.04853C9.86299 8.05468 9.87418 8.05677 9.88092 8.05066L9.92584 8.00996Z" stroke="black" stroke-width="0.0666669"/>
<path d="M9.81117 8.13821L9.7348 8.2074L9.82408 8.28942L9.90045 8.22023L9.81117 8.13821Z" fill="#FFFF00" stroke="black" stroke-width="0.0666669"/>
<path d="M9.57466 7.92093L9.49829 7.99011L9.58757 8.07213L9.66394 8.00294L9.57466 7.92093Z" fill="#FFFF00" stroke="black" stroke-width="0.0666669"/>
<path d="M9.97449 8.18165L9.94771 8.15705L9.92525 8.1774L9.90516 8.15895L9.92762 8.1386L9.90084 8.11399L9.87838 8.13434L9.85829 8.11589L9.88075 8.09554L9.85397 8.07094L9.80905 8.11163C9.80007 8.11977 9.80004 8.12794 9.80673 8.13409L9.9027 8.22226C9.90625 8.22552 9.91108 8.22736 9.91612 8.22738C9.92115 8.2274 9.92599 8.22559 9.92957 8.22235L9.97449 8.18165Z" fill="#FFFF00" stroke="black" stroke-width="0.0666669"/>
<path d="M9.73798 7.96437L9.71119 7.93976L9.68873 7.96011L9.66865 7.94166L9.69111 7.92131L9.66433 7.89671L9.64187 7.91705L9.62178 7.8986L9.64424 7.87825L9.61746 7.85365L9.57254 7.89435C9.56355 7.90248 9.56353 7.91065 9.57022 7.91681L9.66619 8.00497C9.66974 8.00823 9.67457 8.01007 9.6796 8.01009C9.68464 8.01011 9.68948 8.0083 9.69306 8.00506L9.73798 7.96437Z" fill="#FFFF00" stroke="black" stroke-width="0.0666669"/>
<path d="M9.76894 8.05842C9.78242 8.04621 9.76233 8.02775 9.74885 8.03996L9.71291 8.07252L9.733 8.09098L9.76894 8.05842Z" fill="#000001"/>
<path d="M9.83779 8.21184C9.85127 8.19963 9.83341 8.18323 9.81993 8.19544L9.79297 8.21986L9.81083 8.23626L9.83779 8.21184Z" fill="#000001"/>
<path d="M9.60128 7.99456C9.61476 7.98234 9.5969 7.96594 9.58342 7.97815L9.55646 8.00257L9.57432 8.01898L9.60128 7.99456Z" fill="#000001"/>
<path d="M8.30793 7.07025C8.30736 7.13123 8.33227 7.19011 8.3776 7.23492C8.39875 7.25649 8.4246 7.2738 8.4535 7.28574C8.4824 7.29768 8.51371 7.30399 8.54543 7.30425C8.61193 7.30425 8.6721 7.27537 8.71327 7.23492C8.75859 7.19011 8.78351 7.13123 8.78293 7.07025V6.75825H8.30793V7.07025Z" fill="#003399"/>
<path d="M8.41878 6.92003C8.44501 6.92003 8.46628 6.90063 8.46628 6.8767C8.46628 6.85277 8.44501 6.83336 8.41878 6.83336C8.39254 6.83336 8.37128 6.85277 8.37128 6.8767C8.37128 6.90063 8.39254 6.92003 8.41878 6.92003Z" fill="white"/>
<path d="M8.68159 6.92003C8.70783 6.92003 8.72909 6.90063 8.72909 6.8767C8.72909 6.85277 8.70783 6.83336 8.68159 6.83336C8.65536 6.83336 8.63409 6.85277 8.63409 6.8767C8.63409 6.90063 8.65536 6.92003 8.68159 6.92003Z" fill="white"/>
<path d="M8.5486 7.03559C8.57483 7.03559 8.5961 7.01619 8.5961 6.99225C8.5961 6.96832 8.57483 6.94892 8.5486 6.94892C8.52237 6.94892 8.5011 6.96832 8.5011 6.99225C8.5011 7.01619 8.52237 7.03559 8.5486 7.03559Z" fill="white"/>
<path d="M8.41878 7.15692C8.44501 7.15692 8.46628 7.13752 8.46628 7.11359C8.46628 7.08965 8.44501 7.07025 8.41878 7.07025C8.39254 7.07025 8.37128 7.08965 8.37128 7.11359C8.37128 7.13752 8.39254 7.15692 8.41878 7.15692Z" fill="white"/>
<path d="M8.68159 7.15692C8.70783 7.15692 8.72909 7.13752 8.72909 7.11359C8.72909 7.08965 8.70783 7.07025 8.68159 7.07025C8.65536 7.07025 8.63409 7.08965 8.63409 7.11359C8.63409 7.13752 8.65536 7.15692 8.68159 7.15692Z" fill="white"/>
<path d="M8.30793 6.31914C8.30736 6.38012 8.33227 6.439 8.3776 6.48381C8.39875 6.50538 8.4246 6.52269 8.4535 6.53463C8.4824 6.54657 8.51371 6.55287 8.54543 6.55314C8.61193 6.55314 8.6721 6.52425 8.71327 6.48381C8.75859 6.439 8.78351 6.38012 8.78293 6.31914V6.00714H8.30793V6.31914Z" fill="#003399"/>
<path d="M8.41878 6.16892C8.44501 6.16892 8.46628 6.14952 8.46628 6.12559C8.46628 6.10165 8.44501 6.08225 8.41878 6.08225C8.39254 6.08225 8.37128 6.10165 8.37128 6.12559C8.37128 6.14952 8.39254 6.16892 8.41878 6.16892Z" fill="white"/>
<path d="M8.68159 6.16892C8.70783 6.16892 8.72909 6.14952 8.72909 6.12559C8.72909 6.10165 8.70783 6.08225 8.68159 6.08225C8.65536 6.08225 8.63409 6.10165 8.63409 6.12559C8.63409 6.14952 8.65536 6.16892 8.68159 6.16892Z" fill="white"/>
<path d="M8.5486 6.28447C8.57483 6.28447 8.5961 6.26507 8.5961 6.24114C8.5961 6.21721 8.57483 6.19781 8.5486 6.19781C8.52237 6.19781 8.5011 6.21721 8.5011 6.24114C8.5011 6.26507 8.52237 6.28447 8.5486 6.28447Z" fill="white"/>
<path d="M8.41878 6.40581C8.44501 6.40581 8.46628 6.38641 8.46628 6.36247C8.46628 6.33854 8.44501 6.31914 8.41878 6.31914C8.39254 6.31914 8.37128 6.33854 8.37128 6.36247C8.37128 6.38641 8.39254 6.40581 8.41878 6.40581Z" fill="white"/>
<path d="M8.68159 6.40581C8.70783 6.40581 8.72909 6.38641 8.72909 6.36247C8.72909 6.33854 8.70783 6.31914 8.68159 6.31914C8.65536 6.31914 8.63409 6.33854 8.63409 6.36247C8.63409 6.38641 8.65536 6.40581 8.68159 6.40581Z" fill="white"/>
<path d="M7.64924 7.07025C7.64867 7.13123 7.67358 7.19011 7.71891 7.23492C7.74006 7.25649 7.76591 7.2738 7.79481 7.28574C7.82371 7.29768 7.85502 7.30399 7.88674 7.30425C7.95324 7.30425 8.01341 7.27537 8.05457 7.23492C8.0999 7.19011 8.12482 7.13123 8.12424 7.07025V6.75825H7.64924V7.07025Z" fill="#003399"/>
<path d="M7.76009 6.92003C7.78632 6.92003 7.80759 6.90063 7.80759 6.8767C7.80759 6.85277 7.78632 6.83336 7.76009 6.83336C7.73385 6.83336 7.71259 6.85277 7.71259 6.8767C7.71259 6.90063 7.73385 6.92003 7.76009 6.92003Z" fill="white"/>
<path d="M8.0229 6.92003C8.04914 6.92003 8.0704 6.90063 8.0704 6.8767C8.0704 6.85277 8.04914 6.83336 8.0229 6.83336C7.99667 6.83336 7.9754 6.85277 7.9754 6.8767C7.9754 6.90063 7.99667 6.92003 8.0229 6.92003Z" fill="white"/>
<path d="M7.88991 7.03559C7.91614 7.03559 7.93741 7.01619 7.93741 6.99225C7.93741 6.96832 7.91614 6.94892 7.88991 6.94892C7.86367 6.94892 7.84241 6.96832 7.84241 6.99225C7.84241 7.01619 7.86367 7.03559 7.88991 7.03559Z" fill="white"/>
<path d="M7.76009 7.15692C7.78632 7.15692 7.80759 7.13752 7.80759 7.11359C7.80759 7.08965 7.78632 7.07025 7.76009 7.07025C7.73385 7.07025 7.71259 7.08965 7.71259 7.11359C7.71259 7.13752 7.73385 7.15692 7.76009 7.15692Z" fill="white"/>
<path d="M8.0229 7.15692C8.04914 7.15692 8.0704 7.13752 8.0704 7.11359C8.0704 7.08965 8.04914 7.07025 8.0229 7.07025C7.99667 7.07025 7.9754 7.08965 7.9754 7.11359C7.9754 7.13752 7.99667 7.15692 8.0229 7.15692Z" fill="white"/>
<path d="M8.96662 7.07025C8.96605 7.13123 8.99096 7.19011 9.03629 7.23492C9.05744 7.25649 9.08329 7.2738 9.11219 7.28574C9.14109 7.29768 9.1724 7.30399 9.20412 7.30425C9.27062 7.30425 9.33079 7.27537 9.37196 7.23492C9.41729 7.19011 9.4422 7.13123 9.44162 7.07025V6.75825H8.96662V7.07025Z" fill="#003399"/>
<path d="M9.07747 6.92003C9.1037 6.92003 9.12497 6.90063 9.12497 6.8767C9.12497 6.85277 9.1037 6.83336 9.07747 6.83336C9.05123 6.83336 9.02997 6.85277 9.02997 6.8767C9.02997 6.90063 9.05123 6.92003 9.07747 6.92003Z" fill="white"/>
<path d="M9.34029 6.92003C9.36652 6.92003 9.38779 6.90063 9.38779 6.8767C9.38779 6.85277 9.36652 6.83336 9.34029 6.83336C9.31405 6.83336 9.29279 6.85277 9.29279 6.8767C9.29279 6.90063 9.31405 6.92003 9.34029 6.92003Z" fill="white"/>
<path d="M9.20729 7.03559C9.23352 7.03559 9.25479 7.01619 9.25479 6.99225C9.25479 6.96832 9.23352 6.94892 9.20729 6.94892C9.18106 6.94892 9.15979 6.96832 9.15979 6.99225C9.15979 7.01619 9.18106 7.03559 9.20729 7.03559Z" fill="white"/>
<path d="M9.07747 7.15692C9.1037 7.15692 9.12497 7.13752 9.12497 7.11359C9.12497 7.08965 9.1037 7.07025 9.07747 7.07025C9.05123 7.07025 9.02997 7.08965 9.02997 7.11359C9.02997 7.13752 9.05123 7.15692 9.07747 7.15692Z" fill="white"/>
<path d="M9.34029 7.15692C9.36652 7.15692 9.38779 7.13752 9.38779 7.11359C9.38779 7.08965 9.36652 7.07025 9.34029 7.07025C9.31405 7.07025 9.29279 7.08965 9.29279 7.11359C9.29279 7.13752 9.31405 7.15692 9.34029 7.15692Z" fill="white"/>
<path d="M8.30793 7.81559C8.30736 7.87656 8.33227 7.93545 8.3776 7.98026C8.39875 8.00183 8.4246 8.01914 8.4535 8.03108C8.4824 8.04302 8.51371 8.04932 8.54543 8.04959C8.61193 8.04959 8.6721 8.0207 8.71327 7.98026C8.75859 7.93545 8.78351 7.87656 8.78293 7.81559V7.50359H8.30793V7.81559Z" fill="#003399"/>
<path d="M8.41878 7.66537C8.44501 7.66537 8.46628 7.64597 8.46628 7.62203C8.46628 7.5981 8.44501 7.5787 8.41878 7.5787C8.39254 7.5787 8.37128 7.5981 8.37128 7.62203C8.37128 7.64597 8.39254 7.66537 8.41878 7.66537Z" fill="white"/>
<path d="M8.68159 7.66537C8.70783 7.66537 8.72909 7.64597 8.72909 7.62203C8.72909 7.5981 8.70783 7.5787 8.68159 7.5787C8.65536 7.5787 8.63409 7.5981 8.63409 7.62203C8.63409 7.64597 8.65536 7.66537 8.68159 7.66537Z" fill="white"/>
<path d="M8.5486 7.78092C8.57483 7.78092 8.5961 7.76152 8.5961 7.73759C8.5961 7.71366 8.57483 7.69426 8.5486 7.69426C8.52237 7.69426 8.5011 7.71366 8.5011 7.73759C8.5011 7.76152 8.52237 7.78092 8.5486 7.78092Z" fill="white"/>
<path d="M8.41878 7.90226C8.44501 7.90226 8.46628 7.88286 8.46628 7.85892C8.46628 7.83499 8.44501 7.81559 8.41878 7.81559C8.39254 7.81559 8.37128 7.83499 8.37128 7.85892C8.37128 7.88286 8.39254 7.90226 8.41878 7.90226Z" fill="white"/>
<path d="M8.68159 7.90226C8.70783 7.90226 8.72909 7.88286 8.72909 7.85892C8.72909 7.83499 8.70783 7.81559 8.68159 7.81559C8.65536 7.81559 8.63409 7.83499 8.63409 7.85892C8.63409 7.88286 8.65536 7.90226 8.68159 7.90226Z" fill="white"/>
</g>
<defs>
<clipPath id="clip0_289_15725">
<rect width="19" height="13" fill="white" transform="translate(0.942261 0.5)"/>
</clipPath>
</defs>
</svg>
