<svg width="34" height="34" viewBox="0 0 34 34" fill="none" xmlns="http://www.w3.org/2000/svg">
<path d="M9.34945 16.1463C9.34945 12.2841 9.34945 10.3531 10.5445 9.15329C11.7395 7.95349 13.6628 7.95349 17.5094 7.95349H21.5894C25.4361 7.95349 27.3594 7.95349 28.5545 9.15329C29.7494 10.3531 29.7494 12.2842 29.7494 16.1463V22.9736C29.7494 26.8357 29.7494 28.7668 28.5545 29.9666C27.3594 31.1663 25.4361 31.1663 21.5894 31.1663H17.5094C13.6628 31.1663 11.7395 31.1663 10.5445 29.9666C9.34945 28.7668 9.34945 26.8357 9.34945 22.9736V16.1463Z" fill="#BCBCBC"/>
<path opacity="0.5" d="M5.90972 4.4931C4.25 6.15284 4.25 8.82412 4.25 14.1667V17C4.25 22.3426 4.25 25.014 5.90972 26.6736C6.7846 27.5485 7.94056 27.9622 9.62065 28.1578C9.34945 26.9667 9.34945 25.3295 9.34945 22.9737V16.1464C9.34945 12.2842 9.34945 10.3532 10.5444 9.15338C11.7394 7.95358 13.6628 7.95358 17.5094 7.95358H21.5894C23.9296 7.95358 25.5579 7.95358 26.7434 8.22371C26.5488 6.53294 26.1352 5.37139 25.2569 4.4931C23.5973 2.83337 20.9259 2.83337 15.5833 2.83337C10.2407 2.83337 7.56946 2.83337 5.90972 4.4931Z" fill="#BCBCBC"/>
</svg>
