<svg width="48" height="48" viewBox="0 0 48 48" fill="none" xmlns="http://www.w3.org/2000/svg">
<path opacity="0.5" d="M24 4C12.9543 4 4 12.9543 4 24C4 24.7078 4.03678 25.4072 4.10852 26.096C4.80614 26.7046 8.734 30 12 30C14.424 30 17.2126 28.1848 18.7745 27L18.7924 26.9822C18.2883 26.1036 18 25.0854 18 24C18 20.6862 20.6862 18 24 18C27.3138 18 30 20.6862 30 24C30 25.7702 29.2334 27.3614 28.014 28.4596C28.9548 29.285 30.1822 30 31.6106 30C34.9896 30 34.9896 26 38.3684 26C40.5236 26 42.2204 27.6272 43.167 28.8058L43.3516 29.0706C43.7748 27.4512 44 25.752 44 24C44 12.9543 35.0456 4 24 4Z" fill="#0047FF"/>
<path d="M39.0544 10.8344C39.0142 10.867 38.9752 10.902 38.9378 10.9394L36.9378 12.9394C36.352 13.5251 36.352 14.4749 36.9378 15.0607C37.5236 15.6465 38.4734 15.6465 39.0592 15.0607L40.868 13.2519C40.324 12.3999 39.7172 11.5919 39.0544 10.8344Z" fill="#0047FF"/>
<path d="M10.8329 8.94429C10.8655 8.98445 10.9005 9.02334 10.9379 9.06072L12.9379 11.0607C13.5237 11.6465 14.4734 11.6465 15.0592 11.0607C15.645 10.4749 15.645 9.52518 15.0592 8.93939L13.2504 7.13062C12.3984 7.67458 11.5904 8.28129 10.8329 8.94429Z" fill="#0047FF"/>
<path d="M20.9378 9.06066C20.352 8.47488 20.352 7.52511 20.9378 6.93933C21.5236 6.35356 22.4734 6.35356 23.0592 6.93933L25.0592 8.93933C25.645 9.52511 25.645 10.4749 25.0592 11.0607C24.4734 11.6464 23.5236 11.6464 22.9378 11.0607L20.9378 9.06066Z" fill="#0047FF"/>
<path d="M33.1986 10.9C33.6956 10.2372 33.5612 9.29703 32.8986 8.79997C32.2358 8.30291 31.2956 8.43723 30.7986 9.09997L27.7986 13.1C27.3014 13.7627 27.4358 14.7029 28.0986 15.2C28.7612 15.697 29.7014 15.5627 30.1986 14.9L33.1986 10.9Z" fill="#0047FF"/>
<path d="M16.8176 15.1203C17.032 15.9205 17.8545 16.3954 18.6547 16.1809L21.3868 15.4489C22.187 15.2345 22.6618 14.412 22.4474 13.6118C22.233 12.8116 21.4106 12.3367 20.6104 12.5511L17.8783 13.2832C17.0781 13.4976 16.6032 14.3201 16.8176 15.1203Z" fill="#0047FF"/>
<path d="M34.9292 20.7079C34.968 21.5355 34.3288 22.2379 33.5012 22.2767C32.6736 22.3157 31.9714 21.6763 31.9324 20.8489L31.7996 18.0236C31.7608 17.1961 32.4 16.4937 33.2276 16.4548C34.0552 16.4159 34.7574 17.0552 34.7964 17.8827L34.9292 20.7079Z" fill="#0047FF"/>
<path d="M36.8722 24.1172C37.4196 24.7388 38.3674 24.799 38.9892 24.2514L42.3454 21.2958C42.967 20.7482 43.0272 19.8004 42.4796 19.1787C41.9322 18.557 40.9842 18.4969 40.3626 19.0444L37.0064 22C36.3848 22.5476 36.3246 23.4954 36.8722 24.1172Z" fill="#0047FF"/>
<path d="M11.0474 16.3335C10.7046 15.5793 11.0381 14.6901 11.7922 14.3472C12.5464 14.0044 13.4357 14.3379 13.7785 15.0921L14.949 17.6669C15.2918 18.4211 14.9583 19.3104 14.2041 19.6532C13.45 19.996 12.5607 19.6626 12.2179 18.9084L11.0474 16.3335Z" fill="#0047FF"/>
<path d="M13.8844 21.79C14.553 22.2794 14.6983 23.2178 14.209 23.8864L12.5385 26.1688C12.0493 26.8374 11.1107 26.9826 10.4422 26.4934C9.77366 26.0042 9.62836 25.0656 10.1176 24.397L11.7881 22.1146C12.2774 21.446 13.2159 21.3008 13.8844 21.79Z" fill="#0047FF"/>
<path d="M5.7094 17.9586C5.66332 17.1314 6.29649 16.4236 7.12363 16.3775C7.95077 16.3314 8.65867 16.9646 8.70475 17.7917L8.86207 20.6158C8.90815 21.4428 8.27497 22.1508 7.44783 22.1968C6.62068 22.243 5.9128 21.6098 5.86672 20.7826L5.7094 17.9586Z" fill="#0047FF"/>
<path d="M12.0009 30C14.4248 30 17.2134 28.1848 18.7754 27L18.7932 26.9822C19.8281 28.7854 21.7726 30 24.0008 30C25.5444 30 26.9518 29.4172 28.015 28.4596C28.9558 29.285 30.183 30 31.6116 30C33.301 30 34.1458 29 34.9904 28C35.8352 27 36.6798 26 38.3694 26C40.5244 26 42.2214 27.6272 43.1678 28.8058L43.3524 29.0706C43.3208 29.192 43.288 29.3128 43.254 29.4332C42.173 28.512 40.3732 28.5434 38.9584 29.5898C37.7554 30.4794 37.1724 31.8504 37.3718 33.0422L37.169 33.245L36.5 32.3406C35.2686 30.6754 32.645 30.5276 30.64 32.0104C28.6348 33.4932 28.0078 36.045 29.2392 37.7102L29.6098 38.2112L29.2392 38.5818C28.2136 38.2588 26.9442 38.4746 25.889 39.255C24.2944 40.4342 24.0192 42.6414 24.9838 43.976C24.6582 43.9918 24.3304 43.9998 24.001 43.9998C13.6632 43.9998 5.15714 36.1566 4.10938 26.096C4.80699 26.7046 8.73486 30 12.0009 30Z" fill="#0047FF"/>
</svg>
