<svg width="60" height="60" viewBox="0 0 60 60" fill="none" xmlns="http://www.w3.org/2000/svg">
<path d="M38.8919 19.7C37.8023 18.3992 37.2017 16.729 37.2019 15H32.2752V35.6667C32.238 36.7853 31.7866 37.8451 31.0161 38.6225C30.2457 39.3999 29.2165 39.834 28.1457 39.8333C25.8817 39.8333 24.0003 37.9 24.0003 35.5C24.0003 32.6333 26.647 30.4833 29.3734 31.3667V26.1C23.8728 25.3333 19.0577 29.8 19.0577 35.5C19.0577 41.05 23.4583 45 28.1298 45C33.1362 45 37.2019 40.75 37.2019 35.5V25.0167C39.1996 26.5164 41.5982 27.3211 44.0577 27.3167V22.1667C44.0577 22.1667 41.0603 22.3167 38.8919 19.7Z" fill="#51E84F"/>
</svg>
