<svg width="40" height="40" viewBox="0 0 40 40" fill="none" xmlns="http://www.w3.org/2000/svg">
<path opacity="0.5" d="M36.6666 20C36.6666 10.7953 29.2046 3.33337 20 3.33337C10.7952 3.33337 3.33331 10.7953 3.33331 20C3.33331 29.2047 10.7952 36.6667 20 36.6667C29.2046 36.6667 36.6666 29.2047 36.6666 20Z" fill="#0047FF"/>
<path d="M20 10.4166C20.6903 10.4166 21.25 10.9763 21.25 11.6666V21.6666C21.25 22.357 20.6903 22.9166 20 22.9166C19.3097 22.9166 18.75 22.357 18.75 21.6666V11.6666C18.75 10.9763 19.3097 10.4166 20 10.4166Z" fill="#0047FF"/>
<path d="M20 28.3333C20.9205 28.3333 21.6666 27.5872 21.6666 26.6667C21.6666 25.7462 20.9205 25 20 25C19.0795 25 18.3333 25.7462 18.3333 26.6667C18.3333 27.5872 19.0795 28.3333 20 28.3333Z" fill="#0047FF"/>
</svg>
