<svg width="42" height="42" viewBox="0 0 42 42" fill="none" xmlns="http://www.w3.org/2000/svg">
<g clip-path="url(#clip0_107_31302)">
<g filter="url(#filter0_f_107_31302)">
<rect x="11.7841" y="11.549" width="18.8442" height="20.5393" rx="2.68421" fill="url(#paint0_radial_107_31302)"/>
</g>
<path d="M6.20505 7.38086C5 8.61531 5 10.6021 5 14.5757C5 17.2247 5 18.5494 5.80336 19.3722C6.60671 20.1952 7.89972 20.1952 10.4857 20.1952H13.2285C15.8145 20.1952 17.1076 20.1952 17.9108 19.3722C18.7142 18.5494 18.7142 17.2247 18.7142 14.5757V11.7659C18.7142 9.11687 18.7142 7.79233 17.9108 6.96938C17.1076 6.14642 15.8145 6.14642 13.2285 6.14642C9.34956 6.14642 7.4101 6.14642 6.20505 7.38086Z" fill="#2B3640"/>
<path d="M6.20505 37.6925C5 36.458 5 34.4713 5 30.4976C5 27.8485 5 26.5239 5.80336 25.7011C6.60671 24.8781 7.89972 24.8781 10.4857 24.8781H13.2285C15.8145 24.8781 17.1076 24.8781 17.9108 25.7011C18.7142 26.5239 18.7142 27.8485 18.7142 30.4976V33.3074C18.7142 35.9565 18.7142 37.2811 17.9108 38.1038C17.1076 38.9269 15.8146 38.9269 13.2286 38.9269C9.34966 38.9269 7.41007 38.9269 6.20505 37.6925Z" fill="#2B3640"/>
<path d="M23.2859 11.7659C23.2859 9.11681 23.2859 7.79227 24.0894 6.96932C24.8926 6.14636 26.1856 6.14636 28.7716 6.14636C32.6507 6.14636 34.5901 6.14636 35.7952 7.3808C37.0002 8.61524 37.0002 10.602 37.0002 14.5756C37.0002 17.2247 37.0002 18.5493 36.1968 19.3721C35.3936 20.1951 34.1005 20.1951 31.5145 20.1951H28.7716C26.1856 20.1951 24.8926 20.1951 24.0894 19.3721C23.2859 18.5493 23.2859 17.2247 23.2859 14.5756V11.7659Z" fill="#2B3640"/>
<path d="M24.0894 38.1038C23.2859 37.2811 23.2859 35.9565 23.2859 33.3074V30.4976C23.2859 27.8485 23.2859 26.5239 24.0894 25.7011C24.8926 24.8781 26.1856 24.8781 28.7716 24.8781H31.5145C34.1005 24.8781 35.3936 24.8781 36.1968 25.7011C37.0002 26.5239 37.0002 27.8485 37.0002 30.4976C37.0002 34.4711 37.0002 36.458 35.7952 37.6925C34.5901 38.9269 32.6507 38.9269 28.7716 38.9269C26.1858 38.9269 24.8926 38.9269 24.0894 38.1038Z" fill="#2B3640"/>
</g>
<defs>
<filter id="filter0_f_107_31302" x="10.7841" y="10.549" width="20.8442" height="22.5393" filterUnits="userSpaceOnUse" color-interpolation-filters="sRGB">
<feFlood flood-opacity="0" result="BackgroundImageFix"/>
<feBlend mode="normal" in="SourceGraphic" in2="BackgroundImageFix" result="shape"/>
<feGaussianBlur stdDeviation="0.5" result="effect1_foregroundBlur_107_31302"/>
</filter>
<radialGradient id="paint0_radial_107_31302" cx="0" cy="0" r="1" gradientUnits="userSpaceOnUse" gradientTransform="translate(21.2062 11.5489) rotate(90) scale(20.5393 18.8442)">
<stop stop-color="#7940F0"/>
<stop offset="0.5" stop-color="#6220F3"/>
<stop offset="1" stop-color="#7940F0"/>
</radialGradient>
<clipPath id="clip0_107_31302">
<rect width="42" height="42" fill="white"/>
</clipPath>
</defs>
</svg>
