<svg width="42" height="42" viewBox="0 0 42 42" fill="none" xmlns="http://www.w3.org/2000/svg">
<g filter="url(#filter0_f_107_31302)">
<rect x="11.7841" y="12.2739" width="18.8441" height="20.0503" rx="2.68421" fill="#0047FF"/>
</g>
<path d="M6.20504 8.20511C5 9.41016 5 11.3496 5 15.2286C5 17.8146 5 19.1077 5.80335 19.9109C6.60671 20.7143 7.89971 20.7143 10.4857 20.7143H13.2285C15.8145 20.7143 17.1076 20.7143 17.9108 19.9109C18.7142 19.1077 18.7142 17.8146 18.7142 15.2286V12.4858C18.7142 9.89978 18.7142 8.60678 17.9108 7.80342C17.1076 7.00006 15.8145 7.00006 13.2285 7.00006C9.34955 7.00006 7.41009 7.00006 6.20504 8.20511Z" fill="#131313"/>
<path d="M6.20504 37.795C5 36.59 5 34.6506 5 30.7715C5 28.1854 5 26.8924 5.80335 26.0892C6.60671 25.2858 7.89971 25.2858 10.4857 25.2858H13.2285C15.8145 25.2858 17.1076 25.2858 17.9108 26.0892C18.7142 26.8924 18.7142 28.1854 18.7142 30.7715V33.5143C18.7142 36.1004 18.7142 37.3934 17.9108 38.1966C17.1076 39 15.8145 39 13.2286 39C9.34964 39 7.41007 39 6.20504 37.795Z" fill="#131313"/>
<path d="M23.2859 12.4857C23.2859 9.89972 23.2859 8.60672 24.0893 7.80336C24.8925 7 26.1855 7 28.7716 7C32.6506 7 34.59 7 35.7951 8.20505C37.0001 9.4101 37.0001 11.3496 37.0001 15.2286C37.0001 17.8145 37.0001 19.1076 36.1967 19.9108C35.3935 20.7143 34.1004 20.7143 31.5144 20.7143H28.7716C26.1855 20.7143 24.8925 20.7143 24.0893 19.9108C23.2859 19.1076 23.2859 17.8145 23.2859 15.2286V12.4857Z" fill="#131313"/>
<path d="M24.0893 38.1966C23.2859 37.3934 23.2859 36.1004 23.2859 33.5143V30.7715C23.2859 28.1854 23.2859 26.8924 24.0893 26.0892C24.8925 25.2858 26.1855 25.2858 28.7716 25.2858H31.5144C34.1004 25.2858 35.3935 25.2858 36.1967 26.0892C37.0001 26.8924 37.0001 28.1854 37.0001 30.7715C37.0001 34.6503 37.0001 36.59 35.7951 37.795C34.59 39 32.6506 39 28.7716 39C26.1858 39 24.8925 39 24.0893 38.1966Z" fill="#131313"/>
<defs>
<filter id="filter0_f_107_31302" x="10.7841" y="11.2739" width="20.8441" height="22.0502" filterUnits="userSpaceOnUse" color-interpolation-filters="sRGB">
<feFlood flood-opacity="0" result="BackgroundImageFix"/>
<feBlend mode="normal" in="SourceGraphic" in2="BackgroundImageFix" result="shape"/>
<feGaussianBlur stdDeviation="0.5" result="effect1_foregroundBlur_107_31302"/>
</filter>
</defs>
</svg>
