<svg width="42" height="42" viewBox="0 0 42 42" fill="none" xmlns="http://www.w3.org/2000/svg">
<g clip-path="url(#clip0_107_31301)">
<g filter="url(#filter0_f_107_31301)">
<rect width="16.0403" height="16.1287" rx="8.02016" transform="matrix(0.873877 -0.486148 0.50209 0.864815 10.0004 18.1728)" fill="url(#paint0_radial_107_31301)"/>
</g>
<path opacity="0.5" fill-rule="evenodd" clip-rule="evenodd" d="M24.5576 2.34508C23.817 2.04877 22.878 2.04877 21 2.04877C19.122 2.04877 18.183 2.04877 17.4424 2.34508C16.4548 2.74017 15.6702 3.49797 15.2611 4.45178C15.0744 4.88719 15.0013 5.39356 14.9727 6.13217C14.9307 7.21763 14.3543 8.22235 13.3803 8.76546C12.4063 9.30854 11.2173 9.28826 10.223 8.78069C9.54635 8.4353 9.05577 8.24323 8.57197 8.18173C7.51217 8.04696 6.44035 8.32434 5.59231 8.95283C4.95627 9.4242 4.48677 10.2096 3.54779 11.7803C2.60881 13.3511 2.13934 14.1365 2.0347 14.9042C1.89516 15.9277 2.18236 16.9629 2.83309 17.782C3.13011 18.1559 3.54753 18.4701 4.19539 18.8632C5.14781 19.4413 5.76063 20.4259 5.76057 21.5122C5.76051 22.5984 5.14771 23.5829 4.19539 24.1608C3.54743 24.5541 3.12993 24.8685 2.83289 25.2423C2.18216 26.0614 1.89498 27.0964 2.0345 28.12C2.13914 28.8876 2.60863 29.6732 3.54759 31.2439C4.48657 32.8146 4.95607 33.6001 5.59211 34.0713C6.44015 34.6998 7.51197 34.9772 8.57177 34.8425C9.05555 34.781 9.54609 34.5889 10.2226 34.2436C11.217 33.736 12.4062 33.7157 13.3802 34.2588C14.3543 34.802 14.9306 35.8067 14.9727 36.8924C15.0013 37.6308 15.0744 38.1372 15.2611 38.5726C15.6702 39.5264 16.4548 40.2843 17.4424 40.6794C18.183 40.9756 19.122 40.9756 21 40.9756C22.878 40.9756 23.817 40.9756 24.5576 40.6794C25.5452 40.2843 26.3298 39.5264 26.7388 38.5726C26.9256 38.1372 26.9988 37.6308 27.0274 36.8922C27.0694 35.8067 27.6456 34.802 28.6196 34.2588C29.5936 33.7155 30.7828 33.736 31.7772 34.2436C32.4538 34.5889 32.9442 34.7808 33.428 34.8423C34.4878 34.9772 35.5596 34.6998 36.4076 34.0713C37.0438 33.5999 37.5132 32.8146 38.4522 31.2437C39.3912 29.673 39.8606 28.8876 39.9654 28.12C40.1048 27.0964 39.8176 26.0612 39.167 25.2422C38.8698 24.8683 38.4524 24.5539 37.8044 24.1608C36.8522 23.5829 36.2394 22.5982 36.2394 21.512C36.2394 20.4257 36.8522 19.4415 37.8044 18.8636C38.4526 18.4702 38.87 18.1561 39.1672 17.782C39.8178 16.9631 40.105 15.9279 39.9656 14.9043C39.8608 14.1366 39.3914 13.3512 38.4524 11.7805C37.5134 10.2097 37.044 9.42433 36.4078 8.95297C35.5598 8.32447 34.488 8.0471 33.4282 8.18186C32.9444 8.24337 32.4538 8.43541 31.7774 8.78077C30.783 9.28836 29.5938 9.30866 28.6198 8.76551C27.6458 8.22239 27.0694 7.21759 27.0272 6.13207C26.9986 5.39352 26.9256 4.88718 26.7388 4.45178C26.3298 3.49797 25.5452 2.74017 24.5576 2.34508Z" fill="#45545F"/>
</g>
<defs>
<filter id="filter0_f_107_31301" x="11.968" y="12.2609" width="18.1801" height="17.9742" filterUnits="userSpaceOnUse" color-interpolation-filters="sRGB">
<feFlood flood-opacity="0" result="BackgroundImageFix"/>
<feBlend mode="normal" in="SourceGraphic" in2="BackgroundImageFix" result="shape"/>
<feGaussianBlur stdDeviation="0.5" result="effect1_foregroundBlur_107_31301"/>
</filter>
<radialGradient id="paint0_radial_107_31301" cx="0" cy="0" r="1" gradientUnits="userSpaceOnUse" gradientTransform="translate(8.02016) rotate(90) scale(16.1287 16.0403)">
<stop stop-color="#7940F0"/>
<stop offset="0.5" stop-color="#6220F3"/>
<stop offset="1" stop-color="#7940F0"/>
</radialGradient>
<clipPath id="clip0_107_31301">
<rect width="42" height="42" fill="white"/>
</clipPath>
</defs>
</svg>
