<svg width="42" height="42" viewBox="0 0 42 42" fill="none" xmlns="http://www.w3.org/2000/svg">
<g clip-path="url(#clip0_107_31300)">
<g clip-path="url(#clip1_107_31300)">
<g opacity="0.8" filter="url(#filter0_f_107_31300)">
<rect width="28.502" height="18.077" rx="4" transform="matrix(0.96624 -0.257645 0.307651 0.951499 3.64746 8.34338)" fill="url(#paint0_radial_107_31300)"/>
</g>
<path d="M9.09521 30.6511C9.09521 31.3949 9.73481 31.9978 10.5238 31.9978C11.3128 31.9978 11.9524 31.3949 11.9524 30.6511V19.8777C11.9524 19.134 11.3128 18.5311 10.5238 18.5311C9.73481 18.5311 9.09521 19.134 9.09521 19.8777V30.6511Z" fill="#45545F"/>
<path fill-rule="evenodd" clip-rule="evenodd" d="M37.5493 18.5378C37.4309 18.531 37.3017 18.531 37.1678 18.5311L37.1345 18.5311H31.8855C27.5591 18.5311 23.8572 21.6483 23.8572 25.7133C23.8572 29.7783 27.5591 32.8956 31.8855 32.8956H37.1345H37.1678C37.3017 32.8956 37.4309 32.8956 37.5493 32.8888C39.3067 32.7873 40.8609 31.5285 40.9916 29.7702C41.0002 29.655 41 29.5307 41 29.4156V29.3842V22.0424V22.0111C41 21.896 41.0002 21.7717 40.9916 21.6564C40.8609 19.8982 39.3067 18.6394 37.5493 18.5378ZM31.4202 27.6287C32.5341 27.6287 33.437 26.7711 33.437 25.7133C33.437 24.6556 32.5341 23.798 31.4202 23.798C30.3063 23.798 29.4035 24.6556 29.4035 25.7133C29.4035 26.7711 30.3063 27.6287 31.4202 27.6287Z" fill="#45545F"/>
<path opacity="0.5" d="M37.4559 18.5337C37.4559 16.4139 37.3742 14.1399 35.9367 12.5097C35.7978 12.3523 35.6502 12.1995 35.4929 12.0512C34.0674 10.7075 32.2597 10.1112 30.0266 9.82814C27.8567 9.55311 25.0841 9.55314 21.5836 9.55316H17.5592C14.0587 9.55314 11.2861 9.55311 9.11613 9.82814C6.88296 10.1112 5.07544 10.7075 3.64997 12.0512C2.22453 13.395 1.59192 15.0989 1.29169 17.204C0.999943 19.2496 0.999981 21.8632 1 25.1631V25.3656C0.999981 28.6655 0.999943 31.2792 1.29169 33.3247C1.59192 35.4298 2.22453 37.1338 3.64997 38.4776C5.07544 39.8212 6.88296 40.4175 9.11613 40.7007C11.286 40.9756 14.0586 40.9756 17.559 40.9756H21.5836C25.0841 40.9756 27.8567 40.9756 30.0266 40.7007C32.2597 40.4175 34.0674 39.8212 35.4929 38.4776C35.8824 38.1102 36.2133 37.7155 36.4944 37.2921C37.3525 36.0002 37.4559 34.4169 37.4559 32.8928C37.3641 32.8955 37.2673 32.8955 37.1679 32.8955H31.8855C27.559 32.8955 23.8571 29.7782 23.8571 25.7133C23.8571 21.6482 27.559 18.531 31.8855 18.531H37.1677C37.2672 18.531 37.3641 18.5309 37.4559 18.5337Z" fill="#45545F"/>
<g opacity="0.5" filter="url(#filter1_ii_107_31300)">
<path d="M37.4559 18.5337C37.4559 16.4139 37.3742 14.1399 35.9367 12.5097C35.7978 12.3523 35.6502 12.1995 35.4929 12.0512C34.0674 10.7075 32.2597 10.1112 30.0266 9.82814C27.8567 9.55311 25.0841 9.55314 21.5836 9.55316H17.5592C14.0587 9.55314 11.2861 9.55311 9.11613 9.82814C6.88296 10.1112 5.07544 10.7075 3.64997 12.0512C2.22453 13.395 1.59192 15.0989 1.29169 17.204C0.999943 19.2496 0.999981 21.8632 1 25.1631V25.3656C0.999981 28.6655 0.999943 31.2792 1.29169 33.3247C1.59192 35.4298 2.22453 37.1338 3.64997 38.4776C5.07544 39.8212 6.88296 40.4175 9.11613 40.7007C11.286 40.9756 14.0586 40.9756 17.559 40.9756H21.5836C25.0841 40.9756 27.8567 40.9756 30.0266 40.7007C32.2597 40.4175 34.0674 39.8212 35.4929 38.4776C35.8824 38.1102 36.2133 37.7155 36.4944 37.2921C37.3525 36.0002 37.4559 34.4169 37.4559 32.8928C37.3641 32.8955 37.2673 32.8955 37.1679 32.8955H31.8855C27.559 32.8955 23.8571 29.7782 23.8571 25.7133C23.8571 21.6482 27.559 18.531 31.8855 18.531H37.1677C37.2672 18.531 37.3641 18.5309 37.4559 18.5337Z" fill="#45545F" fill-opacity="0.01"/>
</g>
</g>
</g>
<defs>
<filter id="filter0_f_107_31300" x="2.68579" y="-0.107483" width="35.0245" height="26.7586" filterUnits="userSpaceOnUse" color-interpolation-filters="sRGB">
<feFlood flood-opacity="0" result="BackgroundImageFix"/>
<feBlend mode="normal" in="SourceGraphic" in2="BackgroundImageFix" result="shape"/>
<feGaussianBlur stdDeviation="1" result="effect1_foregroundBlur_107_31300"/>
</filter>
<filter id="filter1_ii_107_31300" x="-2.04643" y="6.50674" width="42.5488" height="37.5153" filterUnits="userSpaceOnUse" color-interpolation-filters="sRGB">
<feFlood flood-opacity="0" result="BackgroundImageFix"/>
<feBlend mode="normal" in="SourceGraphic" in2="BackgroundImageFix" result="shape"/>
<feColorMatrix in="SourceAlpha" type="matrix" values="0 0 0 0 0 0 0 0 0 0 0 0 0 0 0 0 0 0 127 0" result="hardAlpha"/>
<feOffset dx="-3.04643" dy="3.04643"/>
<feGaussianBlur stdDeviation="1.52321"/>
<feComposite in2="hardAlpha" operator="arithmetic" k2="-1" k3="1"/>
<feColorMatrix type="matrix" values="0 0 0 0 1 0 0 0 0 1 0 0 0 0 1 0 0 0 0.017 0"/>
<feBlend mode="normal" in2="shape" result="effect1_innerShadow_107_31300"/>
<feColorMatrix in="SourceAlpha" type="matrix" values="0 0 0 0 0 0 0 0 0 0 0 0 0 0 0 0 0 0 127 0" result="hardAlpha"/>
<feOffset dx="3.04643" dy="-3.04643"/>
<feGaussianBlur stdDeviation="1.52321"/>
<feComposite in2="hardAlpha" operator="arithmetic" k2="-1" k3="1"/>
<feColorMatrix type="matrix" values="0 0 0 0 0.0886139 0 0 0 0 0.119335 0 0 0 0 0.145667 0 0 0 0.017 0"/>
<feBlend mode="normal" in2="effect1_innerShadow_107_31300" result="effect2_innerShadow_107_31300"/>
</filter>
<radialGradient id="paint0_radial_107_31300" cx="0" cy="0" r="1" gradientUnits="userSpaceOnUse" gradientTransform="translate(14.251) rotate(90) scale(18.077 28.502)">
<stop stop-color="#7940F0"/>
<stop offset="0.5" stop-color="#6220F3"/>
<stop offset="1" stop-color="#7940F0"/>
</radialGradient>
<clipPath id="clip0_107_31300">
<rect width="42" height="42" fill="white"/>
</clipPath>
<clipPath id="clip1_107_31300">
<rect width="42" height="42" fill="white"/>
</clipPath>
</defs>
</svg>
