<svg width="42" height="42" viewBox="0 0 42 42" fill="none" xmlns="http://www.w3.org/2000/svg">
<g clip-path="url(#clip0_107_31299)">
<path d="M34.0724 11.4581C33.9149 10.8806 33.3636 10.4344 32.773 10.5C32.1692 10.5263 31.6574 10.9463 31.5261 11.55C30.9749 14.1882 29.1636 17.1413 27.5755 17.1413C27.0505 17.1413 26.4992 16.8132 25.9086 16.17C23.8217 13.8994 22.6011 5.52565 22.3124 2.49377C22.2599 2.02127 21.9449 1.60128 21.4986 1.41753C21.0524 1.23378 20.5405 1.2994 20.173 1.6144C13.6236 6.99565 12.9674 15.4744 13.0199 19.2544C10.3424 17.9025 9.14798 14.0963 9.13485 14.0569C8.9511 13.4663 8.41298 13.0725 7.78298 13.125C7.1661 13.1775 6.66735 13.6238 6.57548 14.2407C5.0136 24.2288 6.19485 31.5919 10.0536 36.1069C13.6236 40.2675 18.4011 40.7136 20.278 40.7136C20.7767 40.7136 21.0917 40.6874 21.0917 40.6874C26.0136 40.3593 29.7542 38.4561 32.2086 35.0043C38.1805 26.6044 34.243 12.075 34.0724 11.4581Z" fill="url(#paint0_radial_107_31299)"/>
</g>
<defs>
<radialGradient id="paint0_radial_107_31299" cx="0" cy="0" r="1" gradientUnits="userSpaceOnUse" gradientTransform="translate(20.705 1.31598) rotate(90) scale(39.3977 29.5961)">
<stop stop-color="#7940F0"/>
<stop offset="0.5" stop-color="#6220F3"/>
<stop offset="1" stop-color="#7940F0"/>
</radialGradient>
<clipPath id="clip0_107_31299">
<rect width="42" height="42" fill="white"/>
</clipPath>
</defs>
</svg>
