<svg width="42" height="42" viewBox="0 0 42 42" fill="none" xmlns="http://www.w3.org/2000/svg">
<g clip-path="url(#clip0_107_31301)">
<path fill-rule="evenodd" clip-rule="evenodd" d="M24.5576 2.28926C23.817 2 22.878 2 21 2C19.122 2 18.183 2 17.4424 2.28926C16.4548 2.67494 15.6702 3.4147 15.2611 4.3458C15.0744 4.77085 15.0013 5.26515 14.9727 5.98618C14.9307 7.04579 14.3543 8.02659 13.3803 8.55677C12.4063 9.08692 11.2173 9.06713 10.223 8.57164C9.54635 8.23447 9.05577 8.04698 8.57197 7.98694C7.51217 7.85538 6.44035 8.12615 5.59231 8.73968C4.95627 9.19982 4.48677 9.96651 3.54779 11.4999C2.60881 13.0332 2.13934 13.7999 2.0347 14.5493C1.89516 15.5485 2.18236 16.5591 2.83309 17.3586C3.13011 17.7236 3.54753 18.0303 4.19539 18.4141C5.14781 18.9784 5.76063 19.9396 5.76057 21C5.76051 22.0604 5.14771 23.0214 4.19539 23.5855C3.54743 23.9695 3.12993 24.2764 2.83289 24.6413C2.18216 25.4409 1.89498 26.4513 2.0345 27.4505C2.13914 28.1999 2.60863 28.9667 3.54759 30.5C4.48657 32.0333 4.95607 32.8001 5.59211 33.2601C6.44015 33.8736 7.51197 34.1444 8.57177 34.0129C9.05555 33.9529 9.54609 33.7653 10.2226 33.4283C11.217 32.9328 12.4062 32.913 13.3802 33.4431C14.3543 33.9734 14.9306 34.9542 14.9727 36.014C15.0013 36.7348 15.0744 37.2292 15.2611 37.6543C15.6702 38.5853 16.4548 39.3251 17.4424 39.7108C18.183 40 19.122 40 21 40C22.878 40 23.817 40 24.5576 39.7108C25.5452 39.3251 26.3298 38.5853 26.7388 37.6543C26.9256 37.2292 26.9988 36.7349 27.0274 36.0138C27.0694 34.9542 27.6456 33.9734 28.6196 33.4431C29.5936 32.9128 30.7828 32.9328 31.7772 33.4283C32.4538 33.7653 32.9442 33.9527 33.428 34.0127C34.4878 34.1444 35.5596 33.8736 36.4076 33.2601C37.0438 32.7999 37.5132 32.0333 38.4522 30.4998C39.3912 28.9665 39.8606 28.1999 39.9654 27.4505C40.1048 26.4513 39.8176 25.4407 39.167 24.6412C38.8698 24.2762 38.4524 23.9693 37.8044 23.5855C36.8522 23.0214 36.2394 22.0602 36.2394 20.9998C36.2394 19.9394 36.8522 18.9786 37.8044 18.4145C38.4526 18.0305 38.87 17.7238 39.1672 17.3586C39.8178 16.5592 40.105 15.5487 39.9656 14.5494C39.8608 13.8 39.3914 13.0334 38.4524 11.5C37.5134 9.96664 37.044 9.19995 36.4078 8.73981C35.5598 8.12628 34.488 7.85552 33.4282 7.98707C32.9444 8.04711 32.4538 8.23458 31.7774 8.57172C30.783 9.06722 29.5938 9.08704 28.6198 8.55682C27.6458 8.02663 27.0694 7.04575 27.0272 5.98609C26.9986 5.26511 26.9256 4.77083 26.7388 4.3458C26.3298 3.4147 25.5452 2.67494 24.5576 2.28926Z" fill="#BCBCBC"/>
<g filter="url(#filter0_f_107_31301)">
<rect width="16.0403" height="16.1287" rx="8.02016" transform="matrix(0.873877 -0.486148 0.50209 0.864815 10.0005 18.1728)" fill="#45545F"/>
</g>
</g>
<defs>
<filter id="filter0_f_107_31301" x="11.9681" y="12.2609" width="18.1801" height="17.9742" filterUnits="userSpaceOnUse" color-interpolation-filters="sRGB">
<feFlood flood-opacity="0" result="BackgroundImageFix"/>
<feBlend mode="normal" in="SourceGraphic" in2="BackgroundImageFix" result="shape"/>
<feGaussianBlur stdDeviation="0.5" result="effect1_foregroundBlur_107_31301"/>
</filter>
<clipPath id="clip0_107_31301">
<rect width="42" height="42" fill="white"/>
</clipPath>
</defs>
</svg>
