<svg width="42" height="42" viewBox="0 0 42 42" fill="none" xmlns="http://www.w3.org/2000/svg">
<g clip-path="url(#clip0_107_31303)">
<path opacity="0.5" d="M11.4333 38.6473H11.0001C9.42873 38.6473 8.64306 38.6474 8.1549 38.1592C7.66675 37.671 7.66675 36.8853 7.66675 35.314V33.4607C7.66675 32.5965 7.66675 32.1645 7.88871 31.7787C8.11068 31.3927 8.44553 31.198 9.11525 30.8085C13.5244 28.244 19.7859 26.8005 23.9652 29.2932C24.2459 29.4607 24.4986 29.6629 24.7142 29.9052C25.6444 30.95 25.5767 32.5269 24.5047 33.4625C24.2782 33.66 24.0371 33.81 23.7941 33.862C23.9937 33.8389 24.1851 33.8124 24.3677 33.7832C25.8867 33.5409 27.1617 32.7292 28.3291 31.8473L31.3411 29.5722C32.4029 28.77 33.9789 28.7699 35.0409 29.5717C35.9971 30.2937 36.2894 31.4824 35.6849 32.4512C34.9801 33.5812 33.9869 35.0267 33.0332 35.9098C32.0782 36.7943 30.6566 37.584 29.4959 38.1442C28.2101 38.7649 26.7897 39.1224 25.3449 39.3564C22.4147 39.8305 19.3611 39.7582 16.4606 39.1607C14.821 38.8229 13.1181 38.6473 11.4333 38.6473Z" fill="#45545F"/>
<g filter="url(#filter0_f_107_31303)">
<rect width="14.3519" height="14.4309" rx="7.17594" transform="matrix(0.873877 -0.486148 0.50209 0.864815 11 14.4705)" fill="url(#paint0_radial_107_31303)"/>
</g>
</g>
<defs>
<filter id="filter0_f_107_31303" x="12.6552" y="9.07562" width="16.477" height="16.2927" filterUnits="userSpaceOnUse" color-interpolation-filters="sRGB">
<feFlood flood-opacity="0" result="BackgroundImageFix"/>
<feBlend mode="normal" in="SourceGraphic" in2="BackgroundImageFix" result="shape"/>
<feGaussianBlur stdDeviation="0.5" result="effect1_foregroundBlur_107_31303"/>
</filter>
<radialGradient id="paint0_radial_107_31303" cx="0" cy="0" r="1" gradientUnits="userSpaceOnUse" gradientTransform="translate(7.17594) rotate(90) scale(14.4309 14.3519)">
<stop stop-color="#7940F0"/>
<stop offset="0.5" stop-color="#6220F3"/>
<stop offset="1" stop-color="#7940F0"/>
</radialGradient>
<clipPath id="clip0_107_31303">
<rect width="42" height="42" fill="white"/>
</clipPath>
</defs>
</svg>
