<svg width="42" height="42" viewBox="0 0 42 42" fill="none" xmlns="http://www.w3.org/2000/svg">
<g clip-path="url(#clip0_107_31300)">
<g opacity="0.8" filter="url(#filter0_f_107_31300)">
<rect width="28.502" height="18.077" rx="4" transform="matrix(0.96624 -0.257645 0.307651 0.951499 3.64746 8.34338)" fill="#45545F"/>
</g>
<path d="M9.09521 29.9213C9.09521 30.6474 9.73481 31.2359 10.5238 31.2359C11.3128 31.2359 11.9524 30.6474 11.9524 29.9213V19.4045C11.9524 18.6784 11.3128 18.0898 10.5238 18.0898C9.73481 18.0898 9.09521 18.6784 9.09521 19.4045V29.9213Z" fill="#BCBCBC"/>
<path fill-rule="evenodd" clip-rule="evenodd" d="M37.5493 18.0965C37.4309 18.0898 37.3017 18.0898 37.1678 18.0898L37.1345 18.0899H31.8855C27.5591 18.0899 23.8572 21.1329 23.8572 25.1011C23.8572 29.0693 27.5591 32.1124 31.8855 32.1124H37.1345H37.1678C37.3017 32.1124 37.4309 32.1124 37.5493 32.1057C39.3067 32.0067 40.8609 30.7778 40.9916 29.0614C41.0002 28.9489 41 28.8276 41 28.7152V28.6846V21.5176V21.4871C41 21.3746 41.0002 21.2533 40.9916 21.1408C40.8609 19.4244 39.3067 18.1956 37.5493 18.0965ZM31.4202 26.9708C32.5341 26.9708 33.437 26.1337 33.437 25.1011C33.437 24.0685 32.5341 23.2314 31.4202 23.2314C30.3063 23.2314 29.4035 24.0685 29.4035 25.1011C29.4035 26.1337 30.3063 26.9708 31.4202 26.9708Z" fill="#BCBCBC"/>
<path opacity="0.5" d="M37.4559 18.0924C37.4559 16.023 37.3742 13.8032 35.9367 12.2118C35.7978 12.0582 35.6502 11.9091 35.4929 11.7643C34.0674 10.4525 32.2597 9.87039 30.0266 9.59411C27.8567 9.32563 25.0841 9.32567 21.5836 9.32568H17.5592C14.0587 9.32567 11.2861 9.32563 9.11613 9.59411C6.88296 9.87039 5.07544 10.4525 3.64997 11.7643C2.22453 13.076 1.59192 14.7394 1.2917 16.7944C0.999943 18.7912 0.999981 21.3426 1 24.564V24.7617C0.999981 27.983 0.999943 30.5344 1.2917 32.5312C1.59192 34.5862 2.22453 36.2496 3.64997 37.5614C5.07544 38.8731 6.88296 39.4552 9.11613 39.7316C11.286 39.9999 14.0586 39.9999 17.559 39.9999H21.5836C25.0841 39.9999 27.8567 39.9999 30.0266 39.7316C32.2597 39.4552 34.0674 38.8731 35.4929 37.5614C35.8824 37.2028 36.2133 36.8175 36.4944 36.4042C37.3525 35.1431 37.4559 33.5974 37.4559 32.1096C37.3641 32.1123 37.2673 32.1123 37.1679 32.1123H31.8855C27.559 32.1123 23.8571 29.0692 23.8571 25.101C23.8571 21.1328 27.559 18.0898 31.8855 18.0898H37.1677C37.2672 18.0897 37.3641 18.0897 37.4559 18.0924Z" fill="#BCBCBC"/>
</g>
<defs>
<filter id="filter0_f_107_31300" x="2.68579" y="-0.107483" width="35.0245" height="26.7586" filterUnits="userSpaceOnUse" color-interpolation-filters="sRGB">
<feFlood flood-opacity="0" result="BackgroundImageFix"/>
<feBlend mode="normal" in="SourceGraphic" in2="BackgroundImageFix" result="shape"/>
<feGaussianBlur stdDeviation="1" result="effect1_foregroundBlur_107_31300"/>
</filter>
<clipPath id="clip0_107_31300">
<rect width="42" height="41" fill="white"/>
</clipPath>
</defs>
</svg>
